<svg width="300" height="300" viewBox="0 0 300 300" fill="none" xmlns="http://www.w3.org/2000/svg">
<path d="M70.9465 153.662C70.9465 153.662 66.6151 171.54 59.7471 153.662C52.8791 135.784 78.9774 54.0747 148.556 54.0747C223.206 51.3071 241.54 126.168 239.69 153.662C237.84 181.155 206.204 154.332 229.599 153.662C223.721 94 203.5 67.8108 151.514 65.071C99.5272 62.3311 65.9282 119.987 70.9465 153.662Z" fill="#997256"/>
<path d="M70.9465 153.662C70.9465 153.662 66.6151 171.54 59.7471 153.662C52.8791 135.784 78.9774 54.0747 148.556 54.0747C223.206 51.3071 241.54 126.168 239.69 153.662C237.84 181.155 206.204 154.332 229.599 153.662C223.721 94 203.5 67.8108 151.514 65.071C99.5272 62.3311 65.9282 119.987 70.9465 153.662Z" stroke="#997256" stroke-width="5"/>
<path d="M70.9465 153.662C70.9465 153.662 66.6151 171.54 59.7471 153.662C52.8791 135.784 78.9774 54.0747 148.556 54.0747C223.206 51.3071 241.54 126.168 239.69 153.662C237.84 181.155 206.204 154.332 229.599 153.662C223.721 94 203.5 67.8108 151.514 65.071C99.5272 62.3311 65.9282 119.987 70.9465 153.662Z" stroke="black" stroke-opacity="0.2" stroke-width="5"/>
<path d="M86.5326 244.981L57 151.575H67.3021H107.137H146.285H188.867H228.015H243.124L217.712 244.981H181.312H116.752H86.5326Z" fill="#C38253"/>
<path d="M188.867 151.575L181.312 244.981M188.867 151.575H146.285M188.867 151.575H228.015H243.124L217.712 244.981H181.312M181.312 244.981H116.752M146.285 151.575L149.032 242.92M146.285 151.575H107.137M107.137 151.575L116.752 244.981M107.137 151.575H67.3021H57L86.5326 244.981H116.752" stroke="#C38253" stroke-width="5"/>
<path d="M188.867 151.575L181.312 244.981M188.867 151.575H146.285M188.867 151.575H228.015H243.124L217.712 244.981H181.312M181.312 244.981H116.752M146.285 151.575L149.032 242.92M146.285 151.575H107.137M107.137 151.575L116.752 244.981M107.137 151.575H67.3021H57L86.5326 244.981H116.752" stroke="black" stroke-opacity="0.2" stroke-width="5"/>
<path d="M66.6152 161.834C80.2988 164.635 87.9533 164.207 101.642 161.834M71.4229 177.631C84.0052 181.696 90.5574 181.483 101.642 177.631M74.8569 191.367C84.6247 193.94 90.3651 194.396 101.642 191.367M79.6645 205.103C88.1685 208.714 93.5758 209.16 105.076 205.103M85.159 218.152C93.6561 221.591 98.0755 221.869 105.076 218.152M87.9062 231.888C96.6641 235.596 101.251 235.945 108.51 231.888M114.005 161.834C125.259 165.454 131.035 165.015 140.79 161.834M114.005 177.631C125.965 181.444 131.806 181.589 140.79 177.631M118.126 191.367C126.262 193.216 131.156 193.542 140.79 191.367M118.126 205.103C126.262 207.249 131.156 207.605 140.79 205.103M121.56 218.152C131.593 222.118 135.325 221.406 140.79 218.152M121.56 231.888C129.842 235.798 134.003 235.719 140.79 231.888M155.9 161.834C168.805 165.527 174.308 165.002 182.685 161.834M155.9 177.631C164.81 181.571 170.788 181.567 182.685 177.631M155.9 191.367C164.255 193.9 169.403 194.273 179.251 191.367M155.9 205.103C164.255 208.703 169.403 209.054 179.251 205.103M155.9 218.152C163.957 221.933 168.468 221.944 176.504 218.152M155.9 231.888C163.946 235.886 168.459 237.776 176.504 231.888M195.048 161.834C208.98 164.921 216.829 165.532 230.762 161.834M195.048 177.631C206.309 182.164 212.633 182.461 223.894 177.631M195.048 191.367C203.748 194.49 210.602 193.903 223.894 191.367M195.048 205.103C205.221 209.065 210.412 208.816 219.086 205.103M189.553 218.152C196.715 220.618 201 221.632 212.905 218.152M189.553 231.888C195.937 234.067 200.073 234.485 209.471 231.888" stroke="#997256" stroke-width="2"/>
<path d="M60.5918 164.697L56.0783 151.539L247.15 151.539L243.138 166.89C243.138 166.89 247.15 181.364 247.15 182.679C247.15 183.995 239.624 181.986 235.616 184.872C230.539 188.529 241.999 194.089 231.604 197.592C224.601 199.951 221.087 191.468 213.494 192.693C206.447 193.831 204.66 200.511 197.551 201.449C188.239 202.679 190.696 190.831 181.608 192.693C175.363 193.973 172.019 200.448 165.666 201.449C159.13 202.479 157.053 192.399 150.361 192.693C144.58 192.947 141.484 201.56 135.693 201.449C128.073 201.304 127.266 193.572 119.75 192.693C112.53 191.849 108.517 202.115 101.257 201.449C91.4759 200.552 96.4333 190.101 86.5894 189.629C79.249 189.276 76.4783 196.191 69.3712 194.882C61.6966 193.469 71.314 181.797 63.6009 180.486C59.1894 179.737 56.0785 180.486 53.5708 180.486C51.0632 180.486 60.5918 164.697 60.5918 164.697Z" fill="#CDECFE"/>
<path d="M60.5918 164.697L56.0783 151.539L247.15 151.539L243.138 166.89M60.5918 164.697C60.5918 164.697 51.0632 180.486 53.5708 180.486C56.0785 180.486 59.1894 179.737 63.6009 180.486C71.314 181.797 61.6966 193.469 69.3712 194.882C76.4783 196.191 79.249 189.276 86.5894 189.629C96.4333 190.101 91.4759 200.552 101.257 201.449C108.517 202.115 112.53 191.849 119.75 192.693C127.266 193.572 128.073 201.304 135.693 201.449C141.484 201.56 144.58 192.947 150.361 192.693C157.053 192.399 159.13 202.479 165.666 201.449C172.019 200.448 175.363 193.973 181.608 192.693C190.696 190.831 188.239 202.679 197.551 201.449C204.66 200.511 206.447 193.831 213.494 192.693C221.087 191.468 224.601 199.951 231.604 197.592C241.999 194.089 230.539 188.529 235.616 184.872C239.624 181.986 247.15 183.995 247.15 182.679C247.15 181.364 243.138 166.89 243.138 166.89M60.5918 164.697L243.138 166.89" stroke="#CDECFE" stroke-width="5"/>
<path d="M60.5918 164.697L56.0783 151.539L247.15 151.539L243.138 166.89M60.5918 164.697C60.5918 164.697 51.0632 180.486 53.5708 180.486C56.0785 180.486 59.1894 179.737 63.6009 180.486C71.314 181.797 61.6966 193.469 69.3712 194.882C76.4783 196.191 79.249 189.276 86.5894 189.629C96.4333 190.101 91.4759 200.552 101.257 201.449C108.517 202.115 112.53 191.849 119.75 192.693C127.266 193.572 128.073 201.304 135.693 201.449C141.484 201.56 144.58 192.947 150.361 192.693C157.053 192.399 159.13 202.479 165.666 201.449C172.019 200.448 175.363 193.973 181.608 192.693C190.696 190.831 188.239 202.679 197.551 201.449C204.66 200.511 206.447 193.831 213.494 192.693C221.087 191.468 224.601 199.951 231.604 197.592C241.999 194.089 230.539 188.529 235.616 184.872C239.624 181.986 247.15 183.995 247.15 182.679C247.15 181.364 243.138 166.89 243.138 166.89M60.5918 164.697L243.138 166.89" stroke="black" stroke-opacity="0.2" stroke-width="5"/>
<path d="M132.132 185.761L148.828 168.495L155.018 167.441L170.131 178.371C174.14 183.971 175.76 187.274 175.662 193.951L157.366 203.041C155.85 189.369 154.482 182.346 151.995 169.876C152.361 183.276 153.008 191.058 145.26 199.521L132.132 185.761Z" fill="#E799B5"/>
<path d="M132.132 185.761L148.828 168.495L155.018 167.441L170.131 178.371C174.14 183.971 175.76 187.274 175.662 193.951L157.366 203.041C155.85 189.369 154.482 182.346 151.995 169.876C152.361 183.276 153.008 191.058 145.26 199.521L132.132 185.761Z" stroke="#E799B5" stroke-width="3"/>
<path d="M132.132 185.761L148.828 168.495L155.018 167.441L170.131 178.371C174.14 183.971 175.76 187.274 175.662 193.951L157.366 203.041C155.85 189.369 154.482 182.346 151.995 169.876C152.361 183.276 153.008 191.058 145.26 199.521L132.132 185.761Z" stroke="black" stroke-opacity="0.2" stroke-width="3"/>
<path d="M124.362 150.349C132.975 150.299 141.67 150.249 147.603 159.886C152.263 157.433 154.552 157.259 158.091 158.685C165.759 151.273 169.786 146.533 181.151 147.145C185.149 153.097 184.442 156.673 180.132 162.901C183.274 169.146 184.121 172.472 182.952 177.892C173.055 179.801 167.259 178.343 159.509 169.909C155.194 171.735 151.533 171.203 148.981 170.598L148.969 170.615C144.07 177.726 140.791 182.485 128.652 181.445C128.035 179.428 125.166 178.329 127.494 166.346C122.122 158.288 121.289 154.406 124.319 150.349L124.362 150.349Z" fill="#E799B5"/>
<path d="M147.603 159.886C141.661 150.233 132.946 150.299 124.319 150.349C121.289 154.406 122.122 158.288 127.494 166.346C125.166 178.329 128.035 179.428 128.652 181.445C140.8 182.486 144.075 177.718 148.981 170.598M147.603 159.886C145.29 162.778 146.331 168.714 148.981 170.598M147.603 159.886C152.263 157.433 154.552 157.259 158.091 158.685M148.981 170.598C151.533 171.203 155.194 171.735 159.509 169.909M158.091 158.685C165.759 151.273 169.786 146.533 181.151 147.145C185.149 153.097 184.442 156.673 180.132 162.901C183.274 169.146 184.121 172.472 182.952 177.892C173.055 179.801 167.259 178.343 159.509 169.909M158.091 158.685C163.313 161.43 161.865 167.955 159.509 169.909" stroke="#ED3E48" stroke-width="3"/>
<path d="M147.603 159.886C141.661 150.233 132.946 150.299 124.319 150.349C121.289 154.406 122.122 158.288 127.494 166.346C125.166 178.329 128.035 179.428 128.652 181.445C140.8 182.486 144.075 177.718 148.981 170.598M147.603 159.886C145.29 162.778 146.331 168.714 148.981 170.598M147.603 159.886C152.263 157.433 154.552 157.259 158.091 158.685M148.981 170.598C151.533 171.203 155.194 171.735 159.509 169.909M158.091 158.685C165.759 151.273 169.786 146.533 181.151 147.145C185.149 153.097 184.442 156.673 180.132 162.901C183.274 169.146 184.121 172.472 182.952 177.892C173.055 179.801 167.259 178.343 159.509 169.909M158.091 158.685C163.313 161.43 161.865 167.955 159.509 169.909" stroke="#E799B5" stroke-width="3"/>
<path d="M147.603 159.886C141.661 150.233 132.946 150.299 124.319 150.349C121.289 154.406 122.122 158.288 127.494 166.346C125.166 178.329 128.035 179.428 128.652 181.445C140.8 182.486 144.075 177.718 148.981 170.598M147.603 159.886C145.29 162.778 146.331 168.714 148.981 170.598M147.603 159.886C152.263 157.433 154.552 157.259 158.091 158.685M148.981 170.598C151.533 171.203 155.194 171.735 159.509 169.909M158.091 158.685C165.759 151.273 169.786 146.533 181.151 147.145C185.149 153.097 184.442 156.673 180.132 162.901C183.274 169.146 184.121 172.472 182.952 177.892C173.055 179.801 167.259 178.343 159.509 169.909M158.091 158.685C163.313 161.43 161.865 167.955 159.509 169.909" stroke="black" stroke-opacity="0.2" stroke-width="3"/>
<path d="M139.94 161.268L147.27 162.156L146.953 163.429C144.045 162.877 142.568 162.3 139.94 161.268Z" fill="#B97A91"/>
<path d="M167.348 158.849C164.906 160.421 163.522 161.267 160.891 162.487L160.351 161.503L167.348 158.849Z" fill="#B97A91"/>
<path d="M136.696 165.246L145.629 164.001L145.729 165.369L136.696 165.246Z" fill="#B97A91"/>
<path d="M170.087 163.09L162.309 164.408L162.181 163.213C165.259 162.978 166.996 163.03 170.087 163.09Z" fill="#B97A91"/>
<path d="M143.384 168.822L145.788 166.559L146.346 167.219L143.384 168.822Z" fill="#B97A91"/>
<path d="M164.689 167.016L161.285 166.609L161.519 165.8L164.689 167.016Z" fill="#B97A91"/>
<path d="M157.14 161.899C154.693 160.292 153.295 159.538 150.686 158.91L152.423 158.011C154.668 159.102 155.605 160.052 157.14 161.899Z" fill="#B97A91"/>
<path d="M149.907 166.642C151.949 168.349 153.069 169.332 155.744 170.409L153.825 170.792C152.589 170.535 151.581 168.934 149.907 166.642Z" fill="#B97A91"/>
<path d="M249.049 135.128L249.54 138.152C249.641 138.774 250.122 139.262 250.743 139.375L253.828 139.934C254.317 140.022 254.385 140.693 253.924 140.885L251.337 141.964C250.691 142.233 250.312 142.909 250.423 143.596L250.862 146.3C250.939 146.773 250.368 147.076 250.021 146.747L247.624 144.474C247.195 144.068 246.564 143.953 246.014 144.183L242.94 145.464C242.495 145.649 242.074 145.166 242.319 144.752L243.725 142.382C244.081 141.78 243.977 141.017 243.473 140.539L241.456 138.626C241.096 138.285 241.406 137.683 241.896 137.772L244.981 138.331C245.602 138.443 246.23 138.156 246.553 137.611L248.124 134.961C248.363 134.558 248.975 134.669 249.049 135.128Z" fill="#FEE358"/>
<path d="M249.049 135.128L249.54 138.152C249.641 138.774 250.122 139.262 250.743 139.375L253.828 139.934C254.317 140.022 254.385 140.693 253.924 140.885L251.337 141.964C250.691 142.233 250.312 142.909 250.423 143.596L250.862 146.3C250.939 146.773 250.368 147.076 250.021 146.747L247.624 144.474C247.195 144.068 246.564 143.953 246.014 144.183L242.94 145.464C242.495 145.649 242.074 145.166 242.319 144.752L243.725 142.382C244.081 141.78 243.977 141.017 243.473 140.539L241.456 138.626C241.096 138.285 241.406 137.683 241.896 137.772L244.981 138.331C245.602 138.443 246.23 138.156 246.553 137.611L248.124 134.961C248.363 134.558 248.975 134.669 249.049 135.128Z" stroke="#FEE358"/>
<path d="M249.049 135.128L249.54 138.152C249.641 138.774 250.122 139.262 250.743 139.375L253.828 139.934C254.317 140.022 254.385 140.693 253.924 140.885L251.337 141.964C250.691 142.233 250.312 142.909 250.423 143.596L250.862 146.3C250.939 146.773 250.368 147.076 250.021 146.747L247.624 144.474C247.195 144.068 246.564 143.953 246.014 144.183L242.94 145.464C242.495 145.649 242.074 145.166 242.319 144.752L243.725 142.382C244.081 141.78 243.977 141.017 243.473 140.539L241.456 138.626C241.096 138.285 241.406 137.683 241.896 137.772L244.981 138.331C245.602 138.443 246.23 138.156 246.553 137.611L248.124 134.961C248.363 134.558 248.975 134.669 249.049 135.128Z" stroke="black" stroke-opacity="0.2"/>
<path d="M247.992 137.302L247.754 140.295L250.595 139.8L247.795 140.513L249.101 143.176L247.609 140.623L245.574 142.764L247.452 140.473L244.889 139.134L247.542 140.271L247.992 137.302Z" fill="white"/>
<path d="M54.0209 99.9057L64.0531 103.505C64.6538 103.72 65.3331 103.552 65.754 103.084L73.3861 94.592C73.7194 94.2212 74.3486 94.4925 74.2769 94.9762L72.7343 105.395C72.6336 106.075 73.0371 106.728 73.7059 106.968L83.4044 110.447C83.8619 110.612 83.8358 111.241 83.3659 111.375L72.2883 114.54C71.711 114.704 71.2858 115.178 71.2012 115.749L69.5772 126.717C69.5083 127.182 68.8627 127.301 68.6256 126.891L63.5979 118.215C63.2511 117.616 62.5171 117.331 61.8302 117.527L51.3078 120.533C50.8193 120.673 50.4461 120.116 50.7794 119.746L58.4115 111.254C58.8324 110.785 58.9052 110.117 58.5939 109.579L53.3931 100.604C53.1627 100.207 53.5764 99.7462 54.0209 99.9057Z" fill="#FEE358"/>
<path d="M54.0209 99.9057L64.0531 103.505C64.6538 103.72 65.3331 103.552 65.754 103.084L73.3861 94.592C73.7194 94.2212 74.3486 94.4925 74.2769 94.9762L72.7343 105.395C72.6336 106.075 73.0371 106.728 73.7059 106.968L83.4044 110.447C83.8619 110.612 83.8358 111.241 83.3659 111.375L72.2883 114.54C71.711 114.704 71.2858 115.178 71.2012 115.749L69.5772 126.717C69.5083 127.182 68.8627 127.301 68.6256 126.891L63.5979 118.215C63.2511 117.616 62.5171 117.331 61.8302 117.527L51.3078 120.533C50.8193 120.673 50.4461 120.116 50.7794 119.746L58.4115 111.254C58.8324 110.785 58.9052 110.117 58.5939 109.579L53.3931 100.604C53.1627 100.207 53.5764 99.7462 54.0209 99.9057Z" stroke="#FEE358"/>
<path d="M54.0209 99.9057L64.0531 103.505C64.6538 103.72 65.3331 103.552 65.754 103.084L73.3861 94.592C73.7194 94.2212 74.3486 94.4925 74.2769 94.9762L72.7343 105.395C72.6336 106.075 73.0371 106.728 73.7059 106.968L83.4044 110.447C83.8619 110.612 83.8358 111.241 83.3659 111.375L72.2883 114.54C71.711 114.704 71.2858 115.178 71.2012 115.749L69.5772 126.717C69.5083 127.182 68.8627 127.301 68.6256 126.891L63.5979 118.215C63.2511 117.616 62.5171 117.331 61.8302 117.527L51.3078 120.533C50.8193 120.673 50.4461 120.116 50.7794 119.746L58.4115 111.254C58.8324 110.785 58.9052 110.117 58.5939 109.579L53.3931 100.604C53.1627 100.207 53.5764 99.7462 54.0209 99.9057Z" stroke="black" stroke-opacity="0.2"/>
<path d="M60.7705 106.686L65.8236 110.505L68.3778 105.024L66.262 110.682L72.5936 111.452L66.2328 111.129L67.5917 117.086L65.7764 111.229L60.2846 114.14L65.5235 110.843L60.7705 106.686Z" fill="white"/>
<path d="M161.243 72.7663L164.093 78.6462C164.371 79.2194 164.971 79.5782 165.597 79.5457L172.52 79.1868C173.02 79.1609 173.276 79.8015 172.881 80.0902L167.869 83.7584C167.31 84.167 167.136 84.9218 167.45 85.5692L170.124 91.0867C170.337 91.5248 169.879 91.9526 169.449 91.718L163.167 88.2911C162.645 88.0065 162.019 88.0389 161.561 88.3744L156.042 92.4131C155.664 92.6896 155.124 92.3135 155.246 91.8581L156.77 86.1229C156.949 85.45 156.622 84.7211 155.987 84.3744L150.281 81.2619C149.832 81.0169 149.955 80.3567 150.455 80.3308L157.378 79.9718C158.004 79.9394 158.524 79.5226 158.682 78.9268L160.307 72.8148C160.424 72.3744 161.037 72.3425 161.243 72.7663Z" fill="#FEE358"/>
<path d="M161.243 72.7663L164.093 78.6462C164.371 79.2194 164.971 79.5782 165.597 79.5457L172.52 79.1868C173.02 79.1609 173.276 79.8015 172.881 80.0902L167.869 83.7584C167.31 84.167 167.136 84.9218 167.45 85.5692L170.124 91.0867C170.337 91.5248 169.879 91.9526 169.449 91.718L163.167 88.2911C162.645 88.0065 162.019 88.0389 161.561 88.3744L156.042 92.4131C155.664 92.6896 155.124 92.3135 155.246 91.8581L156.77 86.1229C156.949 85.45 156.622 84.7211 155.987 84.3744L150.281 81.2619C149.832 81.0169 149.955 80.3567 150.455 80.3308L157.378 79.9718C158.004 79.9394 158.524 79.5226 158.682 78.9268L160.307 72.8148C160.424 72.3744 161.037 72.3425 161.243 72.7663Z" stroke="#FEE358"/>
<path d="M161.243 72.7663L164.093 78.6462C164.371 79.2194 164.971 79.5782 165.597 79.5457L172.52 79.1868C173.02 79.1609 173.276 79.8015 172.881 80.0902L167.869 83.7584C167.31 84.167 167.136 84.9218 167.45 85.5692L170.124 91.0867C170.337 91.5248 169.879 91.9526 169.449 91.718L163.167 88.2911C162.645 88.0065 162.019 88.0389 161.561 88.3744L156.042 92.4131C155.664 92.6896 155.124 92.3135 155.246 91.8581L156.77 86.1229C156.949 85.45 156.622 84.7211 155.987 84.3744L150.281 81.2619C149.832 81.0169 149.955 80.3567 150.455 80.3308L157.378 79.9718C158.004 79.9394 158.524 79.5226 158.682 78.9268L160.307 72.8148C160.424 72.3744 161.037 72.3425 161.243 72.7663Z" stroke="black" stroke-opacity="0.2"/>
<path d="M161.049 78.7193L161.694 83.1231L165.742 81.673L161.828 83.4284L164.652 86.9547L161.588 83.6358L159.286 87.2652L161.307 83.4586L157.059 82.1754L161.372 83.1417L161.049 78.7193Z" fill="white"/>
<path d="M129.12 70.1953L130.078 74.9794C130.203 75.6041 130.693 76.1019 131.307 76.2277L136.299 77.2503C136.79 77.3508 136.877 78.0352 136.422 78.2156L132.248 79.8727C131.605 80.128 131.246 80.8147 131.387 81.5202L132.266 85.9094C132.361 86.3868 131.811 86.686 131.454 86.351L127.546 82.6872C127.113 82.2806 126.499 82.1548 125.971 82.3644L121.213 84.2531C120.778 84.4258 120.35 83.9262 120.581 83.5158L122.71 79.7426C123.052 79.1362 122.919 78.3487 122.391 77.8536L118.963 74.6388C118.589 74.2888 118.875 73.6807 119.365 73.7811L124.357 74.8038C124.971 74.9296 125.579 74.6568 125.882 74.1198L128.202 70.0071C128.426 69.6102 129.028 69.7335 129.12 70.1953Z" fill="#FEE358"/>
<path d="M129.12 70.1953L130.078 74.9794C130.203 75.6041 130.693 76.1019 131.307 76.2277L136.299 77.2503C136.79 77.3508 136.877 78.0352 136.422 78.2156L132.248 79.8727C131.605 80.128 131.246 80.8147 131.387 81.5202L132.266 85.9094C132.361 86.3868 131.811 86.686 131.454 86.351L127.546 82.6872C127.113 82.2806 126.499 82.1548 125.971 82.3644L121.213 84.2531C120.778 84.4258 120.35 83.9262 120.581 83.5158L122.71 79.7426C123.052 79.1362 122.919 78.3487 122.391 77.8536L118.963 74.6388C118.589 74.2888 118.875 73.6807 119.365 73.7811L124.357 74.8038C124.971 74.9296 125.579 74.6568 125.882 74.1198L128.202 70.0071C128.426 69.6102 129.028 69.7335 129.12 70.1953Z" stroke="#FEE358"/>
<path d="M129.12 70.1953L130.078 74.9794C130.203 75.6041 130.693 76.1019 131.307 76.2277L136.299 77.2503C136.79 77.3508 136.877 78.0352 136.422 78.2156L132.248 79.8727C131.605 80.128 131.246 80.8147 131.387 81.5202L132.266 85.9094C132.361 86.3868 131.811 86.686 131.454 86.351L127.546 82.6872C127.113 82.2806 126.499 82.1548 125.971 82.3644L121.213 84.2531C120.778 84.4258 120.35 83.9262 120.581 83.5158L122.71 79.7426C123.052 79.1362 122.919 78.3487 122.391 77.8536L118.963 74.6388C118.589 74.2888 118.875 73.6807 119.365 73.7811L124.357 74.8038C124.971 74.9296 125.579 74.6568 125.882 74.1198L128.202 70.0071C128.426 69.6102 129.028 69.7335 129.12 70.1953Z" stroke="black" stroke-opacity="0.2"/>
<path d="M127.709 74.5027L127.307 78.193L130.879 77.8703L127.351 78.4675L128.893 81.9059L127.115 78.5848L124.496 81.0325L126.924 78.3827L123.764 76.4571L127.044 78.1406L127.709 74.5027Z" fill="white"/>
<path d="M223.044 96.9247L225.03 103.15C225.224 103.757 225.766 104.197 226.39 104.254L233.294 104.883C233.792 104.928 233.955 105.598 233.523 105.828L228.04 108.747C227.43 109.072 227.15 109.794 227.368 110.48L229.232 116.321C229.38 116.785 228.866 117.144 228.474 116.85L222.742 112.565C222.266 112.21 221.642 112.153 221.141 112.42L215.104 115.633C214.691 115.853 214.21 115.404 214.394 114.97L216.718 109.51C216.991 108.869 216.771 108.102 216.192 107.668L210.986 103.776C210.576 103.47 210.792 102.834 211.29 102.879L218.194 103.508C218.818 103.565 219.393 103.226 219.634 102.659L222.11 96.8397C222.289 96.4204 222.901 96.4761 223.044 96.9247Z" fill="#FEE358"/>
<path d="M223.044 96.9247L225.03 103.15C225.224 103.757 225.766 104.197 226.39 104.254L233.294 104.883C233.792 104.928 233.955 105.598 233.523 105.828L228.04 108.747C227.43 109.072 227.15 109.794 227.368 110.48L229.232 116.321C229.38 116.785 228.866 117.144 228.474 116.85L222.742 112.565C222.266 112.21 221.642 112.153 221.141 112.42L215.104 115.633C214.691 115.853 214.21 115.404 214.394 114.97L216.718 109.51C216.991 108.869 216.771 108.102 216.192 107.668L210.986 103.776C210.576 103.47 210.792 102.834 211.29 102.879L218.194 103.508C218.818 103.565 219.393 103.226 219.634 102.659L222.11 96.8397C222.289 96.4204 222.901 96.4761 223.044 96.9247Z" stroke="#FEE358"/>
<path d="M223.044 96.9247L225.03 103.15C225.224 103.757 225.766 104.197 226.39 104.254L233.294 104.883C233.792 104.928 233.955 105.598 233.523 105.828L228.04 108.747C227.43 109.072 227.15 109.794 227.368 110.48L229.232 116.321C229.38 116.785 228.866 117.144 228.474 116.85L222.742 112.565C222.266 112.21 221.642 112.153 221.141 112.42L215.104 115.633C214.691 115.853 214.21 115.404 214.394 114.97L216.718 109.51C216.991 108.869 216.771 108.102 216.192 107.668L210.986 103.776C210.576 103.47 210.792 102.834 211.29 102.879L218.194 103.508C218.818 103.565 219.393 103.226 219.634 102.659L222.11 96.8397C222.289 96.4204 222.901 96.4761 223.044 96.9247Z" stroke="black" stroke-opacity="0.2"/>
<path d="M222.006 102.79L222.019 107.24L226.232 106.38L222.108 107.562L224.402 111.453L221.841 107.733L219.046 110.998L221.588 107.517L217.566 105.644L221.697 107.213L222.006 102.79Z" fill="white"/>
<path d="M50.9282 134.161L51.2968 137.557C51.3661 138.195 51.8353 138.718 52.4633 138.856L55.8398 139.598C56.3178 139.703 56.3744 140.361 55.9215 140.548L52.8488 141.817C52.231 142.072 51.8554 142.704 51.9274 143.367L52.2827 146.641C52.3347 147.12 51.7439 147.389 51.4171 147.035L49.0343 144.451C48.6088 143.99 47.9402 143.843 47.3589 144.083L44.1029 145.428C43.6564 145.612 43.2346 145.12 43.485 144.708L45.195 141.887C45.5414 141.316 45.4687 140.586 45.0165 140.096L42.7678 137.658C42.4363 137.298 42.7665 136.725 43.2445 136.83L46.621 137.572C47.249 137.71 47.8961 137.433 48.2297 136.883L50.0032 133.958C50.2512 133.549 50.8767 133.686 50.9282 134.161Z" fill="#FEE358"/>
<path d="M50.9282 134.161L51.2968 137.557C51.3661 138.195 51.8353 138.718 52.4633 138.856L55.8398 139.598C56.3178 139.703 56.3744 140.361 55.9215 140.548L52.8488 141.817C52.231 142.072 51.8554 142.704 51.9274 143.367L52.2827 146.641C52.3347 147.12 51.7439 147.389 51.4171 147.035L49.0343 144.451C48.6088 143.99 47.9402 143.843 47.3589 144.083L44.1029 145.428C43.6564 145.612 43.2346 145.12 43.485 144.708L45.195 141.887C45.5414 141.316 45.4687 140.586 45.0165 140.096L42.7678 137.658C42.4363 137.298 42.7665 136.725 43.2445 136.83L46.621 137.572C47.249 137.71 47.8961 137.433 48.2297 136.883L50.0032 133.958C50.2512 133.549 50.8767 133.686 50.9282 134.161Z" stroke="#FEE358"/>
<path d="M50.9282 134.161L51.2968 137.557C51.3661 138.195 51.8353 138.718 52.4633 138.856L55.8398 139.598C56.3178 139.703 56.3744 140.361 55.9215 140.548L52.8488 141.817C52.231 142.072 51.8554 142.704 51.9274 143.367L52.2827 146.641C52.3347 147.12 51.7439 147.389 51.4171 147.035L49.0343 144.451C48.6088 143.99 47.9402 143.843 47.3589 144.083L44.1029 145.428C43.6564 145.612 43.2346 145.12 43.485 144.708L45.195 141.887C45.5414 141.316 45.4687 140.586 45.0165 140.096L42.7678 137.658C42.4363 137.298 42.7665 136.725 43.2445 136.83L46.621 137.572C47.249 137.71 47.8961 137.433 48.2297 136.883L50.0032 133.958C50.2512 133.549 50.8767 133.686 50.9282 134.161Z" stroke="black" stroke-opacity="0.2"/>
<path d="M49.9422 137.608L49.2938 140.523L51.8671 140.33L49.2981 140.741L50.0575 143.491L49.1182 140.829L47.0142 142.721L49.0027 140.666L46.943 139.085L49.1112 140.476L49.9422 137.608Z" fill="white"/>
<path d="M154.041 112.341L153.584 115.473C153.489 116.121 153.817 116.762 154.396 117.06L157.19 118.498C157.62 118.719 157.527 119.367 157.055 119.445L153.962 119.955C153.33 120.059 152.84 120.564 152.746 121.208L152.286 124.361C152.215 124.844 151.577 124.945 151.355 124.508L149.921 121.691C149.622 121.103 148.985 120.775 148.346 120.881L145.287 121.385C144.813 121.463 144.511 120.878 144.846 120.532L147.037 118.269C147.484 117.807 147.586 117.102 147.289 116.52L145.84 113.672C145.619 113.237 146.07 112.774 146.5 112.995L149.293 114.433C149.872 114.731 150.569 114.618 151.019 114.153L153.195 111.905C153.531 111.558 154.112 111.857 154.041 112.341Z" fill="#FEE358"/>
<path d="M154.041 112.341L153.584 115.473C153.489 116.121 153.817 116.762 154.396 117.06L157.19 118.498C157.62 118.719 157.527 119.367 157.055 119.445L153.962 119.955C153.33 120.059 152.84 120.564 152.746 121.208L152.286 124.361C152.215 124.844 151.577 124.945 151.355 124.508L149.921 121.691C149.622 121.103 148.985 120.775 148.346 120.881L145.287 121.385C144.813 121.463 144.511 120.878 144.846 120.532L147.037 118.269C147.484 117.807 147.586 117.102 147.289 116.52L145.84 113.672C145.619 113.237 146.07 112.774 146.5 112.995L149.293 114.433C149.872 114.731 150.569 114.618 151.019 114.153L153.195 111.905C153.531 111.558 154.112 111.857 154.041 112.341Z" stroke="#FEE358"/>
<path d="M154.041 112.341L153.584 115.473C153.489 116.121 153.817 116.762 154.396 117.06L157.19 118.498C157.62 118.719 157.527 119.367 157.055 119.445L153.962 119.955C153.33 120.059 152.84 120.564 152.746 121.208L152.286 124.361C152.215 124.844 151.577 124.945 151.355 124.508L149.921 121.691C149.622 121.103 148.985 120.775 148.346 120.881L145.287 121.385C144.813 121.463 144.511 120.878 144.846 120.532L147.037 118.269C147.484 117.807 147.586 117.102 147.289 116.52L145.84 113.672C145.619 113.237 146.07 112.774 146.5 112.995L149.293 114.433C149.872 114.731 150.569 114.618 151.019 114.153L153.195 111.905C153.531 111.558 154.112 111.857 154.041 112.341Z" stroke="black" stroke-opacity="0.2"/>
<path d="M152.359 115.251L151.06 117.904L153.451 118.311L151.011 118.114L151.035 120.932L150.826 118.158L148.45 119.492L150.76 117.975L149.268 115.981L150.905 117.817L152.359 115.251Z" fill="white"/>
<circle cx="121" cy="102" r="1" fill="#FEE358"/>
<circle cx="122" cy="105" r="1" fill="#FEE358"/>
<circle cx="128" cy="91" r="1" fill="#FEE358"/>
<circle cx="124" cy="103" r="1" fill="#FEE358"/>
<circle cx="122" cy="98" r="1" fill="#FEE358"/>
<circle cx="121" cy="108" r="1" fill="#FEE358"/>
<circle cx="145" cy="132" r="1" fill="#FEE358"/>
<circle cx="144" cy="127" r="1" fill="#FEE358"/>
<circle cx="83" cy="118" r="1" fill="#FEE358"/>
<circle cx="94" cy="129" r="1" fill="#FEE358"/>
<circle cx="92" cy="131" r="1" fill="#FEE358"/>
<circle cx="106" cy="141" r="1" fill="#FEE358"/>
<circle cx="91" cy="126" r="1" fill="#FEE358"/>
<circle cx="163" cy="105" r="1" fill="#FEE358"/>
<circle cx="166" cy="115" r="1" fill="#FEE358"/>
<circle cx="168" cy="112" r="1" fill="#FEE358"/>
<circle cx="168" cy="108" r="1" fill="#FEE358"/>
<circle cx="164" cy="101" r="1" fill="#FEE358"/>
<circle cx="160" cy="93" r="1" fill="#FEE358"/>
<circle cx="199" cy="121" r="1" fill="#FEE358"/>
<circle cx="191" cy="122" r="1" fill="#FEE358"/>
<circle cx="190" cy="126" r="1" fill="#FEE358"/>
<circle cx="186" cy="128" r="1" fill="#FEE358"/>
<circle cx="169" cy="118" r="1" fill="#FEE358"/>
<circle cx="167" cy="120" r="1" fill="#FEE358"/>
<circle cx="168" cy="123" r="1" fill="#FEE358"/>
<circle cx="109" cy="147" r="1" fill="#FEE358"/>
<circle cx="209" cy="111" r="1" fill="#FEE358"/>
<circle cx="207" cy="108" r="1" fill="#FEE358"/>
<circle cx="205" cy="114" r="1" fill="#FEE358"/>
<circle cx="200" cy="115" r="1" fill="#FEE358"/>
<circle cx="194" cy="123" r="1" fill="#FEE358"/>
<circle cx="163" cy="91" r="1" fill="#FEE358"/>
<circle cx="233" cy="141" r="1" fill="#FEE358"/>
<circle cx="237" cy="141" r="1" fill="#FEE358"/>
<circle cx="238" cy="144" r="1" fill="#FEE358"/>
<circle cx="229" cy="142" r="1" fill="#FEE358"/>
<circle cx="227" cy="145" r="1" fill="#FEE358"/>
<circle cx="234" cy="144" r="1" fill="#FEE358"/>
<circle cx="139" cy="137" r="1" fill="#FEE358"/>
<circle cx="149" cy="125" r="1" fill="#FEE358"/>
<circle cx="139" cy="134" r="1" fill="#FEE358"/>
<circle cx="142" cy="134" r="1" fill="#FEE358"/>
<circle cx="59" cy="144" r="1" fill="#FEE358"/>
<circle cx="59" cy="147" r="1" fill="#FEE358"/>
<circle cx="106" cy="145" r="1" fill="#FEE358"/>
<circle cx="99" cy="139" r="1" fill="#FEE358"/>
<circle cx="55" cy="145" r="1" fill="#FEE358"/>
<circle cx="62" cy="147" r="1" fill="#FEE358"/>
<circle cx="123.5" cy="89.5" r="1.5" fill="#FEE358"/>
<circle cx="101.5" cy="143.5" r="1.5" fill="#FEE358"/>
<circle cx="76.5" cy="120.5" r="1.5" fill="#FEE358"/>
<circle cx="78.5" cy="116.5" r="1.5" fill="#FEE358"/>
<circle cx="86.5" cy="121.5" r="1.5" fill="#FEE358"/>
<circle cx="122.5" cy="94.5" r="1.5" fill="#FEE358"/>
<circle cx="126.5" cy="93.5" r="1.5" fill="#FEE358"/>
<circle cx="81.5" cy="122.5" r="1.5" fill="#FEE358"/>
<circle cx="126.5" cy="86.5" r="1.5" fill="#FEE358"/>
<circle cx="86.5" cy="126.5" r="1.5" fill="#FEE358"/>
<circle cx="94.5" cy="134.5" r="1.5" fill="#FEE358"/>
<circle cx="99.5" cy="134.5" r="1.5" fill="#FEE358"/>
<circle cx="102.5" cy="138.5" r="1.5" fill="#FEE358"/>
<circle cx="166.5" cy="98.5" r="1.5" fill="#FEE358"/>
<circle cx="167.5" cy="103.5" r="1.5" fill="#FEE358"/>
<circle cx="164.5" cy="109.5" r="1.5" fill="#FEE358"/>
<circle cx="161.5" cy="97.5" r="1.5" fill="#FEE358"/>
<circle cx="165.5" cy="93.5" r="1.5" fill="#FEE358"/>
<circle cx="125.5" cy="98.5" r="1.5" fill="#FEE358"/>
<circle cx="146.5" cy="123.5" r="1.5" fill="#FEE358"/>
<circle cx="210.5" cy="107.5" r="1.5" fill="#FEE358"/>
<circle cx="208.5" cy="114.5" r="1.5" fill="#FEE358"/>
<circle cx="213.5" cy="110.5" r="1.5" fill="#FEE358"/>
<circle cx="202.5" cy="117.5" r="1.5" fill="#FEE358"/>
<circle cx="203.5" cy="111.5" r="1.5" fill="#FEE358"/>
<circle cx="195.5" cy="118.5" r="1.5" fill="#FEE358"/>
<circle cx="141.5" cy="130.5" r="1.5" fill="#FEE358"/>
<circle cx="146.5" cy="128.5" r="1.5" fill="#FEE358"/>
<circle cx="240.5" cy="141.5" r="1.5" fill="#FEE358"/>
<circle cx="230" cy="144" r="1" fill="#FEE358"/>
</svg>
