<svg width="300" height="300" viewBox="0 0 300 300" fill="none" xmlns="http://www.w3.org/2000/svg">
<path d="M70.9465 153.662C70.9465 153.662 66.6151 171.54 59.7471 153.662C52.8791 135.784 78.9774 54.0747 148.556 54.0747C223.206 51.3071 241.54 126.168 239.69 153.662C237.84 181.155 206.204 154.332 229.599 153.662C223.721 94 203.5 67.8108 151.514 65.071C99.5272 62.3311 65.9282 119.987 70.9465 153.662Z" fill="#997256"/>
<path d="M70.9465 153.662C70.9465 153.662 66.6151 171.54 59.7471 153.662C52.8791 135.784 78.9774 54.0747 148.556 54.0747C223.206 51.3071 241.54 126.168 239.69 153.662C237.84 181.155 206.204 154.332 229.599 153.662C223.721 94 203.5 67.8108 151.514 65.071C99.5272 62.3311 65.9282 119.987 70.9465 153.662Z" stroke="#997256" stroke-width="5"/>
<path d="M70.9465 153.662C70.9465 153.662 66.6151 171.54 59.7471 153.662C52.8791 135.784 78.9774 54.0747 148.556 54.0747C223.206 51.3071 241.54 126.168 239.69 153.662C237.84 181.155 206.204 154.332 229.599 153.662C223.721 94 203.5 67.8108 151.514 65.071C99.5272 62.3311 65.9282 119.987 70.9465 153.662Z" stroke="black" stroke-opacity="0.2" stroke-width="5"/>
<path d="M86.5326 244.981L57 151.575H67.3021H107.137H146.285H188.867H228.015H243.124L217.712 244.981H181.312H116.752H86.5326Z" fill="#C38253"/>
<path d="M188.867 151.575L181.312 244.981M188.867 151.575H146.285M188.867 151.575H228.015H243.124L217.712 244.981H181.312M181.312 244.981H116.752M146.285 151.575L149.032 242.92M146.285 151.575H107.137M107.137 151.575L116.752 244.981M107.137 151.575H67.3021H57L86.5326 244.981H116.752" stroke="#C38253" stroke-width="5"/>
<path d="M188.867 151.575L181.312 244.981M188.867 151.575H146.285M188.867 151.575H228.015H243.124L217.712 244.981H181.312M181.312 244.981H116.752M146.285 151.575L149.032 242.92M146.285 151.575H107.137M107.137 151.575L116.752 244.981M107.137 151.575H67.3021H57L86.5326 244.981H116.752" stroke="black" stroke-opacity="0.2" stroke-width="5"/>
<path d="M66.6152 161.834C80.2988 164.635 87.9533 164.207 101.642 161.834M71.4229 177.631C84.0052 181.696 90.5574 181.483 101.642 177.631M74.8569 191.367C84.6247 193.94 90.3651 194.396 101.642 191.367M79.6645 205.103C88.1685 208.714 93.5758 209.16 105.076 205.103M85.159 218.152C93.6561 221.591 98.0755 221.869 105.076 218.152M87.9062 231.888C96.6641 235.596 101.251 235.945 108.51 231.888M114.005 161.834C125.259 165.454 131.035 165.015 140.79 161.834M114.005 177.631C125.965 181.444 131.806 181.589 140.79 177.631M118.126 191.367C126.262 193.216 131.156 193.542 140.79 191.367M118.126 205.103C126.262 207.249 131.156 207.605 140.79 205.103M121.56 218.152C131.593 222.118 135.325 221.406 140.79 218.152M121.56 231.888C129.842 235.798 134.003 235.719 140.79 231.888M155.9 161.834C168.805 165.527 174.308 165.002 182.685 161.834M155.9 177.631C164.81 181.571 170.788 181.567 182.685 177.631M155.9 191.367C164.255 193.9 169.403 194.273 179.251 191.367M155.9 205.103C164.255 208.703 169.403 209.054 179.251 205.103M155.9 218.152C163.957 221.933 168.468 221.944 176.504 218.152M155.9 231.888C163.946 235.886 168.459 237.776 176.504 231.888M195.048 161.834C208.98 164.921 216.829 165.532 230.762 161.834M195.048 177.631C206.309 182.164 212.633 182.461 223.894 177.631M195.048 191.367C203.748 194.49 210.602 193.903 223.894 191.367M195.048 205.103C205.221 209.065 210.412 208.816 219.086 205.103M189.553 218.152C196.715 220.618 201 221.632 212.905 218.152M189.553 231.888C195.937 234.067 200.073 234.485 209.471 231.888" stroke="#997256" stroke-width="2"/>
<path d="M60.5918 164.697L56.0783 151.539L247.15 151.539L243.138 166.89C243.138 166.89 247.15 181.364 247.15 182.679C247.15 183.995 239.624 181.986 235.616 184.872C230.539 188.529 241.999 194.089 231.604 197.592C224.601 199.951 221.087 191.468 213.494 192.693C206.447 193.831 204.66 200.511 197.551 201.449C188.239 202.679 190.696 190.831 181.608 192.693C175.363 193.973 172.019 200.448 165.666 201.449C159.13 202.479 157.053 192.399 150.361 192.693C144.58 192.947 141.484 201.56 135.693 201.449C128.073 201.304 127.266 193.572 119.75 192.693C112.53 191.849 108.517 202.115 101.257 201.449C91.4759 200.552 96.4333 190.101 86.5894 189.629C79.249 189.276 76.4783 196.191 69.3712 194.882C61.6966 193.469 71.314 181.797 63.6009 180.486C59.1894 179.737 56.0785 180.486 53.5708 180.486C51.0632 180.486 60.5918 164.697 60.5918 164.697Z" fill="#CDECFE"/>
<path d="M60.5918 164.697L56.0783 151.539L247.15 151.539L243.138 166.89M60.5918 164.697C60.5918 164.697 51.0632 180.486 53.5708 180.486C56.0785 180.486 59.1894 179.737 63.6009 180.486C71.314 181.797 61.6966 193.469 69.3712 194.882C76.4783 196.191 79.249 189.276 86.5894 189.629C96.4333 190.101 91.4759 200.552 101.257 201.449C108.517 202.115 112.53 191.849 119.75 192.693C127.266 193.572 128.073 201.304 135.693 201.449C141.484 201.56 144.58 192.947 150.361 192.693C157.053 192.399 159.13 202.479 165.666 201.449C172.019 200.448 175.363 193.973 181.608 192.693C190.696 190.831 188.239 202.679 197.551 201.449C204.66 200.511 206.447 193.831 213.494 192.693C221.087 191.468 224.601 199.951 231.604 197.592C241.999 194.089 230.539 188.529 235.616 184.872C239.624 181.986 247.15 183.995 247.15 182.679C247.15 181.364 243.138 166.89 243.138 166.89M60.5918 164.697L243.138 166.89" stroke="#CDECFE" stroke-width="5"/>
<path d="M60.5918 164.697L56.0783 151.539L247.15 151.539L243.138 166.89M60.5918 164.697C60.5918 164.697 51.0632 180.486 53.5708 180.486C56.0785 180.486 59.1894 179.737 63.6009 180.486C71.314 181.797 61.6966 193.469 69.3712 194.882C76.4783 196.191 79.249 189.276 86.5894 189.629C96.4333 190.101 91.4759 200.552 101.257 201.449C108.517 202.115 112.53 191.849 119.75 192.693C127.266 193.572 128.073 201.304 135.693 201.449C141.484 201.56 144.58 192.947 150.361 192.693C157.053 192.399 159.13 202.479 165.666 201.449C172.019 200.448 175.363 193.973 181.608 192.693C190.696 190.831 188.239 202.679 197.551 201.449C204.66 200.511 206.447 193.831 213.494 192.693C221.087 191.468 224.601 199.951 231.604 197.592C241.999 194.089 230.539 188.529 235.616 184.872C239.624 181.986 247.15 183.995 247.15 182.679C247.15 181.364 243.138 166.89 243.138 166.89M60.5918 164.697L243.138 166.89" stroke="black" stroke-opacity="0.2" stroke-width="5"/>
<path d="M132.132 185.761L148.828 168.495L155.018 167.441L170.131 178.371C174.14 183.971 175.76 187.274 175.662 193.951L157.366 203.041C155.85 189.369 154.482 182.346 151.995 169.876C152.361 183.276 153.008 191.058 145.26 199.521L132.132 185.761Z" fill="#E799B5"/>
<path d="M132.132 185.761L148.828 168.495L155.018 167.441L170.131 178.371C174.14 183.971 175.76 187.274 175.662 193.951L157.366 203.041C155.85 189.369 154.482 182.346 151.995 169.876C152.361 183.276 153.008 191.058 145.26 199.521L132.132 185.761Z" stroke="#E799B5" stroke-width="3"/>
<path d="M132.132 185.761L148.828 168.495L155.018 167.441L170.131 178.371C174.14 183.971 175.76 187.274 175.662 193.951L157.366 203.041C155.85 189.369 154.482 182.346 151.995 169.876C152.361 183.276 153.008 191.058 145.26 199.521L132.132 185.761Z" stroke="black" stroke-opacity="0.2" stroke-width="3"/>
<path d="M124.362 150.349C132.975 150.299 141.67 150.249 147.603 159.886C152.263 157.433 154.552 157.259 158.091 158.685C165.759 151.273 169.786 146.533 181.151 147.145C185.149 153.097 184.442 156.673 180.132 162.901C183.274 169.146 184.121 172.472 182.952 177.892C173.055 179.801 167.259 178.343 159.509 169.909C155.194 171.735 151.533 171.203 148.981 170.598L148.969 170.615C144.07 177.726 140.791 182.485 128.652 181.445C128.035 179.428 125.166 178.329 127.494 166.346C122.122 158.288 121.289 154.406 124.319 150.349L124.362 150.349Z" fill="#E799B5"/>
<path d="M147.603 159.886C141.661 150.233 132.946 150.299 124.319 150.349C121.289 154.406 122.122 158.288 127.494 166.346C125.166 178.329 128.035 179.428 128.652 181.445C140.8 182.486 144.075 177.718 148.981 170.598M147.603 159.886C145.29 162.778 146.331 168.714 148.981 170.598M147.603 159.886C152.263 157.433 154.552 157.259 158.091 158.685M148.981 170.598C151.533 171.203 155.194 171.735 159.509 169.909M158.091 158.685C165.759 151.273 169.786 146.533 181.151 147.145C185.149 153.097 184.442 156.673 180.132 162.901C183.274 169.146 184.121 172.472 182.952 177.892C173.055 179.801 167.259 178.343 159.509 169.909M158.091 158.685C163.313 161.43 161.865 167.955 159.509 169.909" stroke="#ED3E48" stroke-width="3"/>
<path d="M147.603 159.886C141.661 150.233 132.946 150.299 124.319 150.349C121.289 154.406 122.122 158.288 127.494 166.346C125.166 178.329 128.035 179.428 128.652 181.445C140.8 182.486 144.075 177.718 148.981 170.598M147.603 159.886C145.29 162.778 146.331 168.714 148.981 170.598M147.603 159.886C152.263 157.433 154.552 157.259 158.091 158.685M148.981 170.598C151.533 171.203 155.194 171.735 159.509 169.909M158.091 158.685C165.759 151.273 169.786 146.533 181.151 147.145C185.149 153.097 184.442 156.673 180.132 162.901C183.274 169.146 184.121 172.472 182.952 177.892C173.055 179.801 167.259 178.343 159.509 169.909M158.091 158.685C163.313 161.43 161.865 167.955 159.509 169.909" stroke="#E799B5" stroke-width="3"/>
<path d="M147.603 159.886C141.661 150.233 132.946 150.299 124.319 150.349C121.289 154.406 122.122 158.288 127.494 166.346C125.166 178.329 128.035 179.428 128.652 181.445C140.8 182.486 144.075 177.718 148.981 170.598M147.603 159.886C145.29 162.778 146.331 168.714 148.981 170.598M147.603 159.886C152.263 157.433 154.552 157.259 158.091 158.685M148.981 170.598C151.533 171.203 155.194 171.735 159.509 169.909M158.091 158.685C165.759 151.273 169.786 146.533 181.151 147.145C185.149 153.097 184.442 156.673 180.132 162.901C183.274 169.146 184.121 172.472 182.952 177.892C173.055 179.801 167.259 178.343 159.509 169.909M158.091 158.685C163.313 161.43 161.865 167.955 159.509 169.909" stroke="black" stroke-opacity="0.2" stroke-width="3"/>
<path d="M139.94 161.268L147.27 162.156L146.953 163.429C144.045 162.877 142.568 162.3 139.94 161.268Z" fill="#B97A91"/>
<path d="M167.348 158.849C164.906 160.421 163.522 161.267 160.891 162.487L160.351 161.503L167.348 158.849Z" fill="#B97A91"/>
<path d="M136.696 165.246L145.629 164.001L145.729 165.369L136.696 165.246Z" fill="#B97A91"/>
<path d="M170.087 163.09L162.309 164.408L162.181 163.213C165.259 162.978 166.996 163.03 170.087 163.09Z" fill="#B97A91"/>
<path d="M143.384 168.822L145.788 166.559L146.346 167.219L143.384 168.822Z" fill="#B97A91"/>
<path d="M164.689 167.016L161.285 166.609L161.519 165.8L164.689 167.016Z" fill="#B97A91"/>
<path d="M157.14 161.899C154.693 160.292 153.295 159.538 150.686 158.91L152.423 158.011C154.668 159.102 155.605 160.052 157.14 161.899Z" fill="#B97A91"/>
<path d="M149.907 166.642C151.949 168.349 153.069 169.332 155.744 170.409L153.825 170.792C152.589 170.535 151.581 168.934 149.907 166.642Z" fill="#B97A91"/>
<path d="M247.754 94.0524C247.658 93.2833 247.52 92.5056 247.338 91.7241C245.312 82.9932 238.626 77.086 232.404 78.53C226.182 79.974 222.78 88.2223 224.807 96.9532C224.995 97.7634 225.223 98.5494 225.487 99.3076C225.261 99.3449 225.035 99.3895 224.81 99.4419C219.089 100.769 215.529 106.483 216.856 112.203C217.464 114.82 218.989 116.986 221.014 118.438C220.379 119.972 220.202 121.563 220.579 123.106C221.041 125.001 222.28 126.575 224.044 127.739C223.637 129.28 223.599 130.956 224.008 132.632C225.27 137.798 230.305 141.006 235.256 139.798C238.471 139.012 240.86 136.556 241.793 133.515C243.117 138.161 246.526 141.267 249.585 140.52C252.761 139.744 254.358 135.111 253.151 130.17C253.141 130.125 253.129 130.081 253.118 130.037C256.385 131.182 259.972 130.387 262.034 127.77C264.703 124.382 263.804 119.223 260.026 116.246C259.834 116.095 259.638 115.952 259.439 115.818C259.343 115.753 259.246 115.69 259.148 115.628C259.069 115.579 258.99 115.532 258.91 115.485C260.111 114.501 261.25 113.346 262.283 112.034C267.83 104.993 268.259 96.0813 263.241 92.1284C259.228 88.9666 252.946 89.9353 247.754 94.0524Z" fill="#EFEFEF"/>
<path d="M247.754 94.0524C247.658 93.2833 247.52 92.5056 247.338 91.7241C245.312 82.9932 238.626 77.086 232.404 78.53C226.182 79.974 222.78 88.2223 224.807 96.9532C224.995 97.7634 225.223 98.5494 225.487 99.3076C225.261 99.3449 225.035 99.3895 224.81 99.4419C219.089 100.769 215.529 106.483 216.856 112.203C217.464 114.82 218.989 116.986 221.014 118.438C220.379 119.972 220.202 121.563 220.579 123.106C221.041 125.001 222.28 126.575 224.044 127.739C223.637 129.28 223.599 130.956 224.008 132.632C225.27 137.798 230.305 141.006 235.256 139.798C238.471 139.012 240.86 136.556 241.793 133.515C243.117 138.161 246.526 141.267 249.585 140.52C252.761 139.744 254.358 135.111 253.151 130.17C253.141 130.125 253.129 130.081 253.118 130.037C256.385 131.182 259.972 130.387 262.034 127.77C264.703 124.382 263.804 119.223 260.026 116.246C259.834 116.095 259.638 115.952 259.439 115.818C259.343 115.753 259.246 115.69 259.148 115.628C259.069 115.579 258.99 115.532 258.91 115.485C260.111 114.501 261.25 113.346 262.283 112.034C267.83 104.993 268.259 96.0813 263.241 92.1284C259.228 88.9666 252.946 89.9353 247.754 94.0524Z" stroke="#EFEFEF" stroke-width="3" stroke-linejoin="round"/>
<path d="M247.754 94.0524C247.658 93.2833 247.52 92.5056 247.338 91.7241C245.312 82.9932 238.626 77.086 232.404 78.53C226.182 79.974 222.78 88.2223 224.807 96.9532C224.995 97.7634 225.223 98.5494 225.487 99.3076C225.261 99.3449 225.035 99.3895 224.81 99.4419C219.089 100.769 215.529 106.483 216.856 112.203C217.464 114.82 218.989 116.986 221.014 118.438C220.379 119.972 220.202 121.563 220.579 123.106C221.041 125.001 222.28 126.575 224.044 127.739C223.637 129.28 223.599 130.956 224.008 132.632C225.27 137.798 230.305 141.006 235.256 139.798C238.471 139.012 240.86 136.556 241.793 133.515C243.117 138.161 246.526 141.267 249.585 140.52C252.761 139.744 254.358 135.111 253.151 130.17C253.141 130.125 253.129 130.081 253.118 130.037C256.385 131.182 259.972 130.387 262.034 127.77C264.703 124.382 263.804 119.223 260.026 116.246C259.834 116.095 259.638 115.952 259.439 115.818C259.343 115.753 259.246 115.69 259.148 115.628C259.069 115.579 258.99 115.532 258.91 115.485C260.111 114.501 261.25 113.346 262.283 112.034C267.83 104.993 268.259 96.0813 263.241 92.1284C259.228 88.9666 252.946 89.9353 247.754 94.0524Z" stroke="black" stroke-opacity="0.2" stroke-width="3" stroke-linejoin="round"/>
<path d="M207.488 133.718L234.103 106.476L241.429 117.415L211.072 138.44L207.488 133.718Z" fill="#EFEFEF"/>
<path d="M207.488 133.718L234.103 106.476M241.429 117.415L211.072 138.44M209.433 136.331L234.309 115.621" stroke="#EFEFEF" stroke-width="3" stroke-linecap="round"/>
<path d="M207.488 133.718L234.103 106.476M241.429 117.415L211.072 138.44M209.433 136.331L234.309 115.621" stroke="black" stroke-opacity="0.2" stroke-width="3" stroke-linecap="round"/>
<path d="M67.3184 90.0524C67.4146 89.2833 67.5525 88.5056 67.7338 87.7241C69.7601 78.9932 76.4465 73.086 82.6685 74.53C88.8906 75.974 92.2919 84.2223 90.2656 92.9532C90.0776 93.7634 89.8496 94.5494 89.5853 95.3076C89.8108 95.3449 90.0368 95.3895 90.2625 95.4419C95.9828 96.7694 99.5437 102.483 98.2162 108.203C97.6088 110.82 96.0829 112.986 94.0584 114.438C94.693 115.972 94.8703 117.563 94.4935 119.106C94.0309 121.001 92.7927 122.575 91.028 123.739C91.4352 125.28 91.4734 126.956 91.0643 128.632C89.8025 133.798 84.7672 137.006 79.8168 135.798C76.6011 135.012 74.2127 132.556 73.2796 129.515C71.9553 134.161 68.5461 137.267 65.4868 136.52C62.3112 135.744 60.7146 131.111 61.921 126.17C61.9313 126.125 61.9428 126.081 61.9541 126.037C58.6869 127.182 55.0998 126.387 53.0382 123.77C50.3691 120.382 51.2679 115.223 55.0458 112.246C55.238 112.095 55.4338 111.952 55.6329 111.818C55.7296 111.753 55.8265 111.69 55.9245 111.628C56.0035 111.579 56.0827 111.532 56.1623 111.485C54.9613 110.501 53.8227 109.346 52.789 108.034C47.2426 100.993 46.8135 92.0813 51.8308 88.1284C55.844 84.9666 62.1262 85.9353 67.3184 90.0524Z" fill="#EFEFEF"/>
<path d="M67.3184 90.0524C67.4146 89.2833 67.5525 88.5056 67.7338 87.7241C69.7601 78.9932 76.4465 73.086 82.6685 74.53C88.8906 75.974 92.2919 84.2223 90.2656 92.9532C90.0776 93.7634 89.8496 94.5494 89.5853 95.3076C89.8108 95.3449 90.0368 95.3895 90.2625 95.4419C95.9828 96.7694 99.5437 102.483 98.2162 108.203C97.6088 110.82 96.0829 112.986 94.0584 114.438C94.693 115.972 94.8703 117.563 94.4935 119.106C94.0309 121.001 92.7927 122.575 91.028 123.739C91.4352 125.28 91.4734 126.956 91.0643 128.632C89.8025 133.798 84.7672 137.006 79.8168 135.798C76.6011 135.012 74.2127 132.556 73.2796 129.515C71.9553 134.161 68.5461 137.267 65.4868 136.52C62.3112 135.744 60.7146 131.111 61.921 126.17C61.9313 126.125 61.9428 126.081 61.9541 126.037C58.6869 127.182 55.0998 126.387 53.0382 123.77C50.3691 120.382 51.2679 115.223 55.0458 112.246C55.238 112.095 55.4338 111.952 55.6329 111.818C55.7296 111.753 55.8265 111.69 55.9245 111.628C56.0035 111.579 56.0827 111.532 56.1623 111.485C54.9613 110.501 53.8227 109.346 52.789 108.034C47.2426 100.993 46.8135 92.0813 51.8308 88.1284C55.844 84.9666 62.1262 85.9353 67.3184 90.0524Z" stroke="#EFEFEF" stroke-width="3" stroke-linejoin="round"/>
<path d="M67.3184 90.0524C67.4146 89.2833 67.5525 88.5056 67.7338 87.7241C69.7601 78.9932 76.4465 73.086 82.6685 74.53C88.8906 75.974 92.2919 84.2223 90.2656 92.9532C90.0776 93.7634 89.8496 94.5494 89.5853 95.3076C89.8108 95.3449 90.0368 95.3895 90.2625 95.4419C95.9828 96.7694 99.5437 102.483 98.2162 108.203C97.6088 110.82 96.0829 112.986 94.0584 114.438C94.693 115.972 94.8703 117.563 94.4935 119.106C94.0309 121.001 92.7927 122.575 91.028 123.739C91.4352 125.28 91.4734 126.956 91.0643 128.632C89.8025 133.798 84.7672 137.006 79.8168 135.798C76.6011 135.012 74.2127 132.556 73.2796 129.515C71.9553 134.161 68.5461 137.267 65.4868 136.52C62.3112 135.744 60.7146 131.111 61.921 126.17C61.9313 126.125 61.9428 126.081 61.9541 126.037C58.6869 127.182 55.0998 126.387 53.0382 123.77C50.3691 120.382 51.2679 115.223 55.0458 112.246C55.238 112.095 55.4338 111.952 55.6329 111.818C55.7296 111.753 55.8265 111.69 55.9245 111.628C56.0035 111.579 56.0827 111.532 56.1623 111.485C54.9613 110.501 53.8227 109.346 52.789 108.034C47.2426 100.993 46.8135 92.0813 51.8308 88.1284C55.844 84.9666 62.1262 85.9353 67.3184 90.0524Z" stroke="black" stroke-opacity="0.2" stroke-width="3" stroke-linejoin="round"/>
<path d="M107.585 129.718L80.9696 102.476L73.6437 113.415L104.001 134.44L107.585 129.718Z" fill="#EFEFEF"/>
<path d="M107.585 129.718L80.9696 102.476M73.6437 113.415L104.001 134.44M105.639 132.331L80.7634 111.621" stroke="#EFEFEF" stroke-width="3" stroke-linecap="round"/>
<path d="M107.585 129.718L80.9696 102.476M73.6437 113.415L104.001 134.44M105.639 132.331L80.7634 111.621" stroke="black" stroke-opacity="0.2" stroke-width="3" stroke-linecap="round"/>
<path d="M128.615 109.48C128.865 109.041 129.144 108.608 129.449 108.183C132.859 103.438 138.365 101.561 141.747 103.991C145.129 106.421 145.106 112.238 141.696 116.984C141.379 117.424 141.045 117.84 140.695 118.23C140.822 118.309 140.947 118.392 141.069 118.48C144.178 120.715 144.888 125.046 142.653 128.155C141.631 129.578 140.17 130.498 138.587 130.864C138.584 131.947 138.291 132.948 137.677 133.782C136.924 134.807 135.783 135.443 134.429 135.701C134.288 136.73 133.89 137.748 133.224 138.654C131.168 141.446 127.333 142.114 124.657 140.144C122.919 138.865 122.098 136.787 122.3 134.723C120.337 137.186 117.506 138.2 115.853 136.983C114.136 135.719 114.338 132.53 116.304 129.86C116.321 129.836 116.339 129.812 116.357 129.788C114.104 129.658 112.145 128.279 111.561 126.187C110.805 123.478 112.64 120.599 115.66 119.756C115.814 119.713 115.968 119.677 116.121 119.646C116.196 119.631 116.27 119.617 116.344 119.605C116.404 119.595 116.464 119.586 116.523 119.578C116.048 118.684 115.652 117.704 115.359 116.655C113.788 111.026 115.766 105.556 119.777 104.436C122.986 103.54 126.523 105.7 128.615 109.48Z" fill="#EFEFEF"/>
<path d="M128.615 109.48C128.865 109.041 129.144 108.608 129.449 108.183C132.859 103.438 138.365 101.561 141.747 103.991C145.129 106.421 145.106 112.238 141.696 116.984C141.379 117.424 141.045 117.84 140.695 118.23C140.822 118.309 140.947 118.392 141.069 118.48C144.178 120.715 144.888 125.046 142.653 128.155C141.631 129.578 140.17 130.498 138.587 130.864C138.584 131.947 138.291 132.948 137.677 133.782C136.924 134.807 135.783 135.443 134.429 135.701C134.288 136.73 133.89 137.748 133.224 138.654C131.168 141.446 127.333 142.114 124.657 140.144C122.919 138.865 122.098 136.787 122.3 134.723C120.337 137.186 117.506 138.2 115.853 136.983C114.136 135.719 114.338 132.53 116.304 129.86C116.321 129.836 116.339 129.812 116.357 129.788C114.104 129.658 112.145 128.279 111.561 126.187C110.805 123.478 112.64 120.599 115.66 119.756C115.814 119.713 115.968 119.677 116.121 119.646C116.196 119.631 116.27 119.617 116.344 119.605C116.404 119.595 116.464 119.586 116.523 119.578C116.048 118.684 115.652 117.704 115.359 116.655C113.788 111.026 115.766 105.556 119.777 104.436C122.986 103.54 126.523 105.7 128.615 109.48Z" stroke="#EFEFEF" stroke-width="3" stroke-linejoin="round"/>
<path d="M128.615 109.48C128.865 109.041 129.144 108.608 129.449 108.183C132.859 103.438 138.365 101.561 141.747 103.991C145.129 106.421 145.106 112.238 141.696 116.984C141.379 117.424 141.045 117.84 140.695 118.23C140.822 118.309 140.947 118.392 141.069 118.48C144.178 120.715 144.888 125.046 142.653 128.155C141.631 129.578 140.17 130.498 138.587 130.864C138.584 131.947 138.291 132.948 137.677 133.782C136.924 134.807 135.783 135.443 134.429 135.701C134.288 136.73 133.89 137.748 133.224 138.654C131.168 141.446 127.333 142.114 124.657 140.144C122.919 138.865 122.098 136.787 122.3 134.723C120.337 137.186 117.506 138.2 115.853 136.983C114.136 135.719 114.338 132.53 116.304 129.86C116.321 129.836 116.339 129.812 116.357 129.788C114.104 129.658 112.145 128.279 111.561 126.187C110.805 123.478 112.64 120.599 115.66 119.756C115.814 119.713 115.968 119.677 116.121 119.646C116.196 119.631 116.27 119.617 116.344 119.605C116.404 119.595 116.464 119.586 116.523 119.578C116.048 118.684 115.652 117.704 115.359 116.655C113.788 111.026 115.766 105.556 119.777 104.436C122.986 103.54 126.523 105.7 128.615 109.48Z" stroke="black" stroke-opacity="0.2" stroke-width="3" stroke-linejoin="round"/>
<path d="M142.893 143.452L133.712 120.381L126.559 125.125L139.551 145.395L142.893 143.452Z" fill="#EFEFEF"/>
<path d="M142.893 143.452L133.712 120.381M126.559 125.125L139.551 145.395" stroke="#EFEFEF" stroke-width="3" stroke-linecap="round"/>
<path d="M142.893 143.452L133.712 120.381M126.559 125.125L139.551 145.395" stroke="black" stroke-opacity="0.2" stroke-width="3" stroke-linecap="round"/>
<path d="M179.463 103.48C179.212 103.041 178.934 102.608 178.628 102.183C175.218 97.4377 169.712 95.5607 166.331 97.9909C162.949 100.421 162.972 106.238 166.382 110.984C166.698 111.424 167.033 111.84 167.382 112.23C167.255 112.309 167.131 112.392 167.008 112.48C163.899 114.715 163.19 119.046 165.424 122.155C166.446 123.578 167.908 124.498 169.49 124.864C169.493 125.947 169.786 126.948 170.4 127.782C171.154 128.807 172.294 129.443 173.648 129.701C173.789 130.73 174.187 131.748 174.854 132.654C176.909 135.446 180.744 136.114 183.42 134.144C185.158 132.865 185.979 130.787 185.777 128.723C187.74 131.186 190.571 132.2 192.224 130.983C193.941 129.719 193.739 126.53 191.773 123.86C191.756 123.836 191.738 123.812 191.72 123.788C193.973 123.658 195.933 122.279 196.516 120.187C197.272 117.478 195.437 114.599 192.417 113.756C192.263 113.713 192.11 113.677 191.956 113.646C191.881 113.631 191.807 113.617 191.733 113.605C191.673 113.595 191.614 113.586 191.554 113.578C192.03 112.684 192.425 111.704 192.718 110.655C194.289 105.026 192.311 99.5559 188.3 98.4361C185.091 97.5404 181.554 99.6997 179.463 103.48Z" fill="#EFEFEF"/>
<path d="M179.463 103.48C179.212 103.041 178.934 102.608 178.628 102.183C175.218 97.4377 169.712 95.5607 166.331 97.9909C162.949 100.421 162.972 106.238 166.382 110.984C166.698 111.424 167.033 111.84 167.382 112.23C167.255 112.309 167.131 112.392 167.008 112.48C163.899 114.715 163.19 119.046 165.424 122.155C166.446 123.578 167.908 124.498 169.49 124.864C169.493 125.947 169.786 126.948 170.4 127.782C171.154 128.807 172.294 129.443 173.648 129.701C173.789 130.73 174.187 131.748 174.854 132.654C176.909 135.446 180.744 136.114 183.42 134.144C185.158 132.865 185.979 130.787 185.777 128.723C187.74 131.186 190.571 132.2 192.224 130.983C193.941 129.719 193.739 126.53 191.773 123.86C191.756 123.836 191.738 123.812 191.72 123.788C193.973 123.658 195.933 122.279 196.516 120.187C197.272 117.478 195.437 114.599 192.417 113.756C192.263 113.713 192.11 113.677 191.956 113.646C191.881 113.631 191.807 113.617 191.733 113.605C191.673 113.595 191.614 113.586 191.554 113.578C192.03 112.684 192.425 111.704 192.718 110.655C194.289 105.026 192.311 99.5559 188.3 98.4361C185.091 97.5404 181.554 99.6997 179.463 103.48Z" stroke="#EFEFEF" stroke-width="3" stroke-linejoin="round"/>
<path d="M179.463 103.48C179.212 103.041 178.934 102.608 178.628 102.183C175.218 97.4377 169.712 95.5607 166.331 97.9909C162.949 100.421 162.972 106.238 166.382 110.984C166.698 111.424 167.033 111.84 167.382 112.23C167.255 112.309 167.131 112.392 167.008 112.48C163.899 114.715 163.19 119.046 165.424 122.155C166.446 123.578 167.908 124.498 169.49 124.864C169.493 125.947 169.786 126.948 170.4 127.782C171.154 128.807 172.294 129.443 173.648 129.701C173.789 130.73 174.187 131.748 174.854 132.654C176.909 135.446 180.744 136.114 183.42 134.144C185.158 132.865 185.979 130.787 185.777 128.723C187.74 131.186 190.571 132.2 192.224 130.983C193.941 129.719 193.739 126.53 191.773 123.86C191.756 123.836 191.738 123.812 191.72 123.788C193.973 123.658 195.933 122.279 196.516 120.187C197.272 117.478 195.437 114.599 192.417 113.756C192.263 113.713 192.11 113.677 191.956 113.646C191.881 113.631 191.807 113.617 191.733 113.605C191.673 113.595 191.614 113.586 191.554 113.578C192.03 112.684 192.425 111.704 192.718 110.655C194.289 105.026 192.311 99.5559 188.3 98.4361C185.091 97.5404 181.554 99.6997 179.463 103.48Z" stroke="black" stroke-opacity="0.2" stroke-width="3" stroke-linejoin="round"/>
<path d="M165.185 137.452L174.365 114.381L181.518 119.125L168.526 139.395L165.185 137.452Z" fill="#EFEFEF"/>
<path d="M165.185 137.452L174.365 114.381M181.518 119.125L168.526 139.395" stroke="#EFEFEF" stroke-width="3" stroke-linecap="round"/>
<path d="M165.185 137.452L174.365 114.381M181.518 119.125L168.526 139.395" stroke="black" stroke-opacity="0.2" stroke-width="3" stroke-linecap="round"/>
</svg>
