<svg width="300" height="300" viewBox="0 0 300 300" fill="none" xmlns="http://www.w3.org/2000/svg">
<path d="M70.9465 153.662C70.9465 153.662 66.6151 171.54 59.7471 153.662C52.8791 135.784 78.9774 54.0747 148.556 54.0747C223.206 51.3071 241.54 126.168 239.69 153.662C237.84 181.155 206.204 154.332 229.599 153.662C223.721 94 203.5 67.8108 151.514 65.071C99.5272 62.3311 65.9282 119.987 70.9465 153.662Z" fill="#997256"/>
<path d="M70.9465 153.662C70.9465 153.662 66.6151 171.54 59.7471 153.662C52.8791 135.784 78.9774 54.0747 148.556 54.0747C223.206 51.3071 241.54 126.168 239.69 153.662C237.84 181.155 206.204 154.332 229.599 153.662C223.721 94 203.5 67.8108 151.514 65.071C99.5272 62.3311 65.9282 119.987 70.9465 153.662Z" stroke="#997256" stroke-width="5"/>
<path d="M70.9465 153.662C70.9465 153.662 66.6151 171.54 59.7471 153.662C52.8791 135.784 78.9774 54.0747 148.556 54.0747C223.206 51.3071 241.54 126.168 239.69 153.662C237.84 181.155 206.204 154.332 229.599 153.662C223.721 94 203.5 67.8108 151.514 65.071C99.5272 62.3311 65.9282 119.987 70.9465 153.662Z" stroke="black" stroke-opacity="0.2" stroke-width="5"/>
<path d="M86.5326 244.981L57 151.575H67.3021H107.137H146.285H188.867H228.015H243.124L217.712 244.981H181.312H116.752H86.5326Z" fill="#C38253"/>
<path d="M188.867 151.575L181.312 244.981M188.867 151.575H146.285M188.867 151.575H228.015H243.124L217.712 244.981H181.312M181.312 244.981H116.752M146.285 151.575L149.032 242.92M146.285 151.575H107.137M107.137 151.575L116.752 244.981M107.137 151.575H67.3021H57L86.5326 244.981H116.752" stroke="#C38253" stroke-width="5"/>
<path d="M188.867 151.575L181.312 244.981M188.867 151.575H146.285M188.867 151.575H228.015H243.124L217.712 244.981H181.312M181.312 244.981H116.752M146.285 151.575L149.032 242.92M146.285 151.575H107.137M107.137 151.575L116.752 244.981M107.137 151.575H67.3021H57L86.5326 244.981H116.752" stroke="black" stroke-opacity="0.2" stroke-width="5"/>
<path d="M66.6152 161.834C80.2988 164.635 87.9533 164.207 101.642 161.834M71.4229 177.631C84.0052 181.696 90.5574 181.483 101.642 177.631M74.8569 191.367C84.6247 193.94 90.3651 194.396 101.642 191.367M79.6645 205.103C88.1685 208.714 93.5758 209.16 105.076 205.103M85.159 218.152C93.6561 221.591 98.0755 221.869 105.076 218.152M87.9062 231.888C96.6641 235.596 101.251 235.945 108.51 231.888M114.005 161.834C125.259 165.454 131.035 165.015 140.79 161.834M114.005 177.631C125.965 181.444 131.806 181.589 140.79 177.631M118.126 191.367C126.262 193.216 131.156 193.542 140.79 191.367M118.126 205.103C126.262 207.249 131.156 207.605 140.79 205.103M121.56 218.152C131.593 222.118 135.325 221.406 140.79 218.152M121.56 231.888C129.842 235.798 134.003 235.719 140.79 231.888M155.9 161.834C168.805 165.527 174.308 165.002 182.685 161.834M155.9 177.631C164.81 181.571 170.788 181.567 182.685 177.631M155.9 191.367C164.255 193.9 169.403 194.273 179.251 191.367M155.9 205.103C164.255 208.703 169.403 209.054 179.251 205.103M155.9 218.152C163.957 221.933 168.468 221.944 176.504 218.152M155.9 231.888C163.946 235.886 168.459 237.776 176.504 231.888M195.048 161.834C208.98 164.921 216.829 165.532 230.762 161.834M195.048 177.631C206.309 182.164 212.633 182.461 223.894 177.631M195.048 191.367C203.748 194.49 210.602 193.903 223.894 191.367M195.048 205.103C205.221 209.065 210.412 208.816 219.086 205.103M189.553 218.152C196.715 220.618 201 221.632 212.905 218.152M189.553 231.888C195.937 234.067 200.073 234.485 209.471 231.888" stroke="#997256" stroke-width="2"/>
<path d="M60.5918 164.697L56.0783 151.539L247.15 151.539L243.138 166.89C243.138 166.89 247.15 181.364 247.15 182.679C247.15 183.995 239.624 181.986 235.616 184.872C230.539 188.529 241.999 194.089 231.604 197.592C224.601 199.951 221.087 191.468 213.494 192.693C206.447 193.831 204.66 200.511 197.551 201.449C188.239 202.679 190.696 190.831 181.608 192.693C175.363 193.973 172.019 200.448 165.666 201.449C159.13 202.479 157.053 192.399 150.361 192.693C144.58 192.947 141.484 201.56 135.693 201.449C128.073 201.304 127.266 193.572 119.75 192.693C112.53 191.849 108.517 202.115 101.257 201.449C91.4759 200.552 96.4333 190.101 86.5894 189.629C79.249 189.276 76.4783 196.191 69.3712 194.882C61.6966 193.469 71.314 181.797 63.6009 180.486C59.1894 179.737 56.0785 180.486 53.5708 180.486C51.0632 180.486 60.5918 164.697 60.5918 164.697Z" fill="#CDECFE"/>
<path d="M60.5918 164.697L56.0783 151.539L247.15 151.539L243.138 166.89M60.5918 164.697C60.5918 164.697 51.0632 180.486 53.5708 180.486C56.0785 180.486 59.1894 179.737 63.6009 180.486C71.314 181.797 61.6966 193.469 69.3712 194.882C76.4783 196.191 79.249 189.276 86.5894 189.629C96.4333 190.101 91.4759 200.552 101.257 201.449C108.517 202.115 112.53 191.849 119.75 192.693C127.266 193.572 128.073 201.304 135.693 201.449C141.484 201.56 144.58 192.947 150.361 192.693C157.053 192.399 159.13 202.479 165.666 201.449C172.019 200.448 175.363 193.973 181.608 192.693C190.696 190.831 188.239 202.679 197.551 201.449C204.66 200.511 206.447 193.831 213.494 192.693C221.087 191.468 224.601 199.951 231.604 197.592C241.999 194.089 230.539 188.529 235.616 184.872C239.624 181.986 247.15 183.995 247.15 182.679C247.15 181.364 243.138 166.89 243.138 166.89M60.5918 164.697L243.138 166.89" stroke="#CDECFE" stroke-width="5"/>
<path d="M60.5918 164.697L56.0783 151.539L247.15 151.539L243.138 166.89M60.5918 164.697C60.5918 164.697 51.0632 180.486 53.5708 180.486C56.0785 180.486 59.1894 179.737 63.6009 180.486C71.314 181.797 61.6966 193.469 69.3712 194.882C76.4783 196.191 79.249 189.276 86.5894 189.629C96.4333 190.101 91.4759 200.552 101.257 201.449C108.517 202.115 112.53 191.849 119.75 192.693C127.266 193.572 128.073 201.304 135.693 201.449C141.484 201.56 144.58 192.947 150.361 192.693C157.053 192.399 159.13 202.479 165.666 201.449C172.019 200.448 175.363 193.973 181.608 192.693C190.696 190.831 188.239 202.679 197.551 201.449C204.66 200.511 206.447 193.831 213.494 192.693C221.087 191.468 224.601 199.951 231.604 197.592C241.999 194.089 230.539 188.529 235.616 184.872C239.624 181.986 247.15 183.995 247.15 182.679C247.15 181.364 243.138 166.89 243.138 166.89M60.5918 164.697L243.138 166.89" stroke="black" stroke-opacity="0.2" stroke-width="5"/>
<path d="M132.132 185.761L148.828 168.495L155.018 167.441L170.131 178.371C174.14 183.971 175.76 187.274 175.662 193.951L157.366 203.041C155.85 189.369 154.482 182.346 151.995 169.876C152.361 183.276 153.008 191.058 145.26 199.521L132.132 185.761Z" fill="#E799B5"/>
<path d="M132.132 185.761L148.828 168.495L155.018 167.441L170.131 178.371C174.14 183.971 175.76 187.274 175.662 193.951L157.366 203.041C155.85 189.369 154.482 182.346 151.995 169.876C152.361 183.276 153.008 191.058 145.26 199.521L132.132 185.761Z" stroke="#E799B5" stroke-width="3"/>
<path d="M132.132 185.761L148.828 168.495L155.018 167.441L170.131 178.371C174.14 183.971 175.76 187.274 175.662 193.951L157.366 203.041C155.85 189.369 154.482 182.346 151.995 169.876C152.361 183.276 153.008 191.058 145.26 199.521L132.132 185.761Z" stroke="black" stroke-opacity="0.2" stroke-width="3"/>
<path d="M124.362 150.349C132.975 150.299 141.67 150.249 147.603 159.886C152.263 157.433 154.552 157.259 158.091 158.685C165.759 151.273 169.786 146.533 181.151 147.145C185.149 153.097 184.442 156.673 180.132 162.901C183.274 169.146 184.121 172.472 182.952 177.892C173.055 179.801 167.259 178.343 159.509 169.909C155.194 171.735 151.533 171.203 148.981 170.598L148.969 170.615C144.07 177.726 140.791 182.485 128.652 181.445C128.035 179.428 125.166 178.329 127.494 166.346C122.122 158.288 121.289 154.406 124.319 150.349L124.362 150.349Z" fill="#E799B5"/>
<path d="M147.603 159.886C141.661 150.233 132.946 150.299 124.319 150.349C121.289 154.406 122.122 158.288 127.494 166.346C125.166 178.329 128.035 179.428 128.652 181.445C140.8 182.486 144.075 177.718 148.981 170.598M147.603 159.886C145.29 162.778 146.331 168.714 148.981 170.598M147.603 159.886C152.263 157.433 154.552 157.259 158.091 158.685M148.981 170.598C151.533 171.203 155.194 171.735 159.509 169.909M158.091 158.685C165.759 151.273 169.786 146.533 181.151 147.145C185.149 153.097 184.442 156.673 180.132 162.901C183.274 169.146 184.121 172.472 182.952 177.892C173.055 179.801 167.259 178.343 159.509 169.909M158.091 158.685C163.313 161.43 161.865 167.955 159.509 169.909" stroke="#ED3E48" stroke-width="3"/>
<path d="M147.603 159.886C141.661 150.233 132.946 150.299 124.319 150.349C121.289 154.406 122.122 158.288 127.494 166.346C125.166 178.329 128.035 179.428 128.652 181.445C140.8 182.486 144.075 177.718 148.981 170.598M147.603 159.886C145.29 162.778 146.331 168.714 148.981 170.598M147.603 159.886C152.263 157.433 154.552 157.259 158.091 158.685M148.981 170.598C151.533 171.203 155.194 171.735 159.509 169.909M158.091 158.685C165.759 151.273 169.786 146.533 181.151 147.145C185.149 153.097 184.442 156.673 180.132 162.901C183.274 169.146 184.121 172.472 182.952 177.892C173.055 179.801 167.259 178.343 159.509 169.909M158.091 158.685C163.313 161.43 161.865 167.955 159.509 169.909" stroke="#E799B5" stroke-width="3"/>
<path d="M147.603 159.886C141.661 150.233 132.946 150.299 124.319 150.349C121.289 154.406 122.122 158.288 127.494 166.346C125.166 178.329 128.035 179.428 128.652 181.445C140.8 182.486 144.075 177.718 148.981 170.598M147.603 159.886C145.29 162.778 146.331 168.714 148.981 170.598M147.603 159.886C152.263 157.433 154.552 157.259 158.091 158.685M148.981 170.598C151.533 171.203 155.194 171.735 159.509 169.909M158.091 158.685C165.759 151.273 169.786 146.533 181.151 147.145C185.149 153.097 184.442 156.673 180.132 162.901C183.274 169.146 184.121 172.472 182.952 177.892C173.055 179.801 167.259 178.343 159.509 169.909M158.091 158.685C163.313 161.43 161.865 167.955 159.509 169.909" stroke="black" stroke-opacity="0.2" stroke-width="3"/>
<path d="M139.94 161.268L147.27 162.156L146.953 163.429C144.045 162.877 142.568 162.3 139.94 161.268Z" fill="#B97A91"/>
<path d="M167.348 158.849C164.906 160.421 163.522 161.267 160.891 162.487L160.351 161.503L167.348 158.849Z" fill="#B97A91"/>
<path d="M136.696 165.246L145.629 164.001L145.729 165.369L136.696 165.246Z" fill="#B97A91"/>
<path d="M170.087 163.09L162.309 164.408L162.181 163.213C165.259 162.978 166.996 163.03 170.087 163.09Z" fill="#B97A91"/>
<path d="M143.384 168.822L145.788 166.559L146.346 167.219L143.384 168.822Z" fill="#B97A91"/>
<path d="M164.689 167.016L161.285 166.609L161.519 165.8L164.689 167.016Z" fill="#B97A91"/>
<path d="M157.14 161.899C154.693 160.292 153.295 159.538 150.686 158.91L152.423 158.011C154.668 159.102 155.605 160.052 157.14 161.899Z" fill="#B97A91"/>
<path d="M149.907 166.642C151.949 168.349 153.069 169.332 155.744 170.409L153.825 170.792C152.589 170.535 151.581 168.934 149.907 166.642Z" fill="#B97A91"/>
</svg>
