<svg width="243" height="377" viewBox="0 0 243 377" fill="none" xmlns="http://www.w3.org/2000/svg">
<path d="M184.697 292.045C185.212 288.702 190.041 288.615 190.557 291.958L190.825 293.698C191.131 295.679 193.455 296.598 195.033 295.363V295.363C197.019 293.808 199.84 295.68 199.18 298.114L199.001 298.775C198.509 300.587 199.874 302.37 201.751 302.37H202.571C205.175 302.37 206.273 305.689 204.201 307.266V307.266C202.745 308.374 202.784 310.586 204.287 311.631L204.596 311.846C206.372 313.08 205.874 315.831 203.778 316.365V316.365C202.041 316.807 201.306 318.869 202.371 320.311L203.487 321.822C205.214 324.16 202.576 327.218 200.01 325.855V325.855C198.001 324.787 195.645 326.5 196.04 328.74L196.158 329.413C196.779 332.934 191.893 334.486 190.369 331.251L190.236 330.967C189.153 328.669 185.921 328.571 184.701 330.799L183.274 333.407C181.508 336.633 176.6 334.531 177.716 331.028L177.984 330.186C178.746 327.791 176.122 325.739 173.982 327.056V327.056C171.385 328.655 168.536 325.41 170.458 323.042L171.349 321.945C172.892 320.044 171.581 317.2 169.135 317.137V317.137C165.821 317.051 165.174 312.4 168.325 311.373V311.373C170.654 310.614 171.09 307.496 169.072 306.107V306.107C166.352 304.233 168.249 299.943 171.438 300.804V300.804C173.799 301.441 175.839 299.034 174.891 296.78V296.78C173.623 293.764 177.478 291.14 179.666 293.572V293.572C181.303 295.392 184.324 294.465 184.697 292.045V292.045Z" fill="#E7DBD6"/>
<path d="M80.5994 130H53.3549H46.8533C46.8533 130 21.2069 50.7276 45.3625 13C48.9219 7.44071 52.1955 4.52374 57.07 1.82108C61.643 -0.714361 65.7454 -0.497269 70.3625 1.82108C75.5568 4.42923 79.0049 8.81923 82.8625 15C102.579 46.5906 80.5994 130 80.5994 130Z" fill="#D6CBC6"/>
<path d="M71.3296 128H59.1832H56.2846C56.2846 128 44.8506 68.2408 55.6199 39.8C57.2068 35.6091 58.6663 33.4102 60.8395 31.3728C62.8783 29.4615 64.7073 29.6251 66.7657 31.3728C69.0815 33.339 70.6188 36.6483 72.3386 41.3077C81.129 65.1221 71.3296 128 71.3296 128Z" fill="#F0BBDD"/>
<path d="M151.059 140.107L130.112 122.685L125.114 118.528C125.114 118.528 156.087 41.1811 198.783 27.6211C205.075 25.623 209.457 25.4736 214.933 26.5127C220.07 27.4876 223.085 30.2778 225.152 35.0126C227.478 40.3393 227.322 45.9194 226.336 53.1381C221.294 90.034 151.059 140.107 151.059 140.107Z" fill="#D6CBC6"/>
<path d="M145.21 132.641L135.872 124.874L133.643 123.021C133.643 123.021 163.065 69.7645 189.531 54.7847C193.431 52.5773 195.96 51.82 198.933 51.6432C201.723 51.4774 203.024 52.7728 203.489 55.4327C204.013 58.4252 203.078 61.9526 201.421 66.6346C192.952 90.5649 145.21 132.641 145.21 132.641Z" fill="#F0BBDD"/>
<path d="M35 321C35 384.5 190.153 382 176.977 312.169C176.977 309.325 173.08 294.87 172.293 291.483C171.506 288.095 160.486 253.867 159.025 250.854C159.025 250.854 56.1008 247.528 54.9408 250.854C53.5639 254.803 38.847 295.192 37.4096 299.846C35.9722 304.5 35 312.685 35 321Z" fill="#D6CBC6"/>
<path d="M93.9132 352.197C88.817 352.759 80.6517 353.826 80.6517 353.826C80.6517 353.826 70.9522 352.208 66.7142 347.874C63.7814 344.875 62.4817 343.321 60.4947 339.913C58.3707 336.269 57.4592 334.094 56.1772 329.905C54.8951 325.717 54.8129 323.461 54.6588 319.232C54.5046 315.002 55.4167 309.039 55.4167 309.039C55.4167 309.039 56.44 303.887 57.6565 300.77C59.6787 295.588 61.517 292.877 65.1201 288.639C68.3646 284.824 70.5132 282.865 74.6911 280.102C79.7265 276.773 83.0459 275.539 88.8662 273.939C95.8913 272.007 100.163 271.68 107.435 272.133C113.304 272.498 117.422 272.888 122.976 274.821C128.529 276.754 131.966 277.785 136.802 281.029C140.822 283.725 143.682 285.93 146.959 289.493C150.707 293.569 151.985 296.756 154.013 301.908C155.732 306.274 156.154 310.495 156.553 315.17C157.004 320.458 156.398 322.75 155.424 327.021C154.45 331.291 153.422 333.138 151.049 337.742C148.676 342.346 148.012 343.121 145.415 345.853C143.031 348.361 140.991 349.752 137.997 351.488C135.073 353.184 129.923 354.606 129.923 354.606C129.923 354.606 123.46 353.344 118.461 352.697C113.462 352.05 111.015 351.711 106.328 351.488C101.485 351.258 98.7324 351.665 93.9132 352.197Z" fill="#E6E7E9"/>
<path d="M15.9308 208.035C15.7405 207.019 2.73562 206.342 3.41223 201.599C4.08884 196.855 15.9308 195.162 20.6677 181.271C34.3514 141.145 57.9073 106.399 105.409 106.399C152.911 106.399 176.467 141.145 190.151 181.271C194.888 195.162 206.73 196.855 207.406 201.599C208.083 206.342 195.078 207.019 194.888 208.035C194.697 209.052 204.699 214.472 204.699 217.86C204.699 221.248 191.843 225.652 183.046 233.106C161.61 251.267 133.84 261.903 105.409 261.903C76.9786 261.903 49.208 251.267 27.7728 233.106C18.9759 225.652 6.11895 221.248 6.11895 217.86C6.11895 214.472 16.1212 209.052 15.9308 208.035Z" fill="#D6CBC6"/>
<path d="M64.4788 199.25C58.3858 199.25 28.0085 201.666 22.843 218.896C15.3285 243.963 87.2603 261.621 105.474 261.621C123.709 261.621 194.464 246.334 187.799 218.896C183.553 201.416 152.256 199.25 146.163 199.25C140.07 199.25 139.36 210.93 133.977 208.396C123.637 203.527 119.993 200.266 106.792 200.266C93.5902 200.266 86.9718 203.542 76.6649 208.396C71.2824 210.93 70.5719 199.25 64.4788 199.25Z" fill="#FEFFFB"/>
<path d="M74.7895 159.268C74.7895 162.868 65.943 159.268 62.5681 159.268C59.1933 159.268 51.3652 158.751 51.3652 155.151C51.3652 151.551 53.0626 147.604 62.5681 147.604C72.0736 147.604 74.7895 155.668 74.7895 159.268Z" fill="#FEFFFB"/>
<path d="M135.75 159.268C135.75 162.868 144.596 159.268 147.971 159.268C151.346 159.268 159.174 158.751 159.174 155.151C159.174 151.551 157.476 147.604 147.971 147.604C138.465 147.604 135.75 155.668 135.75 159.268Z" fill="#FEFFFB"/>
<path d="M105.9 227.699V237.899M105.9 237.899C105.9 237.899 102.761 240.955 100.2 241.199C97.1209 241.493 93 237.899 93 237.899M105.9 237.899C105.9 237.899 109.033 241.042 111.6 241.199C114.476 241.375 118.2 237.899 118.2 237.899" stroke="black" stroke-width="5" stroke-linecap="round"/>
<path d="M105.667 228.601C104.319 228.601 95.2216 225.256 94.2866 220.071C93.3516 214.887 118.656 214.887 117.047 220.071C115.439 225.256 107.015 228.601 105.667 228.601Z" fill="#EE62BD"/>
<path d="M108.937 219.569C108.937 220.193 107.421 220.698 105.551 220.698C103.68 220.698 102.164 220.193 102.164 219.569C102.164 218.946 103.68 218.44 105.551 218.44C107.421 218.44 108.937 218.946 108.937 219.569Z" fill="white" fill-opacity="0.5"/>
<ellipse cx="14.7909" cy="19.8657" rx="14.7909" ry="19.8657" transform="matrix(-0.998648 0.0519817 0.0519817 0.998648 161.562 165.203)" fill="black"/>
<circle cx="4.15993" cy="4.15993" r="4.15993" transform="matrix(-0.923252 0.384195 0.384195 0.923252 145.953 172.165)" fill="white"/>
<ellipse cx="14.7909" cy="19.8657" rx="14.7909" ry="19.8657" transform="matrix(-0.998648 0.0519817 0.0519817 0.998648 79.5625 165.203)" fill="black"/>
<circle cx="4.15993" cy="4.15993" r="4.15993" transform="matrix(-0.923252 0.384195 0.384195 0.923252 63.9531 172.165)" fill="white"/>
<path d="M81.1575 227.625C68.7773 221.196 62.4025 220.587 51.7313 223.314" stroke="black" stroke-opacity="0.6" stroke-linecap="round"/>
<path d="M82.7461 235.45C69.848 230.135 63.4444 230.089 53.0547 233.746" stroke="black" stroke-opacity="0.6" stroke-linecap="round"/>
<path d="M130.891 227.336C143.272 220.907 149.646 220.298 160.317 223.025" stroke="black" stroke-opacity="0.6" stroke-linecap="round"/>
<path d="M129.303 235.161C142.201 229.846 148.604 229.8 158.994 233.456" stroke="black" stroke-opacity="0.6" stroke-linecap="round"/>
<ellipse cx="58.272" cy="213.261" rx="13.2714" ry="5.96159" fill="#FAE3ED" fill-opacity="0.8"/>
<ellipse cx="158.23" cy="213.484" rx="13.2714" ry="5.96159" transform="rotate(-2.27638 158.23 213.484)" fill="#FAE3ED" fill-opacity="0.8"/>
<path d="M119.799 370.849C121.411 370.478 124.25 368.215 124.25 368.215C124.25 368.215 126.488 370.009 127.757 370.643C129.376 371.453 129.915 371.722 131.727 371.997C134.157 372.366 134.704 372.081 136.66 371.722C138.513 371.382 139.282 370.436 140.785 369.381C141.908 368.593 142.819 367.1 142.819 367.1C142.819 367.1 145.85 368.443 147.987 368.536C150.167 368.631 151.536 368.414 153.523 367.52C155.389 366.68 156.374 365.909 157.581 364.39C159.033 362.565 159.403 361.127 159.856 358.966C160.399 356.372 160.392 354.833 159.725 352.313C159.004 349.595 158.276 347.855 155.861 346.107C154.459 345.093 153.46 344.706 151.704 344.247C149.169 343.585 144.859 344.073 144.859 344.073L140.378 344.895C140.378 344.895 138.016 343.122 135.915 342.853C134.073 342.617 131.001 342.801 131.001 342.801C129.045 343.16 128.365 343.285 126.604 344.085C124.843 344.885 122.988 346.657 122.988 346.657L121.388 349.812L115.861 349.395C114.008 349.736 112.698 349.976 111.201 350.728C109.704 351.479 107.809 352.888 106.827 355.107C105.912 357.177 105.803 358.812 105.998 360.982C106.281 364.135 106.81 366.016 109.24 368.256C110.989 369.867 112.449 370.467 114.927 371.028C116.79 371.449 117.894 371.287 119.799 370.849Z" fill="#D6CBC6" stroke="#D6CBC6" stroke-width="5"/>
<path d="M62.1999 366.597C63.8519 366.506 67.3257 364.169 67.3257 364.169C67.3257 364.169 67.8653 365.787 68.6746 367.024C69.5547 368.369 70.2933 369.295 71.912 369.834C74.2716 370.621 75.1061 370.533 77.084 370.326C79.1961 370.104 79.6939 369.808 81.3544 369.025C82.5954 368.44 84.322 366.327 84.322 366.327C84.322 366.327 84.7643 367.112 85.7389 367.946C86.6851 368.755 87.8788 369.609 88.9082 369.834C89.9718 370.067 91.5993 370.222 92.955 370.104C94.3158 369.985 95.6747 369.836 96.7319 369.564C98.714 369.055 99.501 368.057 100.779 366.597C102.667 364.439 102.713 363.754 103.476 361.471C104.314 358.967 104.412 357.296 104.184 354.699C103.938 351.898 103.516 350.059 101.435 347.925C100.226 346.686 99.3078 346.135 97.6562 345.384C95.2712 344.299 90.9416 344.044 90.9416 344.044L86.3854 344.091C86.3854 344.091 84.3607 341.941 82.3366 341.317C80.5609 340.77 77.5029 340.428 77.5029 340.428C75.5142 340.448 74.8228 340.455 72.9515 340.943C71.0801 341.432 70.2574 341.723 68.9503 342.86C67.908 343.767 66.8348 345.696 66.8348 345.696C66.8348 345.696 63.5443 344.186 61.6603 344.205C59.7763 344.224 58.6773 344.259 57.074 344.744C55.4707 345.23 54.3731 345.962 53.0273 347.982C51.7725 349.865 51.1388 351.9 51.1388 354.079C51.1388 357.154 51.3551 359.07 52.7575 361.799C53.2836 362.823 53.8148 363.564 54.3762 364.169C54.9664 364.804 55.602 365.288 56.8043 365.787C58.5686 366.521 60.248 366.703 62.1999 366.597Z" fill="#D6CBC6" stroke="#D6CBC6" stroke-width="5"/>
<path d="M55.5001 304C55.4775 297.793 60.4432 293.159 61.873 289C61.873 289 90.4965 308.58 88.0001 312C85.8603 314.931 55.5001 304 55.5001 304Z" fill="#D6CBC6"/>
<path d="M156 303.5C156.023 297.152 151.475 292.753 150 288.5C150 288.5 119.925 309.003 122.5 312.5C124.707 315.498 156 303.5 156 303.5Z" fill="#D6CBC6"/>
</svg>
