<svg width="300" height="300" viewBox="0 0 300 300" fill="none" xmlns="http://www.w3.org/2000/svg">
<path d="M243 164.267C243 232.206 194.867 263 152.363 263C109.86 263 59 232.206 59 164.267C59 96.3279 109.86 37 152.363 37C194.867 37 243 96.3279 243 164.267Z" fill="#B8E3E5"/>
<path d="M82.0414 89.8324C94.1763 99.0896 119.369 113.657 154.311 113.664C189.252 113.671 207.498 96.5616 219 87.4999" stroke="#9ED242" stroke-width="16"/>
<path d="M68.0004 203.5C87.9549 196.614 106.631 233.71 152.553 233.73C198.475 233.749 218.501 195.613 235 200.5" stroke="#9ED242" stroke-width="16"/>
<path d="M63.5 153C70.5 154 65 180.495 85 178.498C105 176.5 88.5 140 116.5 140.283C144.5 140.566 122.256 178.498 147.5 178.498C174.5 178.498 155.5 140 184.5 140C211.5 140 194.5 179.133 218.5 178.498C234.532 178.073 229 146.499 241.5 145" stroke="#8EB3C3" stroke-width="9"/>
<ellipse cx="82" cy="140.5" rx="11" ry="10.5" fill="#DB4F94"/>
<ellipse cx="113" cy="175.5" rx="11" ry="10.5" fill="#DB4F94"/>
<ellipse cx="151" cy="140.5" rx="11" ry="10.5" fill="#DB4F94"/>
<ellipse cx="185" cy="175.5" rx="11" ry="10.5" fill="#DB4F94"/>
<ellipse cx="220" cy="139.5" rx="11" ry="10.5" fill="#DB4F94"/>
<path d="M241.5 145C229 146.499 234.532 178.073 218.5 178.498C194.5 179.133 211.5 140 184.5 140C155.5 140 174.5 178.498 147.5 178.498C122.256 178.498 144.5 140.566 116.5 140.283" stroke="#8EB3C3" stroke-width="9"/>
<ellipse cx="113" cy="175.5" rx="11" ry="10.5" fill="#DB4F94"/>
<ellipse cx="151" cy="140.5" rx="11" ry="10.5" fill="#DB4F94"/>
<ellipse cx="185" cy="175.5" rx="11" ry="10.5" fill="#DB4F94"/>
<ellipse cx="220" cy="139.5" rx="11" ry="10.5" fill="#DB4F94"/>
<path d="M240.5 164.267C240.5 197.601 228.714 221.603 211.915 237.283C195.071 253.005 173.038 260.5 152.363 260.5C131.678 260.5 108.946 252.997 91.4132 237.251C73.9344 221.553 61.5 197.556 61.5 164.267C61.5 130.906 73.9961 99.6173 91.7208 76.6852C109.514 53.6641 132.207 39.5 152.363 39.5C172.497 39.5 194.502 53.6383 211.614 76.6482C228.662 99.5705 240.5 130.87 240.5 164.267Z" stroke="#B8E3E5" stroke-width="5"/>
<path d="M240.5 164.267C240.5 197.601 228.714 221.603 211.915 237.283C195.071 253.005 173.038 260.5 152.363 260.5C131.678 260.5 108.946 252.997 91.4132 237.251C73.9344 221.553 61.5 197.556 61.5 164.267C61.5 130.906 73.9961 99.6173 91.7208 76.6852C109.514 53.6641 132.207 39.5 152.363 39.5C172.497 39.5 194.502 53.6383 211.614 76.6482C228.662 99.5705 240.5 130.87 240.5 164.267Z" stroke="black" stroke-opacity="0.2" stroke-width="5"/>
</svg>
