<svg width="300" height="300" viewBox="0 0 300 300" fill="none" xmlns="http://www.w3.org/2000/svg">
<path d="M243 165.705C243 233.644 194.867 264.438 152.363 264.438C109.86 264.438 59 233.644 59 165.705C59 97.7663 109.86 38.4385 152.363 38.4385C194.867 38.4385 243 97.7663 243 165.705Z" fill="#F2AB0B"/>
<path d="M243 165.705C243 233.644 194.867 264.438 152.363 264.438C109.86 264.438 59 233.644 59 165.705C59 97.7663 109.86 38.4385 152.363 38.4385C194.867 38.4385 243 97.7663 243 165.705Z" fill="#F6EB6D"/>
<path d="M138.5 89.9385C148.727 112.438 134.5 123.938 108.5 117.438C95.5213 117.438 83.5 112.227 83.5 98.9727C83.5 85.7178 91.0213 67.9727 104 67.9727C116.979 67.9727 133.5 78.9385 138.5 89.9385Z" fill="#F3B615"/>
<path d="M182.697 152.438C182.697 163.208 182.638 177.938 172.697 177.938C162.756 177.938 134.196 165.961 139.697 152.438C139.697 141.669 154.756 125.438 164.697 125.438C174.638 125.438 182.697 141.669 182.697 152.438Z" fill="#F3B615"/>
<path d="M107.162 159.754C111.605 177.425 97.4998 187.438 85.581 187.438C77.9642 182.137 64 178.472 64 167.411C64 156.35 76.8358 144.438 88.7547 144.438C100.674 144.438 107.162 148.693 107.162 159.754Z" fill="#F3B615"/>
<path d="M150.5 225.047C147 241.547 138.203 254.547 125.5 254.547C112.798 254.547 93.0005 237.749 93.0005 225.047C85.5 202.047 114.798 202.047 127.5 202.047C140.203 202.047 152.5 195.547 150.5 225.047Z" fill="#F3B615"/>
<path d="M213.5 216.438C208.5 237.438 205.389 230.438 196 230.438C186.611 230.438 178 233.947 178 225.938C178 217.93 187.611 195.438 197 195.438C206.389 195.438 218.5 209.438 213.5 216.438Z" fill="#F3B615"/>
<path d="M242.057 150.629C243.008 165.511 241.871 169.111 228.918 169.938C211.918 162.938 206.869 168.819 205.919 153.938C204.968 139.056 211.999 133.938 223.5 128.438C236.453 127.611 241.107 135.748 242.057 150.629Z" fill="#F3B615"/>
<path d="M243 165.705C243 233.644 194.867 264.438 152.363 264.438C109.86 264.438 59 233.644 59 165.705C59 97.7663 109.86 38.4385 152.363 38.4385C194.867 38.4385 243 97.7663 243 165.705Z" fill="#F2AB0B"/>
<path d="M243 165.705C243 233.644 194.867 264.438 152.363 264.438C109.86 264.438 59 233.644 59 165.705C59 97.7663 109.86 38.4385 152.363 38.4385C194.867 38.4385 243 97.7663 243 165.705Z" fill="#F6EB6D"/>
<path d="M141 91.4043C151.227 113.904 137 125.404 111 118.904C98.0213 118.904 86 113.693 86 100.438C86 87.1836 93.5213 69.4385 106.5 69.4385C119.479 69.4385 136 80.4043 141 91.4043Z" fill="#F3B000"/>
<path d="M182.697 152.438C182.697 163.208 182.638 177.938 172.697 177.938C162.756 177.938 134.196 165.961 139.697 152.438C139.697 141.669 154.756 125.438 164.697 125.438C174.638 125.438 182.697 141.669 182.697 152.438Z" fill="#F3B000"/>
<path d="M107.162 159.754C111.605 177.425 97.4998 187.438 85.581 187.438C77.9642 182.137 64 178.472 64 167.411C64 156.35 76.8358 144.438 88.7547 144.438C100.674 144.438 107.162 148.693 107.162 159.754Z" fill="#F3B000"/>
<path d="M150.5 225.047C147 241.547 138.203 254.547 125.5 254.547C112.798 254.547 93.0005 237.749 93.0005 225.047C85.5 202.047 114.798 202.047 127.5 202.047C140.203 202.047 152.5 195.547 150.5 225.047Z" fill="#F3B000"/>
<path d="M207.999 80.6182C207.999 103.618 202.999 114.664 184.499 103.618C166.999 80.6182 155.001 92.4348 155 77.6636C160.499 59.6636 167.02 51.4385 179.999 51.4385C192.978 51.4385 207.999 67.9156 207.999 80.6182Z" fill="#F3B000"/>
<path d="M194.5 208.438C189.5 229.438 186.389 222.438 177 222.438C167.611 222.438 159 225.947 159 217.938C159 209.93 168.611 187.438 178 187.438C187.389 187.438 199.5 201.438 194.5 208.438Z" fill="#F3B000"/>
<path fill-rule="evenodd" clip-rule="evenodd" d="M221.338 232.333C215.614 239.291 209.023 245.076 201.905 249.73C198.436 247.94 198.805 246.099 199.353 243.367C199.593 242.168 199.868 240.797 199.868 239.184C199.868 237.384 199.697 235.622 199.538 233.992C199.065 229.128 198.707 225.438 203.357 225.438C207.278 225.438 215.681 228.368 221.338 232.333Z" fill="#F3B000"/>
<path fill-rule="evenodd" clip-rule="evenodd" d="M114.492 52.6801C121.259 47.8228 128.504 44.1742 135.957 41.6262C139.093 44.2452 138.303 45.8287 137.106 48.2271C136.601 49.238 136.024 50.3936 135.639 51.8326C135.209 53.4374 134.943 55.0504 134.697 56.5426C133.964 60.9959 133.407 64.373 129.191 63.2431C125.623 62.2871 118.671 57.6074 114.492 52.6801Z" fill="#F3B000"/>
<path d="M240.689 150.719C241.64 165.601 240.502 169.2 227.55 170.028C210.55 163.028 205.501 168.909 204.551 154.028C203.6 139.146 210.631 134.028 222.132 128.528C235.084 127.701 239.739 135.838 240.689 150.719Z" fill="#F3B000"/>
<path d="M240.5 165.705C240.5 199.04 228.714 223.041 211.915 238.722C195.071 254.443 173.038 261.938 152.363 261.938C131.678 261.938 108.946 254.436 91.4132 238.689C73.9344 222.991 61.5 198.994 61.5 165.705C61.5 132.344 73.9961 101.056 91.7208 78.1236C109.514 55.1026 132.207 40.9385 152.363 40.9385C172.497 40.9385 194.502 55.0768 211.614 78.0867C228.662 101.009 240.5 132.309 240.5 165.705Z" stroke="#F6EB6D" stroke-width="5"/>
<path d="M240.5 165.705C240.5 199.04 228.714 223.041 211.915 238.722C195.071 254.443 173.038 261.938 152.363 261.938C131.678 261.938 108.946 254.436 91.4132 238.689C73.9344 222.991 61.5 198.994 61.5 165.705C61.5 132.344 73.9961 101.056 91.7208 78.1236C109.514 55.1026 132.207 40.9385 152.363 40.9385C172.497 40.9385 194.502 55.0768 211.614 78.0867C228.662 101.009 240.5 132.309 240.5 165.705Z" stroke="black" stroke-opacity="0.2" stroke-width="5"/>
</svg>
