<svg width="300" height="300" viewBox="0 0 300 300" fill="none" xmlns="http://www.w3.org/2000/svg">
<path d="M241 164.888C241 231.024 193.39 261 151.348 261C109.307 261 59 231.024 59 164.888C59 98.7528 109.307 41 151.348 41C193.39 41 241 98.7528 241 164.888Z" fill="#F4EB72"/>
<mask id="mask0_652_360" style="mask-type:alpha" maskUnits="userSpaceOnUse" x="59" y="41" width="182" height="220">
<path d="M241 164.888C241 231.024 193.39 261 151.348 261C109.307 261 59 231.024 59 164.888C59 98.7528 109.307 41 151.348 41C193.39 41 241 98.7528 241 164.888Z" fill="#F6EB6D"/>
</mask>
<g mask="url(#mask0_652_360)">
<path d="M132.986 110.458C133.948 116.186 131.708 112.416 129.616 112.049C127.524 111.683 126.158 109.593 127.046 107.816C127.933 106.039 129.218 105.988 130.625 106.51C132.033 107.033 132.66 108.52 132.986 110.458Z" fill="#A9C53E"/>
<path d="M132.986 110.458C133.948 116.186 131.708 112.416 129.616 112.049C127.524 111.683 126.158 109.593 127.046 107.816C127.933 106.039 129.218 105.988 130.625 106.51C132.033 107.033 132.66 108.52 132.986 110.458Z" fill="black" fill-opacity="0.2"/>
<path d="M120.159 125.921C125.817 127.631 121.377 127.915 120.109 129.587C118.841 131.259 116.324 131.525 115.097 129.954C113.871 128.383 114.397 127.232 115.502 126.231C116.607 125.229 118.244 125.342 120.159 125.921Z" fill="#A9C53E"/>
<path d="M120.159 125.921C125.817 127.631 121.377 127.915 120.109 129.587C118.841 131.259 116.324 131.525 115.097 129.954C113.871 128.383 114.397 127.232 115.502 126.231C116.607 125.229 118.244 125.342 120.159 125.921Z" fill="black" fill-opacity="0.2"/>
<path d="M160.806 126.959C155.635 127.406 159.145 125.735 159.61 123.966C160.075 122.197 162.028 121.165 163.555 122.043C165.081 122.921 165.041 124.026 164.482 125.197C163.923 126.369 162.556 126.808 160.806 126.959Z" fill="#A9C53E"/>
<path d="M160.806 126.959C155.635 127.406 159.145 125.735 159.61 123.966C160.075 122.197 162.028 121.165 163.555 122.043C165.081 122.921 165.041 124.026 164.482 125.197C163.923 126.369 162.556 126.808 160.806 126.959Z" fill="black" fill-opacity="0.2"/>
<path d="M137.887 151.598C142.196 146.617 141.699 151.147 141.565 153.129C141.432 155.11 140.962 155.929 139.583 156.619C138.205 157.309 136.471 156.297 136.253 154.854C136.035 153.411 136.429 153.283 137.887 151.598Z" fill="#A9C53E"/>
<path d="M137.887 151.598C142.196 146.617 141.699 151.147 141.565 153.129C141.432 155.11 140.962 155.929 139.583 156.619C138.205 157.309 136.471 156.297 136.253 154.854C136.035 153.411 136.429 153.283 137.887 151.598Z" fill="black" fill-opacity="0.2"/>
<path d="M136.789 109.771C137.143 105.658 143.051 105.424 143.727 109.497L144.731 115.546C145.137 117.986 147.86 119.253 149.976 117.986L152.338 116.571C155.622 114.604 159.219 118.595 156.942 121.679L155.188 124.055C153.597 126.211 154.903 129.29 157.555 129.631L161.54 130.144C165.533 130.657 165.646 136.421 161.676 137.092L153.841 138.415C151.611 138.792 150.318 141.159 151.199 143.249L151.534 144.044C152.957 147.417 148.93 150.45 146.101 148.136L143.149 145.722C141.764 144.589 139.751 144.685 138.48 145.946L132.708 151.667C129.808 154.543 125.183 150.961 127.217 147.415L129.07 144.185C130.383 141.897 128.805 139.027 126.177 138.922L123.325 138.808C119.576 138.659 118.659 133.493 122.127 132.052L124.955 130.878C127.259 129.921 127.855 126.921 126.093 125.15L124.877 123.928C122.263 121.301 124.969 116.929 128.473 118.118L131.632 119.189C133.781 119.918 136.043 118.433 136.238 116.164L136.789 109.771Z" fill="#A9C53E"/>
<path d="M136.789 109.771C137.143 105.658 143.051 105.424 143.727 109.497L144.731 115.546C145.137 117.986 147.86 119.253 149.976 117.986L152.338 116.571C155.622 114.604 159.219 118.595 156.942 121.679L155.188 124.055C153.597 126.211 154.903 129.29 157.555 129.631L161.54 130.144C165.533 130.657 165.646 136.421 161.676 137.092L153.841 138.415C151.611 138.792 150.318 141.159 151.199 143.249L151.534 144.044C152.957 147.417 148.93 150.45 146.101 148.136L143.149 145.722C141.764 144.589 139.751 144.685 138.48 145.946L132.708 151.667C129.808 154.543 125.183 150.961 127.217 147.415L129.07 144.185C130.383 141.897 128.805 139.027 126.177 138.922L123.325 138.808C119.576 138.659 118.659 133.493 122.127 132.052L124.955 130.878C127.259 129.921 127.855 126.921 126.093 125.15L124.877 123.928C122.263 121.301 124.969 116.929 128.473 118.118L131.632 119.189C133.781 119.918 136.043 118.433 136.238 116.164L136.789 109.771Z" fill="black" fill-opacity="0.2"/>
<path d="M66.713 150.369C67.6757 156.097 65.4358 152.327 63.3436 151.961C61.2513 151.594 59.886 149.505 60.7732 147.727C61.6604 145.95 62.946 145.899 64.353 146.422C65.76 146.944 66.3874 148.431 66.713 150.369Z" fill="#3CD7EC"/>
<path d="M66.713 150.369C67.6757 156.097 65.4358 152.327 63.3436 151.961C61.2513 151.594 59.886 149.505 60.7732 147.727C61.6604 145.95 62.946 145.899 64.353 146.422C65.76 146.944 66.3874 148.431 66.713 150.369Z" fill="black" fill-opacity="0.2"/>
<path d="M53.8862 165.832C59.545 167.542 55.1041 167.826 53.8363 169.498C52.5684 171.17 50.0518 171.436 48.8249 169.865C47.598 168.294 48.125 167.143 49.2296 166.142C50.3343 165.14 51.972 165.253 53.8862 165.832Z" fill="#3CD7EC"/>
<path d="M53.8862 165.832C59.545 167.542 55.1041 167.826 53.8363 169.498C52.5684 171.17 50.0518 171.436 48.8249 169.865C47.598 168.294 48.125 167.143 49.2296 166.142C50.3343 165.14 51.972 165.253 53.8862 165.832Z" fill="black" fill-opacity="0.2"/>
<path d="M94.5338 166.871C89.3622 167.317 92.8721 165.647 93.3371 163.878C93.8021 162.109 95.7557 161.077 97.282 161.954C98.8084 162.832 98.7688 163.937 98.2099 165.109C97.651 166.28 96.2832 166.719 94.5338 166.871Z" fill="#3CD7EC"/>
<path d="M94.5338 166.871C89.3622 167.317 92.8721 165.647 93.3371 163.878C93.8021 162.109 95.7557 161.077 97.282 161.954C98.8084 162.832 98.7688 163.937 98.2099 165.109C97.651 166.28 96.2832 166.719 94.5338 166.871Z" fill="black" fill-opacity="0.2"/>
<path d="M71.6141 191.509C75.9237 186.528 75.4264 191.058 75.2929 193.04C75.1594 195.022 74.6894 195.841 73.3109 196.53C71.9324 197.22 70.1987 196.209 69.9806 194.765C69.7624 193.322 70.1564 193.194 71.6141 191.509Z" fill="#3CD7EC"/>
<path d="M71.6141 191.509C75.9237 186.528 75.4264 191.058 75.2929 193.04C75.1594 195.022 74.6894 195.841 73.3109 196.53C71.9324 197.22 70.1987 196.209 69.9806 194.765C69.7624 193.322 70.1564 193.194 71.6141 191.509Z" fill="black" fill-opacity="0.2"/>
<path d="M70.5165 149.683C70.871 145.569 76.7782 145.335 77.4545 149.408L78.459 155.457C78.8641 157.897 81.5873 159.164 83.7034 157.897L86.0656 156.482C89.3498 154.516 92.9466 158.506 90.6697 161.59L88.9158 163.966C87.3242 166.122 88.6309 169.201 91.2823 169.542L95.2679 170.055C99.2606 170.569 99.3731 176.333 95.4036 177.003L87.5681 178.327C85.339 178.703 84.0451 181.07 84.9262 183.16L85.2615 183.955C86.684 187.328 82.6577 190.361 79.8287 188.048L76.8764 185.633C75.4912 184.5 73.4784 184.597 72.2071 185.857L66.4358 191.578C63.5353 194.454 58.9101 190.872 60.9445 187.326L62.7974 184.096C64.1102 181.808 62.5326 178.939 59.9042 178.833L57.053 178.72C53.303 178.57 52.3867 173.404 55.8546 171.964L58.6824 170.789C60.9868 169.832 61.5829 166.832 59.8205 165.061L58.6049 163.839C55.9905 161.212 58.6962 156.84 62.2008 158.029L65.3592 159.1C67.5086 159.829 69.7702 158.344 69.9657 156.075L70.5165 149.683Z" fill="#3CD7EC"/>
<path d="M70.5165 149.683C70.871 145.569 76.7782 145.335 77.4545 149.408L78.459 155.457C78.8641 157.897 81.5873 159.164 83.7034 157.897L86.0656 156.482C89.3498 154.516 92.9466 158.506 90.6697 161.59L88.9158 163.966C87.3242 166.122 88.6309 169.201 91.2823 169.542L95.2679 170.055C99.2606 170.569 99.3731 176.333 95.4036 177.003L87.5681 178.327C85.339 178.703 84.0451 181.07 84.9262 183.16L85.2615 183.955C86.684 187.328 82.6577 190.361 79.8287 188.048L76.8764 185.633C75.4912 184.5 73.4784 184.597 72.2071 185.857L66.4358 191.578C63.5353 194.454 58.9101 190.872 60.9445 187.326L62.7974 184.096C64.1102 181.808 62.5326 178.939 59.9042 178.833L57.053 178.72C53.303 178.57 52.3867 173.404 55.8546 171.964L58.6824 170.789C60.9868 169.832 61.5829 166.832 59.8205 165.061L58.6049 163.839C55.9905 161.212 58.6962 156.84 62.2008 158.029L65.3592 159.1C67.5086 159.829 69.7702 158.344 69.9657 156.075L70.5165 149.683Z" fill="black" fill-opacity="0.2"/>
<path d="M102.95 41.3506C104.253 49.7223 101.222 44.2123 98.3917 43.6767C95.561 43.1411 93.7138 40.0871 94.9141 37.4896C96.1144 34.892 97.8538 34.8176 99.7574 35.5813C101.661 36.345 102.51 38.5188 102.95 41.3506Z" fill="#F66DB7"/>
<path d="M102.95 41.3506C104.253 49.7223 101.222 44.2123 98.3917 43.6767C95.561 43.1411 93.7138 40.0871 94.9141 37.4896C96.1144 34.892 97.8538 34.8176 99.7574 35.5813C101.661 36.345 102.51 38.5188 102.95 41.3506Z" fill="black" fill-opacity="0.2"/>
<path d="M85.5964 63.9499C93.2524 66.4496 87.2441 66.8642 85.5289 69.3084C83.8136 71.7526 80.4087 72.1412 78.7488 69.8448C77.0889 67.5485 77.8018 65.8667 79.2964 64.403C80.7909 62.9393 83.0067 63.1043 85.5964 63.9499Z" fill="#F66DB7"/>
<path d="M85.5964 63.9499C93.2524 66.4496 87.2441 66.8642 85.5289 69.3084C83.8136 71.7526 80.4087 72.1412 78.7488 69.8448C77.0889 67.5485 77.8018 65.8667 79.2964 64.403C80.7909 62.9393 83.0067 63.1043 85.5964 63.9499Z" fill="black" fill-opacity="0.2"/>
<path d="M140.59 65.4681C133.593 66.1208 138.342 63.6792 138.971 61.0938C139.6 58.5084 142.243 57 144.308 58.2829C146.373 59.5658 146.32 61.1811 145.564 62.8931C144.808 64.6051 142.957 65.2473 140.59 65.4681Z" fill="#F66DB7"/>
<path d="M140.59 65.4681C133.593 66.1208 138.342 63.6792 138.971 61.0938C139.6 58.5084 142.243 57 144.308 58.2829C146.373 59.5658 146.32 61.1811 145.564 62.8931C144.808 64.6051 142.957 65.2473 140.59 65.4681Z" fill="black" fill-opacity="0.2"/>
<path d="M109.581 101.478C115.412 94.1988 114.739 100.82 114.558 103.716C114.378 106.612 113.742 107.809 111.877 108.817C110.012 109.826 107.666 108.347 107.371 106.237C107.076 104.128 107.609 103.941 109.581 101.478Z" fill="#F66DB7"/>
<path d="M109.581 101.478C115.412 94.1988 114.739 100.82 114.558 103.716C114.378 106.612 113.742 107.809 111.877 108.817C110.012 109.826 107.666 108.347 107.371 106.237C107.076 104.128 107.609 103.941 109.581 101.478Z" fill="black" fill-opacity="0.2"/>
<path d="M108.096 40.3473C108.576 34.3351 116.568 33.9931 117.483 39.9456L118.842 48.7875C119.39 52.3533 123.074 54.2045 125.937 52.3525L129.133 50.2852C133.577 47.4109 138.443 53.2433 135.362 57.7511L132.989 61.2233C130.836 64.3741 132.604 68.8737 136.191 69.3724L141.584 70.1221C146.985 70.873 147.138 79.2972 141.767 80.2772L131.166 82.2115C128.15 82.7618 126.4 86.2219 127.592 89.2758L128.045 90.4376C129.97 95.3677 124.523 99.8008 120.695 96.4191L116.701 92.89C114.827 91.2342 112.103 91.3753 110.384 93.2173L102.575 101.58C98.6511 105.783 92.3934 100.548 95.1459 95.3648L97.6527 90.6445C99.4289 87.3 97.2946 83.106 93.7384 82.9524L89.8809 82.7859C84.8075 82.5669 83.5676 75.0166 88.2595 72.9119L92.0854 71.1957C95.2031 69.7971 96.0096 65.4118 93.6252 62.8233L91.9805 61.0378C88.4434 57.198 92.104 50.8083 96.8456 52.5457L101.119 54.1115C104.027 55.1771 107.087 53.0063 107.351 49.6901L108.096 40.3473Z" fill="#F66DB7"/>
<path d="M108.096 40.3473C108.576 34.3351 116.568 33.9931 117.483 39.9456L118.842 48.7875C119.39 52.3533 123.074 54.2045 125.937 52.3525L129.133 50.2852C133.577 47.4109 138.443 53.2433 135.362 57.7511L132.989 61.2233C130.836 64.3741 132.604 68.8737 136.191 69.3724L141.584 70.1221C146.985 70.873 147.138 79.2972 141.767 80.2772L131.166 82.2115C128.15 82.7618 126.4 86.2219 127.592 89.2758L128.045 90.4376C129.97 95.3677 124.523 99.8008 120.695 96.4191L116.701 92.89C114.827 91.2342 112.103 91.3753 110.384 93.2173L102.575 101.58C98.6511 105.783 92.3934 100.548 95.1459 95.3648L97.6527 90.6445C99.4289 87.3 97.2946 83.106 93.7384 82.9524L89.8809 82.7859C84.8075 82.5669 83.5676 75.0166 88.2595 72.9119L92.0854 71.1957C95.2031 69.7971 96.0096 65.4118 93.6252 62.8233L91.9805 61.0378C88.4434 57.198 92.104 50.8083 96.8456 52.5457L101.119 54.1115C104.027 55.1771 107.087 53.0063 107.351 49.6901L108.096 40.3473Z" fill="black" fill-opacity="0.2"/>
<path d="M98.3654 235.059C99.328 240.788 97.0882 237.018 94.9959 236.651C92.9037 236.285 91.5384 234.195 92.4255 232.418C93.3127 230.64 94.5983 230.589 96.0054 231.112C97.4124 231.635 98.0398 233.122 98.3654 235.059Z" fill="#696646"/>
<path d="M98.3654 235.059C99.328 240.788 97.0882 237.018 94.9959 236.651C92.9037 236.285 91.5384 234.195 92.4255 232.418C93.3127 230.64 94.5983 230.589 96.0054 231.112C97.4124 231.635 98.0398 233.122 98.3654 235.059Z" fill="black" fill-opacity="0.2"/>
<path d="M85.5385 250.522C91.1973 252.232 86.7564 252.516 85.4886 254.188C84.2208 255.861 81.7041 256.127 80.4772 254.556C79.2504 252.984 79.7773 251.834 80.882 250.832C81.9867 249.831 83.6244 249.944 85.5385 250.522Z" fill="#696646"/>
<path d="M85.5385 250.522C91.1973 252.232 86.7564 252.516 85.4886 254.188C84.2208 255.861 81.7041 256.127 80.4772 254.556C79.2504 252.984 79.7773 251.834 80.882 250.832C81.9867 249.831 83.6244 249.944 85.5385 250.522Z" fill="black" fill-opacity="0.2"/>
<path d="M126.186 251.561C121.015 252.008 124.524 250.337 124.989 248.568C125.454 246.799 127.408 245.767 128.934 246.645C130.461 247.522 130.421 248.628 129.862 249.799C129.303 250.97 127.936 251.41 126.186 251.561Z" fill="#696646"/>
<path d="M126.186 251.561C121.015 252.008 124.524 250.337 124.989 248.568C125.454 246.799 127.408 245.767 128.934 246.645C130.461 247.522 130.421 248.628 129.862 249.799C129.303 250.97 127.936 251.41 126.186 251.561Z" fill="black" fill-opacity="0.2"/>
<path d="M103.266 276.2C107.576 271.219 107.079 275.749 106.945 277.73C106.812 279.712 106.342 280.531 104.963 281.221C103.585 281.911 101.851 280.899 101.633 279.456C101.415 278.012 101.809 277.884 103.266 276.2Z" fill="#696646"/>
<path d="M103.266 276.2C107.576 271.219 107.079 275.749 106.945 277.73C106.812 279.712 106.342 280.531 104.963 281.221C103.585 281.911 101.851 280.899 101.633 279.456C101.415 278.012 101.809 277.884 103.266 276.2Z" fill="black" fill-opacity="0.2"/>
<path d="M102.169 234.373C102.523 230.259 108.431 230.025 109.107 234.098L110.111 240.148C110.516 242.588 113.24 243.854 115.356 242.587L117.718 241.173C121.002 239.206 124.599 243.197 122.322 246.281L120.568 248.657C118.977 250.812 120.283 253.891 122.935 254.232L126.92 254.745C130.913 255.259 131.025 261.023 127.056 261.693L119.22 263.017C116.991 263.393 115.697 265.761 116.579 267.85L116.914 268.645C118.336 272.019 114.31 275.052 111.481 272.738L108.529 270.323C107.144 269.19 105.131 269.287 103.859 270.547L98.0882 276.269C95.1877 279.145 90.5624 275.563 92.5969 272.017L94.4497 268.787C95.7625 266.499 94.185 263.629 91.5565 263.524L88.7053 263.41C84.9554 263.26 84.039 258.094 87.5069 256.654L90.3347 255.48C92.6391 254.523 93.2352 251.522 91.4728 249.751L90.2572 248.53C87.6429 245.902 90.3485 241.531 93.8531 242.719L97.0116 243.791C99.1609 244.52 101.423 243.034 101.618 240.765L102.169 234.373Z" fill="#696646"/>
<path d="M102.169 234.373C102.523 230.259 108.431 230.025 109.107 234.098L110.111 240.148C110.516 242.588 113.24 243.854 115.356 242.587L117.718 241.173C121.002 239.206 124.599 243.197 122.322 246.281L120.568 248.657C118.977 250.812 120.283 253.891 122.935 254.232L126.92 254.745C130.913 255.259 131.025 261.023 127.056 261.693L119.22 263.017C116.991 263.393 115.697 265.761 116.579 267.85L116.914 268.645C118.336 272.019 114.31 275.052 111.481 272.738L108.529 270.323C107.144 269.19 105.131 269.287 103.859 270.547L98.0882 276.269C95.1877 279.145 90.5624 275.563 92.5969 272.017L94.4497 268.787C95.7625 266.499 94.185 263.629 91.5565 263.524L88.7053 263.41C84.9554 263.26 84.039 258.094 87.5069 256.654L90.3347 255.48C92.6391 254.523 93.2352 251.522 91.4728 249.751L90.2572 248.53C87.6429 245.902 90.3485 241.531 93.8531 242.719L97.0116 243.791C99.1609 244.52 101.423 243.034 101.618 240.765L102.169 234.373Z" fill="black" fill-opacity="0.2"/>
<path d="M183.431 232.139C184.393 237.867 182.154 234.097 180.061 233.73C177.969 233.364 176.604 231.274 177.491 229.497C178.378 227.72 179.664 227.669 181.071 228.191C182.478 228.714 183.105 230.201 183.431 232.139Z" fill="#F6EB6D"/>
<path d="M183.431 232.139C184.393 237.867 182.154 234.097 180.061 233.73C177.969 233.364 176.604 231.274 177.491 229.497C178.378 227.72 179.664 227.669 181.071 228.191C182.478 228.714 183.105 230.201 183.431 232.139Z" fill="black" fill-opacity="0.2"/>
<path d="M170.604 247.601C176.263 249.312 171.822 249.595 170.554 251.268C169.286 252.94 166.77 253.206 165.543 251.635C164.316 250.063 164.843 248.913 165.947 247.911C167.052 246.91 168.69 247.023 170.604 247.601Z" fill="#F6EB6D"/>
<path d="M170.604 247.601C176.263 249.312 171.822 249.595 170.554 251.268C169.286 252.94 166.77 253.206 165.543 251.635C164.316 250.063 164.843 248.913 165.947 247.911C167.052 246.91 168.69 247.023 170.604 247.601Z" fill="black" fill-opacity="0.2"/>
<path d="M211.252 248.64C206.08 249.087 209.59 247.416 210.055 245.647C210.52 243.878 212.474 242.846 214 243.724C215.526 244.602 215.487 245.707 214.928 246.878C214.369 248.05 213.001 248.489 211.252 248.64Z" fill="#F6EB6D"/>
<path d="M211.252 248.64C206.08 249.087 209.59 247.416 210.055 245.647C210.52 243.878 212.474 242.846 214 243.724C215.526 244.602 215.487 245.707 214.928 246.878C214.369 248.05 213.001 248.489 211.252 248.64Z" fill="black" fill-opacity="0.2"/>
<path d="M188.332 273.279C192.642 268.298 192.144 272.828 192.011 274.81C191.877 276.791 191.407 277.61 190.029 278.3C188.65 278.99 186.917 277.978 186.698 276.535C186.48 275.091 186.874 274.963 188.332 273.279Z" fill="#F6EB6D"/>
<path d="M188.332 273.279C192.642 268.298 192.144 272.828 192.011 274.81C191.877 276.791 191.407 277.61 190.029 278.3C188.65 278.99 186.917 277.978 186.698 276.535C186.48 275.091 186.874 274.963 188.332 273.279Z" fill="black" fill-opacity="0.2"/>
<path d="M187.234 231.452C187.589 227.339 193.496 227.105 194.172 231.177L195.177 237.227C195.582 239.667 198.305 240.933 200.421 239.666L202.783 238.252C206.068 236.285 209.664 240.276 207.387 243.36L205.634 245.736C204.042 247.892 205.349 250.97 208 251.311L211.986 251.824C215.978 252.338 216.091 258.102 212.121 258.773L204.286 260.096C202.057 260.473 200.763 262.84 201.644 264.929L201.979 265.724C203.402 269.098 199.375 272.131 196.546 269.817L193.594 267.402C192.209 266.269 190.196 266.366 188.925 267.626L183.154 273.348C180.253 276.224 175.628 272.642 177.662 269.096L179.515 265.866C180.828 263.578 179.25 260.708 176.622 260.603L173.771 260.489C170.021 260.339 169.104 255.173 172.572 253.733L175.4 252.559C177.705 251.602 178.301 248.602 176.538 246.83L175.323 245.609C172.708 242.982 175.414 238.61 178.919 239.798L182.077 240.87C184.226 241.599 186.488 240.114 186.683 237.845L187.234 231.452Z" fill="#F6EB6D"/>
<path d="M187.234 231.452C187.589 227.339 193.496 227.105 194.172 231.177L195.177 237.227C195.582 239.667 198.305 240.933 200.421 239.666L202.783 238.252C206.068 236.285 209.664 240.276 207.387 243.36L205.634 245.736C204.042 247.892 205.349 250.97 208 251.311L211.986 251.824C215.978 252.338 216.091 258.102 212.121 258.773L204.286 260.096C202.057 260.473 200.763 262.84 201.644 264.929L201.979 265.724C203.402 269.098 199.375 272.131 196.546 269.817L193.594 267.402C192.209 266.269 190.196 266.366 188.925 267.626L183.154 273.348C180.253 276.224 175.628 272.642 177.662 269.096L179.515 265.866C180.828 263.578 179.25 260.708 176.622 260.603L173.771 260.489C170.021 260.339 169.104 255.173 172.572 253.733L175.4 252.559C177.705 251.602 178.301 248.602 176.538 246.83L175.323 245.609C172.708 242.982 175.414 238.61 178.919 239.798L182.077 240.87C184.226 241.599 186.488 240.114 186.683 237.845L187.234 231.452Z" fill="black" fill-opacity="0.2"/>
<path d="M205.09 62.4408C206.355 70.3719 203.412 65.1519 200.664 64.6445C197.915 64.1371 196.122 61.2438 197.287 58.7829C198.453 56.3221 200.141 56.2515 201.99 56.9751C203.838 57.6986 204.663 59.758 205.09 62.4408Z" fill="#F67D6D"/>
<path d="M205.09 62.4408C206.355 70.3719 203.412 65.1519 200.664 64.6445C197.915 64.1371 196.122 61.2438 197.287 58.7829C198.453 56.3221 200.141 56.2515 201.99 56.9751C203.838 57.6986 204.663 59.758 205.09 62.4408Z" fill="black" fill-opacity="0.2"/>
<path d="M188.239 83.8506C195.673 86.2187 189.839 86.6116 188.174 88.9271C186.508 91.2426 183.202 91.6107 181.59 89.4353C179.979 87.2598 180.671 85.6665 182.122 84.2798C183.573 82.8932 185.725 83.0495 188.239 83.8506Z" fill="#F67D6D"/>
<path d="M188.239 83.8506C195.673 86.2187 189.839 86.6116 188.174 88.9271C186.508 91.2426 183.202 91.6107 181.59 89.4353C179.979 87.2598 180.671 85.6665 182.122 84.2798C183.573 82.8932 185.725 83.0495 188.239 83.8506Z" fill="black" fill-opacity="0.2"/>
<path d="M241.639 85.2889C234.845 85.9073 239.456 83.5942 240.067 81.1448C240.678 78.6955 243.245 77.2665 245.25 78.4819C247.255 79.6972 247.203 81.2275 246.469 82.8494C245.734 84.4713 243.937 85.0798 241.639 85.2889Z" fill="#F67D6D"/>
<path d="M241.639 85.2889C234.845 85.9073 239.456 83.5942 240.067 81.1448C240.678 78.6955 243.245 77.2665 245.25 78.4819C247.255 79.6972 247.203 81.2275 246.469 82.8494C245.734 84.4713 243.937 85.0798 241.639 85.2889Z" fill="black" fill-opacity="0.2"/>
<path d="M211.529 119.404C217.191 112.507 216.537 118.78 216.362 121.524C216.187 124.267 215.569 125.401 213.758 126.357C211.947 127.312 209.67 125.911 209.383 123.912C209.096 121.914 209.614 121.737 211.529 119.404Z" fill="#F67D6D"/>
<path d="M211.529 119.404C217.191 112.507 216.537 118.78 216.362 121.524C216.187 124.267 215.569 125.401 213.758 126.357C211.947 127.312 209.67 125.911 209.383 123.912C209.096 121.914 209.614 121.737 211.529 119.404Z" fill="black" fill-opacity="0.2"/>
<path d="M210.087 61.4902C210.553 55.7945 218.313 55.4705 219.202 61.1097L220.521 69.4862C221.054 72.8643 224.631 74.6181 227.411 72.8636L230.514 70.9051C234.829 68.1821 239.554 73.7075 236.563 77.9781L234.259 81.2675C232.168 84.2525 233.884 88.5153 237.368 88.9877L242.604 89.6979C247.849 90.4094 247.997 98.3902 242.782 99.3186L232.488 101.151C229.56 101.672 227.86 104.95 229.018 107.844L229.458 108.944C231.327 113.615 226.037 117.815 222.321 114.611L218.442 111.268C216.623 109.699 213.978 109.833 212.308 111.578L204.726 119.5C200.916 123.482 194.839 118.522 197.512 113.612L199.946 109.14C201.671 105.972 199.598 101.998 196.145 101.853L192.4 101.695C187.473 101.488 186.269 94.3349 190.825 92.3409L194.54 90.715C197.568 89.3901 198.351 85.2356 196.035 82.7833L194.438 81.0918C191.004 77.454 194.558 71.4007 199.163 73.0467L203.312 74.53C206.135 75.5395 209.107 73.483 209.363 70.3414L210.087 61.4902Z" fill="#F67D6D"/>
<path d="M210.087 61.4902C210.553 55.7945 218.313 55.4705 219.202 61.1097L220.521 69.4862C221.054 72.8643 224.631 74.6181 227.411 72.8636L230.514 70.9051C234.829 68.1821 239.554 73.7075 236.563 77.9781L234.259 81.2675C232.168 84.2525 233.884 88.5153 237.368 88.9877L242.604 89.6979C247.849 90.4094 247.997 98.3902 242.782 99.3186L232.488 101.151C229.56 101.672 227.86 104.95 229.018 107.844L229.458 108.944C231.327 113.615 226.037 117.815 222.321 114.611L218.442 111.268C216.623 109.699 213.978 109.833 212.308 111.578L204.726 119.5C200.916 123.482 194.839 118.522 197.512 113.612L199.946 109.14C201.671 105.972 199.598 101.998 196.145 101.853L192.4 101.695C187.473 101.488 186.269 94.3349 190.825 92.3409L194.54 90.715C197.568 89.3901 198.351 85.2356 196.035 82.7833L194.438 81.0918C191.004 77.454 194.558 71.4007 199.163 73.0467L203.312 74.53C206.135 75.5395 209.107 73.483 209.363 70.3414L210.087 61.4902Z" fill="black" fill-opacity="0.2"/>
<path d="M210.4 140.394C211.684 147.114 208.697 142.691 205.908 142.261C203.118 141.831 201.298 139.38 202.48 137.295C203.663 135.21 205.378 135.151 207.254 135.764C209.13 136.377 209.966 138.121 210.4 140.394Z" fill="#CCFF00"/>
<path d="M210.4 140.394C211.684 147.114 208.697 142.691 205.908 142.261C203.118 141.831 201.298 139.38 202.48 137.295C203.663 135.21 205.378 135.151 207.254 135.764C209.13 136.377 209.966 138.121 210.4 140.394Z" fill="black" fill-opacity="0.2"/>
<path d="M193.298 158.533C200.843 160.539 194.922 160.872 193.231 162.834C191.541 164.796 188.185 165.108 186.549 163.265C184.914 161.422 185.616 160.072 187.089 158.897C188.562 157.722 190.746 157.854 193.298 158.533Z" fill="#CCFF00"/>
<path d="M193.298 158.533C200.843 160.539 194.922 160.872 193.231 162.834C191.541 164.796 188.185 165.108 186.549 163.265C184.914 161.422 185.616 160.072 187.089 158.897C188.562 157.722 190.746 157.854 193.298 158.533Z" fill="black" fill-opacity="0.2"/>
<path d="M247.495 159.752C240.599 160.276 245.279 158.316 245.899 156.241C246.519 154.166 249.124 152.955 251.159 153.985C253.194 155.014 253.141 156.311 252.396 157.685C251.651 159.059 249.827 159.575 247.495 159.752Z" fill="#CCFF00"/>
<path d="M247.495 159.752C240.599 160.276 245.279 158.316 245.899 156.241C246.519 154.166 249.124 152.955 251.159 153.985C253.194 155.014 253.141 156.311 252.396 157.685C251.651 159.059 249.827 159.575 247.495 159.752Z" fill="black" fill-opacity="0.2"/>
<path d="M216.935 188.655C222.681 182.812 222.018 188.126 221.84 190.451C221.662 192.775 221.035 193.736 219.197 194.545C217.359 195.355 215.048 194.168 214.757 192.474C214.466 190.781 214.991 190.631 216.935 188.655Z" fill="#CCFF00"/>
<path d="M216.935 188.655C222.681 182.812 222.018 188.126 221.84 190.451C221.662 192.775 221.035 193.736 219.197 194.545C217.359 195.355 215.048 194.168 214.757 192.474C214.466 190.781 214.991 190.631 216.935 188.655Z" fill="black" fill-opacity="0.2"/>
<path d="M215.472 139.589C215.944 134.763 223.821 134.489 224.722 139.267L226.062 146.363C226.602 149.225 230.233 150.711 233.054 149.225L236.204 147.565C240.583 145.258 245.378 149.94 242.342 153.558L240.004 156.345C237.882 158.874 239.624 162.485 243.159 162.885L248.473 163.487C253.797 164.09 253.947 170.851 248.654 171.638L238.207 173.19C235.235 173.632 233.51 176.409 234.685 178.86L235.132 179.793C237.028 183.75 231.66 187.308 227.888 184.594L223.951 181.761C222.105 180.432 219.421 180.546 217.726 182.024L210.031 188.736C206.163 192.109 199.996 187.908 202.709 183.748L205.179 179.959C206.93 177.275 204.826 173.908 201.322 173.785L197.52 173.652C192.52 173.476 191.298 167.416 195.922 165.726L199.693 164.349C202.765 163.226 203.56 159.707 201.21 157.629L199.589 156.196C196.104 153.114 199.711 147.985 204.384 149.38L208.595 150.637C211.461 151.492 214.476 149.749 214.737 147.088L215.472 139.589Z" fill="#CCFF00"/>
<path d="M215.472 139.589C215.944 134.763 223.821 134.489 224.722 139.267L226.062 146.363C226.602 149.225 230.233 150.711 233.054 149.225L236.204 147.565C240.583 145.258 245.378 149.94 242.342 153.558L240.004 156.345C237.882 158.874 239.624 162.485 243.159 162.885L248.473 163.487C253.797 164.09 253.947 170.851 248.654 171.638L238.207 173.19C235.235 173.632 233.51 176.409 234.685 178.86L235.132 179.793C237.028 183.75 231.66 187.308 227.888 184.594L223.951 181.761C222.105 180.432 219.421 180.546 217.726 182.024L210.031 188.736C206.163 192.109 199.996 187.908 202.709 183.748L205.179 179.959C206.93 177.275 204.826 173.908 201.322 173.785L197.52 173.652C192.52 173.476 191.298 167.416 195.922 165.726L199.693 164.349C202.765 163.226 203.56 159.707 201.21 157.629L199.589 156.196C196.104 153.114 199.711 147.985 204.384 149.38L208.595 150.637C211.461 151.492 214.476 149.749 214.737 147.088L215.472 139.589Z" fill="black" fill-opacity="0.2"/>
<path d="M142.046 175.846C143.273 183.116 140.418 178.331 137.751 177.866C135.085 177.4 133.345 174.748 134.475 172.493C135.606 170.237 137.245 170.172 139.038 170.835C140.831 171.499 141.631 173.386 142.046 175.846Z" fill="#40F9A4"/>
<path d="M142.046 175.846C143.273 183.116 140.418 178.331 137.751 177.866C135.085 177.4 133.345 174.748 134.475 172.493C135.606 170.237 137.245 170.172 139.038 170.835C140.831 171.499 141.631 173.386 142.046 175.846Z" fill="black" fill-opacity="0.2"/>
<path d="M125.698 195.471C132.91 197.642 127.25 198.002 125.634 200.125C124.018 202.247 120.811 202.585 119.247 200.591C117.684 198.596 118.355 197.136 119.763 195.865C121.171 194.594 123.258 194.737 125.698 195.471Z" fill="#40F9A4"/>
<path d="M125.698 195.471C132.91 197.642 127.25 198.002 125.634 200.125C124.018 202.247 120.811 202.585 119.247 200.591C117.684 198.596 118.355 197.136 119.763 195.865C121.171 194.594 123.258 194.737 125.698 195.471Z" fill="black" fill-opacity="0.2"/>
<path d="M177.504 196.79C170.912 197.357 175.386 195.236 175.978 192.991C176.571 190.746 179.061 189.436 181.006 190.55C182.952 191.664 182.901 193.067 182.189 194.553C181.476 196.04 179.733 196.598 177.504 196.79Z" fill="#40F9A4"/>
<path d="M177.504 196.79C170.912 197.357 175.386 195.236 175.978 192.991C176.571 190.746 179.061 189.436 181.006 190.55C182.952 191.664 182.901 193.067 182.189 194.553C181.476 196.04 179.733 196.598 177.504 196.79Z" fill="black" fill-opacity="0.2"/>
<path d="M148.292 228.062C153.785 221.74 153.151 227.49 152.981 230.005C152.811 232.52 152.212 233.559 150.455 234.435C148.698 235.311 146.488 234.027 146.21 232.195C145.932 230.363 146.434 230.2 148.292 228.062Z" fill="#40F9A4"/>
<path d="M148.292 228.062C153.785 221.74 153.151 227.49 152.981 230.005C152.811 232.52 152.212 233.559 150.455 234.435C148.698 235.311 146.488 234.027 146.21 232.195C145.932 230.363 146.434 230.2 148.292 228.062Z" fill="black" fill-opacity="0.2"/>
<path d="M146.893 174.974C147.345 169.753 154.874 169.456 155.736 174.625L157.016 182.304C157.532 185.4 161.003 187.008 163.7 185.4L166.711 183.604C170.897 181.108 175.481 186.173 172.579 190.088L170.343 193.103C168.315 195.84 169.98 199.747 173.359 200.18L178.439 200.831C183.528 201.483 183.671 208.799 178.612 209.65L168.626 211.33C165.785 211.808 164.136 214.813 165.259 217.465L165.686 218.474C167.499 222.755 162.367 226.605 158.762 223.668L154.999 220.603C153.234 219.166 150.668 219.288 149.048 220.888L141.692 228.15C137.996 231.8 132.101 227.254 134.694 222.753L137.055 218.653C138.728 215.749 136.718 212.107 133.368 211.973L129.734 211.829C124.955 211.639 123.787 205.082 128.207 203.254L131.811 201.764C134.748 200.549 135.507 196.741 133.261 194.493L131.712 192.942C128.38 189.608 131.828 184.059 136.295 185.568L140.32 186.927C143.06 187.853 145.942 185.968 146.191 183.088L146.893 174.974Z" fill="#40F9A4"/>
<path d="M146.893 174.974C147.345 169.753 154.874 169.456 155.736 174.625L157.016 182.304C157.532 185.4 161.003 187.008 163.7 185.4L166.711 183.604C170.897 181.108 175.481 186.173 172.579 190.088L170.343 193.103C168.315 195.84 169.98 199.747 173.359 200.18L178.439 200.831C183.528 201.483 183.671 208.799 178.612 209.65L168.626 211.33C165.785 211.808 164.136 214.813 165.259 217.465L165.686 218.474C167.499 222.755 162.367 226.605 158.762 223.668L154.999 220.603C153.234 219.166 150.668 219.288 149.048 220.888L141.692 228.15C137.996 231.8 132.101 227.254 134.694 222.753L137.055 218.653C138.728 215.749 136.718 212.107 133.368 211.973L129.734 211.829C124.955 211.639 123.787 205.082 128.207 203.254L131.811 201.764C134.748 200.549 135.507 196.741 133.261 194.493L131.712 192.942C128.38 189.608 131.828 184.059 136.295 185.568L140.32 186.927C143.06 187.853 145.942 185.968 146.191 183.088L146.893 174.974Z" fill="black" fill-opacity="0.2"/>
</g>
<path d="M241 164.888C241 231.024 193.39 261 151.348 261C109.307 261 59 231.024 59 164.888C59 98.7528 109.307 41 151.348 41C193.39 41 241 98.7528 241 164.888Z" stroke="#F4EB72" stroke-width="5"/>
<path d="M241 164.888C241 231.024 193.39 261 151.348 261C109.307 261 59 231.024 59 164.888C59 98.7528 109.307 41 151.348 41C193.39 41 241 98.7528 241 164.888Z" stroke="black" stroke-opacity="0.2" stroke-width="5"/>
</svg>
