<svg width="300" height="300" viewBox="0 0 300 300" fill="none" xmlns="http://www.w3.org/2000/svg">
<path d="M239.976 167.854C239.976 236.078 192.247 267.001 150.101 267.001C107.955 267.001 57.5234 236.078 57.5234 167.854C57.5234 99.6309 107.955 40.0547 150.101 40.0547C192.247 40.0547 239.976 99.6309 239.976 167.854Z" fill="#3CD7EC"/>
<path d="M74.2479 100.641C83.8773 106.289 101.086 126.313 101.086 126.313L122.528 98.9067L152.937 124.578L182.332 99.9297L208.686 124.578C208.686 124.578 224.264 108.343 227.305 106.803" stroke="#E347E7" stroke-width="11"/>
<path d="M60.0572 140.97C67.1525 143.183 91.6195 166.163 91.6195 166.163L118.642 140.97L152.205 167.243L185.44 143.183L214.49 168.352C214.49 168.352 233.894 147.365 238.455 146.338" stroke="#CCFF00" stroke-width="11"/>
<path d="M58.5349 183.82C69.6848 182.793 88.5737 207.241 88.5737 207.241L115.596 182.047L149.16 208.32L182.394 184.26L211.444 209.43C211.444 209.43 227.301 188.442 237.944 189.982" stroke="#9F2EF9" stroke-width="11"/>
<path d="M239.976 167.854C239.976 236.078 192.247 267.001 150.101 267.001C107.955 267.001 57.5234 236.078 57.5234 167.854C57.5234 99.6309 107.955 40.0547 150.101 40.0547C192.247 40.0547 239.976 99.6309 239.976 167.854Z" fill="#3CD7EC"/>
<path d="M74.7525 104.749C84.3818 110.397 101.087 126.312 101.087 126.312L122.529 98.9063L152.937 124.577L182.332 99.9292L208.687 124.577C208.687 124.577 222.741 110.397 225.782 108.856" stroke="#E347E7" stroke-width="11"/>
<path d="M61.5758 143.771C68.6711 145.983 91.6209 166.163 91.6209 166.163L118.643 140.97L152.207 167.243L185.441 143.183L214.491 168.352C214.491 168.352 233.895 147.365 238.456 146.338" stroke="#CCFF00" stroke-width="11"/>
<path d="M58.5349 183.82C69.6848 182.793 88.5737 207.241 88.5737 207.241L115.596 182.047L149.16 208.32L182.394 184.26L211.444 209.43C211.444 209.43 227.301 188.442 237.944 189.982" stroke="#9F2EF9" stroke-width="11"/>
<path d="M239.5 166.956C239.5 200.75 227.676 225.082 210.828 240.975C193.938 256.908 171.85 264.5 151.127 264.5C130.369 264.5 107.189 257.12 89.2306 241.387C71.3331 225.706 58.5 201.625 58.5 167.904C58.5 134.101 71.4025 102.153 89.5609 78.6656C107.795 55.0811 130.929 40.5 151.127 40.5C171.304 40.5 193.368 54.8214 210.53 78.1445C227.626 101.376 239.5 133.102 239.5 166.956Z" stroke="#3CD7EC" stroke-width="5"/>
<path d="M239.5 166.956C239.5 200.75 227.676 225.082 210.828 240.975C193.938 256.908 171.85 264.5 151.127 264.5C130.369 264.5 107.189 257.12 89.2306 241.387C71.3331 225.706 58.5 201.625 58.5 167.904C58.5 134.101 71.4025 102.153 89.5609 78.6656C107.795 55.0811 130.929 40.5 151.127 40.5C171.304 40.5 193.368 54.8214 210.53 78.1445C227.626 101.376 239.5 133.102 239.5 166.956Z" stroke="black" stroke-opacity="0.2" stroke-width="5"/>
</svg>
