<svg width="300" height="300" viewBox="0 0 300 300" fill="none" xmlns="http://www.w3.org/2000/svg">
<path d="M241 165.957C241 200.128 229.062 224.868 211.933 241.068C194.787 257.284 172.38 265.001 151.363 265.001C130.342 265.001 107.246 257.281 89.4158 241.055C71.6062 224.848 59 200.11 59 165.957C59 131.777 71.6298 99.7472 89.5379 76.2703C107.474 52.7561 130.555 38.001 151.363 38.001C172.162 38.001 194.559 52.7455 211.814 76.2555C229.042 99.7286 241 131.763 241 165.957Z" fill="white" stroke="black" stroke-width="2"/>
<path d="M102.5 62.3326C81.5735 83.2228 74.645 94.7525 70 115.023C132.848 106.161 168.338 106.599 232 113.503C223.34 92.0964 216.734 80.7122 199.5 62.3326C161.617 57.2816 140.385 56.7303 102.5 62.3326Z" fill="white" stroke="black" stroke-width="2"/>
<path d="M231.203 112.406C166.694 105.085 130.569 104.727 68.5573 114.353C73.8781 100.214 81.1256 87.2984 89.5378 76.2703C107.474 52.7561 130.555 38.001 151.363 38.001C172.162 38.001 194.559 52.7455 211.814 76.2555C219.537 86.7775 226.201 99.0198 231.203 112.406ZM61.1011 189.065C130.368 198.01 169.547 197.851 239.023 188.984C234.959 211.532 224.943 228.763 211.933 241.068C194.787 257.284 172.38 265.001 151.363 265.001C130.342 265.001 107.246 257.281 89.4158 241.055C75.9069 228.761 65.3918 211.56 61.1011 189.065Z" fill="white" stroke="black" stroke-width="2"/>
<path d="M68.5497 115.217L68.0499 116.743L69.6396 116.519C132.412 107.668 167.319 106.589 230.892 113.483L231.631 113.563C237.528 129.733 241 147.531 241 165.956C241 200.127 229.062 224.867 211.933 241.067C194.787 257.283 172.38 265 151.363 265C130.342 265 107.246 257.28 89.4158 241.054C71.6062 224.847 59 200.109 59 165.956C59 145.691 63.4395 126.182 70.7863 108.764C70.0267 110.825 69.2866 112.968 68.5497 115.217ZM151.363 38C167.287 38 184.149 46.6432 198.922 61.2462C161.585 56.2966 140.313 55.7646 102.895 61.2628C118.164 46.6516 135.43 38 151.363 38Z" fill="white" stroke="black" stroke-width="2"/>
<path d="M60.5344 185.836C59.5329 179.602 59 172.978 59 165.956C59 131.776 71.6298 99.7462 89.5378 76.2693C107.474 52.7551 130.555 38 151.363 38C172.162 38 194.559 52.7445 211.814 76.2545C229.042 99.7276 241 131.762 241 165.956C241 172.999 240.493 179.64 239.538 185.889L238.876 185.972C170.996 194.484 131.403 194.718 61.6244 185.972L60.5344 185.836ZM117.482 258.456C142.437 252.683 159.239 252.479 184.331 258.635C173.589 262.915 162.288 265 151.363 265C140.287 265 128.636 262.857 117.482 258.456Z" fill="#9FF1FF" stroke="black" stroke-width="2"/>
<path d="M68.2679 116.422C130.524 106.72 166.506 107.066 231.249 114.424C235.916 128.805 238.541 140.004 239.546 151.095C240.547 162.141 239.944 173.123 238.111 187.084C169.221 195.846 130.244 195.977 61.3896 187.086C59.6364 173.954 59.1127 163.458 60.1325 152.706C61.1582 141.892 63.7495 130.777 68.2679 116.422Z" fill="#FFCBF2" stroke="#FFCBF2" stroke-width="2"/>
<path d="M61.5 186.965C68.5605 220.327 75.9244 238.017 115.5 257.894C141.885 251.615 159.138 251.317 185.5 257.894C216 244.721 233 220.91 239 186.965C171.039 195.486 131.363 195.721 61.5 186.965Z" fill="#9FF1FF" stroke="#9FF1FF" stroke-width="2"/>
<path d="M150.807 264.998C139.426 264.894 127.456 262.358 116.059 257.25C116.798 256.878 117.748 256.502 118.912 256.136C120.994 255.482 123.651 254.893 126.765 254.399C132.99 253.411 140.967 252.815 149.676 252.815C159.38 252.815 168.171 253.555 174.642 254.751C177.884 255.35 180.503 256.056 182.353 256.822C183.28 257.206 183.975 257.589 184.453 257.955C184.514 258.002 184.57 258.048 184.621 258.092C174.983 262.247 164.895 264.496 155.033 264.925C153.649 264.965 152.238 264.99 150.807 264.998Z" fill="#CCAFFF" stroke="#CCAFFF" stroke-width="2"/>
<path d="M153.707 58.293C132.805 58.293 113.865 60.5102 100.231 64.1062C116.197 47.7676 134.639 38.001 151.57 38.001C167.942 38.001 185.31 47.1336 200.396 62.5206C187.572 59.8711 171.342 58.293 153.707 58.293Z" fill="#CCAFFF" stroke="#CCAFFF" stroke-width="2"/>
<path d="M87.5476 133.863C89.9166 134.673 92.8073 137.543 92.8073 137.543C92.8073 137.543 95.6878 134.642 98.067 133.863C104.071 131.896 110.319 135.635 112.245 141.683C113.576 145.86 113.298 147.892 110.187 152.722C107.076 157.551 92.8073 169.741 92.8073 169.741C92.8073 169.741 76.4313 156.312 74.284 152.722C72.1366 149.132 71.2859 145.806 72.6832 141.683C74.7963 135.446 81.345 131.743 87.5476 133.863Z" fill="#FA79E6"/>
<path d="M144.548 133.863C146.917 134.673 149.807 137.543 149.807 137.543C149.807 137.543 152.688 134.642 155.067 133.863C161.071 131.896 167.319 135.635 169.245 141.683C170.576 145.86 170.298 147.892 167.187 152.722C164.076 157.551 149.807 169.741 149.807 169.741C149.807 169.741 133.431 156.312 131.284 152.722C129.137 149.132 128.286 145.806 129.683 141.683C131.796 135.446 138.345 131.743 144.548 133.863Z" fill="#5CB6F8"/>
<path d="M201.548 133.863C203.917 134.673 206.807 137.543 206.807 137.543C206.807 137.543 209.688 134.642 212.067 133.863C218.071 131.896 224.319 135.635 226.245 141.683C227.576 145.86 227.298 147.892 224.187 152.722C221.076 157.551 206.807 169.741 206.807 169.741C206.807 169.741 190.431 156.312 188.284 152.722C186.137 149.132 185.286 145.806 186.683 141.683C188.796 135.446 195.345 131.743 201.548 133.863Z" fill="#FA79E6"/>
<path d="M241.5 165.956C241.5 199.735 229.457 224.062 212.283 239.959C195.064 255.899 172.536 263.5 151.393 263.5C130.24 263.5 106.998 255.891 89.0738 239.927C71.2052 224.012 58.5 199.689 58.5 165.956C58.5 132.15 71.2685 100.442 89.3829 77.1996C107.565 53.8713 130.765 39.5 151.393 39.5C171.997 39.5 194.496 53.8458 211.982 77.1627C229.404 100.395 241.5 132.114 241.5 165.956Z" stroke="#9FF1FF" stroke-width="5"/>
<path d="M241.5 165.956C241.5 199.735 229.457 224.062 212.283 239.959C195.064 255.899 172.536 263.5 151.393 263.5C130.24 263.5 106.998 255.891 89.0738 239.927C71.2052 224.012 58.5 199.689 58.5 165.956C58.5 132.15 71.2685 100.442 89.3829 77.1996C107.565 53.8713 130.765 39.5 151.393 39.5C171.997 39.5 194.496 53.8458 211.982 77.1627C229.404 100.395 241.5 132.114 241.5 165.956Z" stroke="black" stroke-opacity="0.2" stroke-width="5"/>
</svg>
