<svg width="300" height="300" viewBox="0 0 300 300" fill="none" xmlns="http://www.w3.org/2000/svg">
<path d="M243 168.267C243 236.206 194.867 267 152.363 267C109.86 267 59 236.206 59 168.267C59 100.328 109.86 41 152.363 41C194.867 41 243 100.328 243 168.267Z" fill="#1FF7D0"/>
<path d="M81.5 91C100.217 61.1079 127.103 41 151.692 41C176.082 41 202.326 60.5363 220.265 90.0253C202.13 98.3593 176.934 90.0253 149.5 90.0253C122.868 90.0253 99.4836 98.9075 81.5 91Z" fill="#1FF7D0"/>
<path d="M237.497 205C219.073 214.934 186.975 221.511 150.461 221.511C114.967 221.511 83.6449 215.296 65 205.824C79.7054 247.669 118.639 267.011 152.324 267.011C186.23 267.011 223.718 247.415 237.497 205Z" fill="#E69661"/>
<path d="M98 69.6769C111.665 65.591 131.999 63 154.707 63C173.788 63 191.194 64.8295 204.375 67.8383C188.677 51.1408 170.143 41 152.57 41C134.362 41 114.62 51.8881 98 69.6769Z" fill="#E69661"/>
<path d="M166.503 166.252C164.431 173.985 156.482 178.575 148.749 176.502C141.016 174.43 136.426 166.481 138.499 158.748C140.571 151.015 148.52 146.425 156.253 148.498C163.986 150.57 168.576 158.519 166.503 166.252Z" fill="#E69661"/>
<path d="M211.629 170.084C209.509 177.997 185.689 180.914 177.776 178.793C169.864 176.673 165.168 168.54 167.288 160.628C169.408 152.715 177.541 148.02 185.454 150.14C193.366 152.26 213.749 162.172 211.629 170.084Z" fill="#25AE4B"/>
<path d="M211.629 170.084C209.509 177.997 185.689 180.914 177.776 178.793C169.864 176.673 165.168 168.54 167.288 160.628C169.408 152.715 177.541 148.02 185.454 150.14C193.366 152.26 213.749 162.172 211.629 170.084Z" fill="#25AE4B"/>
<path d="M188.16 208.848C182.367 214.64 160.28 205.256 154.488 199.464C148.695 193.672 148.695 184.28 154.488 178.488C160.28 172.696 169.671 172.696 175.464 178.488C181.256 184.28 193.952 203.056 188.16 208.848Z" fill="#25AE4B"/>
<path d="M188.16 208.848C182.367 214.64 160.28 205.256 154.488 199.464C148.695 193.672 148.695 184.28 154.488 178.488C160.28 172.696 169.671 172.696 175.464 178.488C181.256 184.28 193.952 203.056 188.16 208.848Z" fill="#25AE4B"/>
<path d="M122.514 213.865C115.42 209.769 118.767 186.005 122.863 178.911C126.959 171.817 136.03 169.386 143.125 173.482C150.219 177.578 152.649 186.649 148.554 193.744C144.458 200.838 129.608 217.961 122.514 213.865Z" fill="#25AE4B"/>
<path d="M122.514 213.865C115.42 209.769 118.767 186.005 122.863 178.911C126.959 171.817 136.03 169.386 143.125 173.482C150.219 177.578 152.649 186.649 148.554 193.744C144.458 200.838 129.608 217.961 122.514 213.865Z" fill="#25AE4B"/>
<path d="M92.9314 162.736C92.9314 154.545 115.185 145.562 123.377 145.562C131.568 145.562 138.209 152.203 138.209 160.394C138.209 168.586 131.568 175.227 123.377 175.227C115.185 175.227 92.9314 170.928 92.9314 162.736Z" fill="#25AE4B"/>
<path d="M92.9314 162.736C92.9314 154.545 115.185 145.562 123.377 145.562C131.568 145.562 138.209 152.203 138.209 160.394C138.209 168.586 131.568 175.227 123.377 175.227C115.185 175.227 92.9314 170.928 92.9314 162.736Z" fill="#25AE4B"/>
<path d="M129.833 110.068C137.302 108.067 150.927 126.161 152.929 133.629C154.93 141.097 150.498 148.774 143.029 150.775C135.561 152.776 127.885 148.344 125.883 140.876C123.882 133.408 122.365 112.069 129.833 110.068Z" fill="#25AE4B"/>
<path d="M129.833 110.068C137.302 108.067 150.927 126.161 152.929 133.629C154.93 141.097 150.498 148.774 143.029 150.775C135.561 152.776 127.885 148.344 125.883 140.876C123.882 133.408 122.365 112.069 129.833 110.068Z" fill="#25AE4B"/>
<path d="M181.371 110.229C188.446 114.314 185.107 138.016 181.022 145.092C176.937 152.168 167.889 154.593 160.813 150.507C153.737 146.422 151.313 137.374 155.398 130.298C159.483 123.222 174.295 106.144 181.371 110.229Z" fill="#25AE4B"/>
<path d="M181.371 110.229C188.446 114.314 185.107 138.016 181.022 145.092C176.937 152.168 167.889 154.593 160.813 150.507C153.737 146.422 151.313 137.374 155.398 130.298C159.483 123.222 174.295 106.144 181.371 110.229Z" fill="#25AE4B"/>
<path fill-rule="evenodd" clip-rule="evenodd" d="M205.339 70C187.062 76.8845 166.576 80.7417 144.94 80.7417C127.27 80.7417 110.367 78.1691 94.8081 73.4759C85.9466 83.5975 78.0922 95.7039 72 109.148C96.7316 102.268 123.383 98.5205 151.162 98.5205C178.92 98.5205 205.551 102.262 230.266 109.132C223.767 94.1186 215.14 80.7743 205.339 70Z" fill="#E69661"/>
<path fill-rule="evenodd" clip-rule="evenodd" d="M146.823 266.849C128.434 265.785 108.958 259.064 93 246.192C103.441 240.792 128.002 237 156.637 237C179.919 237 200.508 239.507 213.004 243.346C196.124 258.975 174.274 266.613 153.592 266.986C151.305 266.964 149.047 266.918 146.823 266.849Z" fill="#1FF7D0"/>
<path d="M240.5 168.267C240.5 201.601 228.714 225.603 211.915 241.283C195.071 257.005 173.038 264.5 152.363 264.5C131.678 264.5 108.946 256.997 91.4132 241.251C73.9344 225.553 61.5 201.556 61.5 168.267C61.5 134.906 73.9961 103.617 91.7208 80.6852C109.514 57.6641 132.207 43.5 152.363 43.5C172.497 43.5 194.502 57.6383 211.614 80.6482C228.662 103.571 240.5 134.87 240.5 168.267Z" stroke="#1FF6D0" stroke-width="5"/>
<path d="M240.5 168.267C240.5 201.601 228.714 225.603 211.915 241.283C195.071 257.005 173.038 264.5 152.363 264.5C131.678 264.5 108.946 256.997 91.4132 241.251C73.9344 225.553 61.5 201.556 61.5 168.267C61.5 134.906 73.9961 103.617 91.7208 80.6852C109.514 57.6641 132.207 43.5 152.363 43.5C172.497 43.5 194.502 57.6383 211.614 80.6482C228.662 103.571 240.5 134.87 240.5 168.267Z" stroke="black" stroke-opacity="0.2" stroke-width="5"/>
</svg>
