<svg width="300" height="300" viewBox="0 0 300 300" fill="none" xmlns="http://www.w3.org/2000/svg">
<path d="M148.541 53.8885L149.034 54.1427L149.511 53.8597L165.511 44.3597L166.853 43.5629C182.602 48.6505 198.308 61.0379 211.138 78.2475C228.176 101.101 240 132.289 240 165.578C240 198.841 228.197 222.924 211.258 238.696C194.302 254.485 172.139 262 151.348 262C130.554 262 107.71 254.482 90.0759 238.683C72.4678 222.907 60.0056 198.834 60 165.6C61.4951 132.282 73.9938 101.09 91.3303 78.2391C103.202 62.5912 117.275 50.9353 131.564 45.1257L133.041 45.8885L148.541 53.8885Z" fill="#F4A0A0"/>
<path d="M148.541 53.8885L149.034 54.1427L149.511 53.8597L165.511 44.3597L166.853 43.5629C182.602 48.6505 198.308 61.0379 211.138 78.2475C228.176 101.101 240 132.289 240 165.578C240 198.841 228.197 222.924 211.258 238.696C194.302 254.485 172.139 262 151.348 262C130.554 262 107.71 254.482 90.0759 238.683C72.4678 222.907 60.0056 198.834 60 165.6C61.4951 132.282 73.9938 101.09 91.3303 78.2391C103.202 62.5912 117.275 50.9353 131.564 45.1257L133.041 45.8885L148.541 53.8885Z" stroke="#F57E7E" stroke-width="2"/>
<path d="M148.541 53.8885L149.034 54.1427L149.511 53.8597L165.511 44.3597L166.853 43.5629C182.602 48.6505 198.308 61.0379 211.138 78.2475C228.176 101.101 240 132.289 240 165.578C240 198.841 228.197 222.924 211.258 238.696C194.302 254.485 172.139 262 151.348 262C130.554 262 107.71 254.482 90.0759 238.683C72.4678 222.907 60.0056 198.834 60 165.6C61.4951 132.282 73.9938 101.09 91.3303 78.2391C103.202 62.5912 117.275 50.9353 131.564 45.1257L133.041 45.8885L148.541 53.8885Z" stroke="black" stroke-opacity="0.2" stroke-width="2"/>
<path d="M65.04 192.78L65.4265 194.105L66.5653 193.325L86.4015 179.729L109.263 196.801L109.929 197.299L110.54 196.735L128.834 179.838L148.602 196.76L149.316 197.371L149.97 196.696L166.253 179.888L184.982 196.743L185.574 197.276L186.226 196.818L210.604 179.706L233.956 194.839L235.12 195.594L235.468 194.251C237.626 185.913 237.415 179.484 237.169 172.036C237.086 169.515 237 166.876 237 164.008V163.447L236.52 163.154L211.103 147.646L210.568 147.32L210.042 147.658L185.662 163.305L166.761 150.669L166.165 150.27L165.596 150.706L149.199 163.281L129.345 150.656L128.788 150.302L128.243 150.675L109.806 163.326L86.9116 150.626L86.4405 150.364L85.9632 150.614L62.0368 163.122L61.5112 163.396L61.5003 163.989C61.2875 175.502 61.6279 181.079 65.04 192.78Z" fill="#53B46E"/>
<path d="M65.04 192.78L65.4265 194.105L66.5653 193.325L86.4015 179.729L109.263 196.801L109.929 197.299L110.54 196.735L128.834 179.838L148.602 196.76L149.316 197.371L149.97 196.696L166.253 179.888L184.982 196.743L185.574 197.276L186.226 196.818L210.604 179.706L233.956 194.839L235.12 195.594L235.468 194.251C237.626 185.913 237.415 179.484 237.169 172.036C237.086 169.515 237 166.876 237 164.008V163.447L236.52 163.154L211.103 147.646L210.568 147.32L210.042 147.658L185.662 163.305L166.761 150.669L166.165 150.27L165.596 150.706L149.199 163.281L129.345 150.656L128.788 150.302L128.243 150.675L109.806 163.326L86.9116 150.626L86.4405 150.364L85.9632 150.614L62.0368 163.122L61.5112 163.396L61.5003 163.989C61.2875 175.502 61.6279 181.079 65.04 192.78Z" stroke="#53B46E" stroke-width="2"/>
<path d="M65.04 192.78L65.4265 194.105L66.5653 193.325L86.4015 179.729L109.263 196.801L109.929 197.299L110.54 196.735L128.834 179.838L148.602 196.76L149.316 197.371L149.97 196.696L166.253 179.888L184.982 196.743L185.574 197.276L186.226 196.818L210.604 179.706L233.956 194.839L235.12 195.594L235.468 194.251C237.626 185.913 237.415 179.484 237.169 172.036C237.086 169.515 237 166.876 237 164.008V163.447L236.52 163.154L211.103 147.646L210.568 147.32L210.042 147.658L185.662 163.305L166.761 150.669L166.165 150.27L165.596 150.706L149.199 163.281L129.345 150.656L128.788 150.302L128.243 150.675L109.806 163.326L86.9116 150.626L86.4405 150.364L85.9632 150.614L62.0368 163.122L61.5112 163.396L61.5003 163.989C61.2875 175.502 61.6279 181.079 65.04 192.78Z" stroke="black" stroke-opacity="0.2" stroke-width="2"/>
<path d="M148.576 53.905L149.049 54.1271L149.502 53.8643L165.002 44.8647L166.978 43.7172L164.794 43.0442C158.652 41.1512 153.755 40.1645 148.793 40.3529C143.826 40.5415 138.874 41.9036 132.607 44.5803L130.553 45.4575L132.576 46.4054L148.576 53.905Z" fill="#F2666E"/>
<path d="M148.576 53.905L149.049 54.1271L149.502 53.8643L165.002 44.8647L166.978 43.7172L164.794 43.0442C158.652 41.1512 153.755 40.1645 148.793 40.3529C143.826 40.5415 138.874 41.9036 132.607 44.5803L130.553 45.4575L132.576 46.4054L148.576 53.905Z" stroke="#EC3C47" stroke-width="2"/>
<path d="M148.576 53.905L149.049 54.1271L149.502 53.8643L165.002 44.8647L166.978 43.7172L164.794 43.0442C158.652 41.1512 153.755 40.1645 148.793 40.3529C143.826 40.5415 138.874 41.9036 132.607 44.5803L130.553 45.4575L132.576 46.4054L148.576 53.905Z" stroke="black" stroke-opacity="0.2" stroke-width="2"/>
<path d="M150.913 248.082L150.497 247.902L150.087 248.097L130.071 257.597L127.598 258.77L130.246 259.467C145.184 263.398 157.382 264.7 172.822 259.447L175.278 258.611L172.897 257.582L150.913 248.082Z" fill="#F9C7C7"/>
<path d="M150.913 248.082L150.497 247.902L150.087 248.097L130.071 257.597L127.598 258.77L130.246 259.467C145.184 263.398 157.382 264.7 172.822 259.447L175.278 258.611L172.897 257.582L150.913 248.082Z" stroke="#F9C7C7" stroke-width="2"/>
<path d="M150.913 248.082L150.497 247.902L150.087 248.097L130.071 257.597L127.598 258.77L130.246 259.467C145.184 263.398 157.382 264.7 172.822 259.447L175.278 258.611L172.897 257.582L150.913 248.082Z" stroke="black" stroke-opacity="0.2" stroke-width="2"/>
<path d="M82.7655 230.836L83.2074 231.315L83.8237 231.104L101.4 225.091L125.01 238.372L125.49 238.642L125.975 238.38L150.449 225.164L170.45 238.335L170.949 238.664L171.475 238.38L196.043 225.113L213.594 232.914L214.195 233.181L214.679 232.734C218.027 229.639 220.237 227.228 222.04 224.676C223.84 222.128 225.21 219.473 226.902 215.931L227.196 215.316L226.731 214.818L212.731 199.818L212.181 199.228L211.488 199.641L186.008 214.831L167.024 203.148L166.439 202.788L165.893 203.206L149.453 215.777L130.045 203.162L129.486 202.798L128.936 203.175L110.472 215.808L87.5253 201.649L86.8653 201.242L86.3066 201.78L72.8064 214.78L72.2598 215.306L72.6195 215.974C76.1348 222.502 77.853 225.519 82.7655 230.836Z" fill="#DD6B6B"/>
<path d="M82.7655 230.836L83.2074 231.315L83.8237 231.104L101.4 225.091L125.01 238.372L125.49 238.642L125.975 238.38L150.449 225.164L170.45 238.335L170.949 238.664L171.475 238.38L196.043 225.113L213.594 232.914L214.195 233.181L214.679 232.734C218.027 229.639 220.237 227.228 222.04 224.676C223.84 222.128 225.21 219.473 226.902 215.931L227.196 215.316L226.731 214.818L212.731 199.818L212.181 199.228L211.488 199.641L186.008 214.831L167.024 203.148L166.439 202.788L165.893 203.206L149.453 215.777L130.045 203.162L129.486 202.798L128.936 203.175L110.472 215.808L87.5253 201.649L86.8653 201.242L86.3066 201.78L72.8064 214.78L72.2598 215.306L72.6195 215.974C76.1348 222.502 77.853 225.519 82.7655 230.836Z" stroke="#DD6B6B" stroke-width="2"/>
<path d="M82.7655 230.836L83.2074 231.315L83.8237 231.104L101.4 225.091L125.01 238.372L125.49 238.642L125.975 238.38L150.449 225.164L170.45 238.335L170.949 238.664L171.475 238.38L196.043 225.113L213.594 232.914L214.195 233.181L214.679 232.734C218.027 229.639 220.237 227.228 222.04 224.676C223.84 222.128 225.21 219.473 226.902 215.931L227.196 215.316L226.731 214.818L212.731 199.818L212.181 199.228L211.488 199.641L186.008 214.831L167.024 203.148L166.439 202.788L165.893 203.206L149.453 215.777L130.045 203.162L129.486 202.798L128.936 203.175L110.472 215.808L87.5253 201.649L86.8653 201.242L86.3066 201.78L72.8064 214.78L72.2598 215.306L72.6195 215.974C76.1348 222.502 77.853 225.519 82.7655 230.836Z" stroke="black" stroke-opacity="0.2" stroke-width="2"/>
<path d="M63.0106 140.462L62.7096 142.51L64.5011 141.473L87.4267 128.198L109.397 144.798L110.063 145.301L110.677 144.736L128.518 128.342L147.343 144.754L148.037 145.359L148.697 144.717L165.553 128.343L185.362 144.77L185.93 145.241L186.547 144.837L211.997 128.196L236.449 144.335L238.355 145.593L237.987 143.339L237.889 142.739C235.843 130.221 234.687 123.145 229.403 112.069L229.265 111.78L228.984 111.625L205.484 98.625L204.985 98.3491L204.494 98.6376L182.094 111.785L166.133 98.726L165.518 98.2229L164.889 98.7082L147.966 111.763L132.567 101.176L132.009 100.792L131.445 101.168L115.509 111.792L100.067 101.176L99.6288 100.875L99.1343 101.069L72.1343 111.676L71.8136 111.802L71.6385 112.099C69.5613 115.623 65.0258 126.751 63.0106 140.462Z" fill="#EFAD80"/>
<path d="M63.0106 140.462L62.7096 142.51L64.5011 141.473L87.4267 128.198L109.397 144.798L110.063 145.301L110.677 144.736L128.518 128.342L147.343 144.754L148.037 145.359L148.697 144.717L165.553 128.343L185.362 144.77L185.93 145.241L186.547 144.837L211.997 128.196L236.449 144.335L238.355 145.593L237.987 143.339L237.889 142.739C235.843 130.221 234.687 123.145 229.403 112.069L229.265 111.78L228.984 111.625L205.484 98.625L204.985 98.3491L204.494 98.6376L182.094 111.785L166.133 98.726L165.518 98.2229L164.889 98.7082L147.966 111.763L132.567 101.176L132.009 100.792L131.445 101.168L115.509 111.792L100.067 101.176L99.6288 100.875L99.1343 101.069L72.1343 111.676L71.8136 111.802L71.6385 112.099C69.5613 115.623 65.0258 126.751 63.0106 140.462Z" stroke="#EFAD80" stroke-width="2"/>
<path d="M63.0106 140.462L62.7096 142.51L64.5011 141.473L87.4267 128.198L109.397 144.798L110.063 145.301L110.677 144.736L128.518 128.342L147.343 144.754L148.037 145.359L148.697 144.717L165.553 128.343L185.362 144.77L185.93 145.241L186.547 144.837L211.997 128.196L236.449 144.335L238.355 145.593L237.987 143.339L237.889 142.739C235.843 130.221 234.687 123.145 229.403 112.069L229.265 111.78L228.984 111.625L205.484 98.625L204.985 98.3491L204.494 98.6376L182.094 111.785L166.133 98.726L165.518 98.2229L164.889 98.7082L147.966 111.763L132.567 101.176L132.009 100.792L131.445 101.168L115.509 111.792L100.067 101.176L99.6288 100.875L99.1343 101.069L72.1343 111.676L71.8136 111.802L71.6385 112.099C69.5613 115.623 65.0258 126.751 63.0106 140.462Z" stroke="black" stroke-opacity="0.2" stroke-width="2"/>
<path d="M100.049 68.1098L99.3965 67.8108L98.9044 68.333C92.5141 75.1147 84.1695 84.9148 80.5938 92.5771L79.0268 95.9349L82.0704 93.8214L99.3841 81.7981L113.793 96.2071L114.457 96.8714L115.162 96.2498L131.528 81.8095L149.37 96.2768L150.07 96.8442L150.707 96.2071L165.053 81.8619L181.849 96.2593L182.497 96.8143L183.147 96.2625L199.102 82.7249L219.989 95.1735L222.951 96.9392L221.393 93.8626C215.096 81.4326 210.715 74.8211 199.146 65.0505L198.587 64.5784L197.968 64.9683L185.502 72.8171L165.536 60.1555L164.928 59.7701L164.37 60.2239L148.942 72.7591L130.055 60.1679L129.493 59.7933L128.936 60.1747L110.403 72.8552L100.049 68.1098Z" fill="#EDF3D4"/>
<path d="M100.049 68.1098L99.3965 67.8108L98.9044 68.333C92.5141 75.1147 84.1695 84.9148 80.5938 92.5771L79.0268 95.9349L82.0704 93.8214L99.3841 81.7981L113.793 96.2071L114.457 96.8714L115.162 96.2498L131.528 81.8095L149.37 96.2768L150.07 96.8442L150.707 96.2071L165.053 81.8619L181.849 96.2593L182.497 96.8143L183.147 96.2625L199.102 82.7249L219.989 95.1735L222.951 96.9392L221.393 93.8626C215.096 81.4326 210.715 74.8211 199.146 65.0505L198.587 64.5784L197.968 64.9683L185.502 72.8171L165.536 60.1555L164.928 59.7701L164.37 60.2239L148.942 72.7591L130.055 60.1679L129.493 59.7933L128.936 60.1747L110.403 72.8552L100.049 68.1098Z" stroke="#CCFF00" stroke-width="2"/>
<path d="M100.049 68.1098L99.3965 67.8108L98.9044 68.333C92.5141 75.1147 84.1695 84.9148 80.5938 92.5771L79.0268 95.9349L82.0704 93.8214L99.3841 81.7981L113.793 96.2071L114.457 96.8714L115.162 96.2498L131.528 81.8095L149.37 96.2768L150.07 96.8442L150.707 96.2071L165.053 81.8619L181.849 96.2593L182.497 96.8143L183.147 96.2625L199.102 82.7249L219.989 95.1735L222.951 96.9392L221.393 93.8626C215.096 81.4326 210.715 74.8211 199.146 65.0505L198.587 64.5784L197.968 64.9683L185.502 72.8171L165.536 60.1555L164.928 59.7701L164.37 60.2239L148.942 72.7591L130.055 60.1679L129.493 59.7933L128.936 60.1747L110.403 72.8552L100.049 68.1098Z" stroke="black" stroke-opacity="0.2" stroke-width="2"/>
<path d="M100.001 81L79 95.5L70.5 114L100.001 102.5L115.001 113.5L132.001 102.5L149.501 113.5L164.501 99.5L182.001 113.5L204.501 99.5L230 112.5L227 105L222.5 96L199.001 81L182.001 95.5L164.501 81L149.501 95.5L132.001 81L115.001 95.5L100.001 81Z" fill="#CA93F7"/>
<path d="M100.001 81L79 95.5L70.5 114L100.001 102.5L115.001 113.5L132.001 102.5L149.501 113.5L164.501 99.5L182.001 113.5L204.501 99.5L230 112.5L227 105L222.5 96L199.001 81L182.001 95.5L164.501 81L149.501 95.5L132.001 81L115.001 95.5L100.001 81Z" stroke="#CA93F6" stroke-width="2"/>
<path d="M100.001 81L79 95.5L70.5 114L100.001 102.5L115.001 113.5L132.001 102.5L149.501 113.5L164.501 99.5L182.001 113.5L204.501 99.5L230 112.5L227 105L222.5 96L199.001 81L182.001 95.5L164.501 81L149.501 95.5L132.001 81L115.001 95.5L100.001 81Z" stroke="black" stroke-opacity="0.2" stroke-width="2"/>
<path d="M86.7055 179L63.5 193.5C65.5175 203 69 210.5 72 215.5L86.7055 203L110.167 217L129.365 204.138L149.127 217L166.067 204.138L185.829 217L211.238 200.631L227 215.5C231.389 207.873 232 201 233.5 193.5L211.238 179L185.829 195.954L166.067 179L149.127 195.954L129.365 179L110.167 195.954L86.7055 179Z" fill="#7DEFBA"/>
<path d="M86.7055 179L63.5 193.5C65.5175 203 69 210.5 72 215.5L86.7055 203L110.167 217L129.365 204.138L149.127 217L166.067 204.138L185.829 217L211.238 200.631L227 215.5C231.389 207.873 232 201 233.5 193.5L211.238 179L185.829 195.954L166.067 179L149.127 195.954L129.365 179L110.167 195.954L86.7055 179Z" stroke="#7DEFBA" stroke-width="2"/>
<path d="M86.7055 179L63.5 193.5C65.5175 203 69 210.5 72 215.5L86.7055 203L110.167 217L129.365 204.138L149.127 217L166.067 204.138L185.829 217L211.238 200.631L227 215.5C231.389 207.873 232 201 233.5 193.5L211.238 179L185.829 195.954L166.067 179L149.127 195.954L129.365 179L110.167 195.954L86.7055 179Z" stroke="black" stroke-opacity="0.2" stroke-width="2"/>
<path d="M148.88 53.038L133 44.9995C128.5 44.4995 108 57.4995 98.5 68.9995L110.258 74.0841L129.289 61.2226L148.88 74.0841L165.673 61.2226L185.264 74.0841L200 65.4995C200.719 64.5943 174.724 42.6164 165 43.4995L148.88 53.038Z" fill="#EB94ED"/>
<path d="M148.88 53.038L133 44.9995C128.5 44.4995 108 57.4995 98.5 68.9995L110.258 74.0841L129.289 61.2226L148.88 74.0841L165.673 61.2226L185.264 74.0841L200 65.4995C200.719 64.5943 174.724 42.6164 165 43.4995L148.88 53.038Z" stroke="#EB94ED" stroke-width="2"/>
<path d="M148.88 53.038L133 44.9995C128.5 44.4995 108 57.4995 98.5 68.9995L110.258 74.0841L129.289 61.2226L148.88 74.0841L165.673 61.2226L185.264 74.0841L200 65.4995C200.719 64.5943 174.724 42.6164 165 43.4995L148.88 53.038Z" stroke="black" stroke-opacity="0.2" stroke-width="2"/>
<path d="M238.502 165.487L238.5 165.532V165.578C238.5 198.464 226.88 222.395 210.296 238.113C193.671 253.87 171.924 261.5 151.5 261.5C110.61 261.5 61.5091 231.018 61.5 165.596C61.996 131.864 73.9217 100.734 90.8619 78.0689C107.869 55.3153 129.59 41.5 149.5 41.5C169.455 41.5 192.305 55.2405 209.981 77.9215C227.591 100.517 239.728 131.595 238.502 165.487Z" stroke="#F4A0A0" stroke-width="5"/>
<path d="M238.502 165.487L238.5 165.532V165.578C238.5 198.464 226.88 222.395 210.296 238.113C193.671 253.87 171.924 261.5 151.5 261.5C110.61 261.5 61.5091 231.018 61.5 165.596C61.996 131.864 73.9217 100.734 90.8619 78.0689C107.869 55.3153 129.59 41.5 149.5 41.5C169.455 41.5 192.305 55.2405 209.981 77.9215C227.591 100.517 239.728 131.595 238.502 165.487Z" stroke="black" stroke-opacity="0.2" stroke-width="5"/>
</svg>
