<svg width="300" height="300" viewBox="0 0 300 300" fill="none" xmlns="http://www.w3.org/2000/svg">
<path d="M189 254.128C224.7 178.302 222.617 134.362 189 54.1279L187.005 51.8213C216.933 72.8202 242 117.364 242 166.392C242 216.721 215.973 246.483 185 258.625L189 254.128Z" fill="#9FF1FF"/>
<path d="M189 254.128C224.7 178.302 222.617 134.362 189 54.1279L187.005 51.8213C216.933 72.8202 242 117.364 242 166.392C242 216.721 215.973 246.483 185 258.625L189 254.128Z" stroke="#9FF1FF"/>
<path d="M189 254.128C224.7 178.302 222.617 134.362 189 54.1279L187.005 51.8213C216.933 72.8202 242 117.364 242 166.392C242 216.721 215.973 246.483 185 258.625L189 254.128Z" stroke="black" stroke-opacity="0.2"/>
<path d="M117.819 258.868C86.0043 246.765 58 216.805 58 166.392C58 118.431 83.3451 74.7626 113.204 53.2266L112 55.1276C78.3825 135.362 76.2998 179.302 112 255.128L117.819 258.868Z" fill="#FEF4AD"/>
<path d="M117.819 258.868C86.0043 246.765 58 216.805 58 166.392C58 118.431 83.3451 74.7626 113.204 53.2266L112 55.1276C78.3825 135.362 76.2998 179.302 112 255.128L117.819 258.868Z" stroke="#FEF4AD"/>
<path d="M117.819 258.868C86.0043 246.765 58 216.805 58 166.392C58 118.431 83.3451 74.7626 113.204 53.2266L112 55.1276C78.3825 135.362 76.2998 179.302 112 255.128L117.819 258.868Z" stroke="black" stroke-opacity="0.2"/>
<path d="M156.999 40.5543L160 40.001C155.5 39.0005 154.202 39.0005 151.999 39.0005C147.685 39.0005 143.512 38.1689 137.999 42.5005L143.5 40.5543C109.882 130.016 108.299 180.009 143.999 264.554L139 264.001C143.513 264.668 148.6 265.001 153 265.001C156.447 265.001 158.092 264.784 161 264.501L156.999 263.554C192.7 179.009 190.617 130.016 156.999 40.5543Z" fill="#FFCBF2"/>
<path d="M156.999 40.5543L160 40.001C155.5 39.0005 154.202 39.0005 151.999 39.0005C147.685 39.0005 143.512 38.1689 137.999 42.5005L143.5 40.5543C109.882 130.016 108.299 180.009 143.999 264.554L139 264.001C143.513 264.668 148.6 265.001 153 265.001C156.447 265.001 158.092 264.784 161 264.501L156.999 263.554C192.7 179.009 190.617 130.016 156.999 40.5543Z" stroke="#FFCBF2"/>
<path d="M156.999 40.5543L160 40.001C155.5 39.0005 154.202 39.0005 151.999 39.0005C147.685 39.0005 143.512 38.1689 137.999 42.5005L143.5 40.5543C109.882 130.016 108.299 180.009 143.999 264.554L139 264.001C143.513 264.668 148.6 265.001 153 265.001C156.447 265.001 158.092 264.784 161 264.501L156.999 263.554C192.7 179.009 190.617 130.016 156.999 40.5543Z" stroke="black" stroke-opacity="0.2"/>
<path d="M189 54.1276C222.617 134.362 224.7 178.302 189 254.128L184.613 258.807C176.602 261.948 168.287 263.897 160.044 264.7L155.5 265.126C191.2 180.58 188.617 128.586 155 39.125L158.01 39.5957C167.737 40.9579 177.611 45.2295 187.005 51.821L189 54.1276Z" fill="#CCAFFF"/>
<path d="M189 54.1276C222.617 134.362 224.7 178.302 189 254.128L184.613 258.807C176.602 261.948 168.287 263.897 160.044 264.7L155.5 265.126C191.2 180.58 188.617 128.586 155 39.125L158.01 39.5957C167.737 40.9579 177.611 45.2295 187.005 51.821L189 54.1276Z" stroke="#CCAFFF"/>
<path d="M189 54.1276C222.617 134.362 224.7 178.302 189 254.128L184.613 258.807C176.602 261.948 168.287 263.897 160.044 264.7L155.5 265.126C191.2 180.58 188.617 128.586 155 39.125L158.01 39.5957C167.737 40.9579 177.611 45.2295 187.005 51.821L189 54.1276Z" stroke="black" stroke-opacity="0.2"/>
<path d="M113.204 53.2264C121.349 47.3517 129.83 43.124 138.224 40.9053L143.5 39.624C109.883 129.085 107.8 180.08 143.5 264.626L137.96 264.127C131.227 263.132 124.44 261.387 117.819 258.868L112 255.127C76.2998 179.302 78.3825 135.362 112 55.1274L113.204 53.2264Z" fill="#FFB3B5"/>
<path d="M113.204 53.2264C121.349 47.3517 129.83 43.124 138.224 40.9053L143.5 39.624C109.883 129.085 107.8 180.08 143.5 264.626L137.96 264.127C131.227 263.132 124.44 261.387 117.819 258.868L112 255.127C76.2998 179.302 78.3825 135.362 112 55.1274L113.204 53.2264Z" stroke="#FFB3B5"/>
<path d="M113.204 53.2264C121.349 47.3517 129.83 43.124 138.224 40.9053L143.5 39.624C109.883 129.085 107.8 180.08 143.5 264.626L137.96 264.127C131.227 263.132 124.44 261.387 117.819 258.868L112 255.127C76.2998 179.302 78.3825 135.362 112 55.1274L113.204 53.2264Z" stroke="black" stroke-opacity="0.2"/>
<path d="M174.5 150.625C174.5 160.014 166.889 167.625 157.5 167.625C148.111 167.625 140.5 160.014 140.5 150.625C140.5 141.236 148.111 133.625 157.5 133.625C166.889 133.625 174.5 141.236 174.5 150.625Z" fill="#FFEF00" stroke="#FFEF00"/>
<path d="M118.952 78.089C112.108 75.9604 103.386 79.9111 102.937 86.9772C102.78 89.4513 104.438 93.1496 104.438 93.1496C104.438 93.1496 100.37 94.5298 98.933 96.6061C95.4718 101.607 102.312 108.656 108.442 108.951C111.561 109.101 115.949 106.235 115.949 106.235C115.949 106.235 117.621 108.092 118.952 108.951C123.451 111.854 128.217 111.854 132.716 108.951C134.047 108.092 135.719 106.235 135.719 106.235C135.719 106.235 137.642 108.233 139.222 108.951C143.909 111.081 149.407 109.299 151.734 104.754C152.418 103.418 152.735 101.05 152.735 101.05C152.735 101.05 159.693 99.9179 161.744 96.6061C164.791 91.6851 162.008 84.6757 156.489 82.78C152.814 81.5181 146.729 84.7552 146.729 84.7552C146.729 84.7552 144.957 81.1092 142.976 79.5704C138.598 76.1716 133.304 76.4592 128.712 79.5704C127.231 80.5739 125.459 82.78 125.459 82.78C125.459 82.78 121.954 79.0225 118.952 78.089Z" fill="#FFF0AB" stroke="#F3B000"/>
<path d="M237.104 126.978C234.442 129.703 230.284 130.548 226.596 128.903C225.034 128.207 223.118 126.236 223.118 126.236C223.118 126.236 221.504 128.116 220.209 128.994C215.835 131.959 211.156 132.025 206.7 129.186C205.381 128.345 203.714 126.512 203.714 126.512C203.714 126.512 199.447 129.439 196.384 129.332C190.362 129.123 183.548 122.169 186.874 117.121C188.256 115.025 192.229 113.588 192.229 113.588C192.229 113.588 190.548 109.913 190.668 107.437C191.008 100.366 199.514 96.2938 206.262 98.3269C209.221 99.2184 212.714 102.927 212.714 102.927C212.714 102.927 214.423 100.696 215.862 99.6721C218.928 97.4909 222.339 96.6376 225.582 97.3993C230.287 106.568 234.212 116.506 237.104 126.978Z" fill="#C55792"/>
<path d="M237.104 126.978C234.442 129.703 230.284 130.548 226.596 128.903C225.034 128.207 223.118 126.236 223.118 126.236C223.118 126.236 221.504 128.116 220.209 128.994C215.835 131.959 211.156 132.025 206.7 129.186C205.381 128.345 203.714 126.512 203.714 126.512C203.714 126.512 199.447 129.439 196.384 129.332C190.362 129.123 183.548 122.169 186.874 117.121C188.256 115.025 192.229 113.588 192.229 113.588C192.229 113.588 190.548 109.913 190.668 107.437C191.008 100.366 199.514 96.2938 206.262 98.3269C209.221 99.2184 212.714 102.927 212.714 102.927C212.714 102.927 214.423 100.696 215.862 99.6721C218.928 97.4909 222.339 96.6376 225.582 97.3993C230.287 106.568 234.212 116.506 237.104 126.978Z" stroke="#C55792"/>
<path d="M237.104 126.978C234.442 129.703 230.284 130.548 226.596 128.903C225.034 128.207 223.118 126.236 223.118 126.236C223.118 126.236 221.504 128.116 220.209 128.994C215.835 131.959 211.156 132.025 206.7 129.186C205.381 128.345 203.714 126.512 203.714 126.512C203.714 126.512 199.447 129.439 196.384 129.332C190.362 129.123 183.548 122.169 186.874 117.121C188.256 115.025 192.229 113.588 192.229 113.588C192.229 113.588 190.548 109.913 190.668 107.437C191.008 100.366 199.514 96.2938 206.262 98.3269C209.221 99.2184 212.714 102.927 212.714 102.927C212.714 102.927 214.423 100.696 215.862 99.6721C218.928 97.4909 222.339 96.6376 225.582 97.3993C230.287 106.568 234.212 116.506 237.104 126.978Z" stroke="black" stroke-opacity="0.2"/>
<path d="M189.952 176.089C183.108 173.96 174.386 177.911 173.937 184.977C173.78 187.451 175.438 191.15 175.438 191.15C175.438 191.15 171.37 192.53 169.933 194.606C166.472 199.607 173.312 206.656 179.442 206.951C182.561 207.101 186.949 204.235 186.949 204.235C186.949 204.235 188.621 206.092 189.952 206.951C194.451 209.854 199.217 209.854 203.716 206.951C205.047 206.092 206.719 204.235 206.719 204.235C206.719 204.235 208.642 206.233 210.222 206.951C214.909 209.081 220.407 207.299 222.734 202.754C223.418 201.418 223.735 199.05 223.735 199.05C223.735 199.05 230.693 197.918 232.744 194.606C235.791 189.685 233.008 182.676 227.489 180.78C223.814 179.518 217.729 182.755 217.729 182.755C217.729 182.755 215.957 179.109 213.976 177.57C209.598 174.172 204.304 174.459 199.712 177.57C198.231 178.574 196.459 180.78 196.459 180.78C196.459 180.78 192.954 177.023 189.952 176.089Z" fill="#F75252"/>
<path d="M189.952 176.089C183.108 173.96 174.386 177.911 173.937 184.977C173.78 187.451 175.438 191.15 175.438 191.15C175.438 191.15 171.37 192.53 169.933 194.606C166.472 199.607 173.312 206.656 179.442 206.951C182.561 207.101 186.949 204.235 186.949 204.235C186.949 204.235 188.621 206.092 189.952 206.951C194.451 209.854 199.217 209.854 203.716 206.951C205.047 206.092 206.719 204.235 206.719 204.235C206.719 204.235 208.642 206.233 210.222 206.951C214.909 209.081 220.407 207.299 222.734 202.754C223.418 201.418 223.735 199.05 223.735 199.05C223.735 199.05 230.693 197.918 232.744 194.606C235.791 189.685 233.008 182.676 227.489 180.78C223.814 179.518 217.729 182.755 217.729 182.755C217.729 182.755 215.957 179.109 213.976 177.57C209.598 174.172 204.304 174.459 199.712 177.57C198.231 178.574 196.459 180.78 196.459 180.78C196.459 180.78 192.954 177.023 189.952 176.089Z" stroke="#EC1616"/>
<path d="M189.952 176.089C183.108 173.96 174.386 177.911 173.937 184.977C173.78 187.451 175.438 191.15 175.438 191.15C175.438 191.15 171.37 192.53 169.933 194.606C166.472 199.607 173.312 206.656 179.442 206.951C182.561 207.101 186.949 204.235 186.949 204.235C186.949 204.235 188.621 206.092 189.952 206.951C194.451 209.854 199.217 209.854 203.716 206.951C205.047 206.092 206.719 204.235 206.719 204.235C206.719 204.235 208.642 206.233 210.222 206.951C214.909 209.081 220.407 207.299 222.734 202.754C223.418 201.418 223.735 199.05 223.735 199.05C223.735 199.05 230.693 197.918 232.744 194.606C235.791 189.685 233.008 182.676 227.489 180.78C223.814 179.518 217.729 182.755 217.729 182.755C217.729 182.755 215.957 179.109 213.976 177.57C209.598 174.172 204.304 174.459 199.712 177.57C198.231 178.574 196.459 180.78 196.459 180.78C196.459 180.78 192.954 177.023 189.952 176.089Z" stroke="black" stroke-opacity="0.2"/>
<path d="M119.505 205.806C114.767 204.304 108.729 207.093 108.418 212.08C108.309 213.827 109.457 216.437 109.457 216.437C109.457 216.437 106.641 217.412 105.646 218.877C103.25 222.407 107.985 227.383 112.229 227.591C114.388 227.697 117.427 225.674 117.427 225.674C117.427 225.674 118.584 226.985 119.505 227.591C122.62 229.64 125.92 229.64 129.034 227.591C129.956 226.985 131.113 225.674 131.113 225.674C131.113 225.674 132.444 227.084 133.538 227.591C136.783 229.095 140.589 227.837 142.2 224.628C142.674 223.685 142.893 222.014 142.893 222.014C142.893 222.014 147.711 221.215 149.13 218.877C151.24 215.404 149.314 210.456 145.492 209.118C142.948 208.227 138.736 210.512 138.736 210.512C138.736 210.512 137.509 207.938 136.137 206.852C133.106 204.453 129.441 204.656 126.262 206.852C125.237 207.56 124.01 209.118 124.01 209.118C124.01 209.118 121.583 206.465 119.505 205.806Z" fill="#ED6EF0"/>
<path d="M119.505 205.806C114.767 204.304 108.729 207.093 108.418 212.08C108.309 213.827 109.457 216.437 109.457 216.437C109.457 216.437 106.641 217.412 105.646 218.877C103.25 222.407 107.985 227.383 112.229 227.591C114.388 227.697 117.427 225.674 117.427 225.674C117.427 225.674 118.584 226.985 119.505 227.591C122.62 229.64 125.92 229.64 129.034 227.591C129.956 226.985 131.113 225.674 131.113 225.674C131.113 225.674 132.444 227.084 133.538 227.591C136.783 229.095 140.589 227.837 142.2 224.628C142.674 223.685 142.893 222.014 142.893 222.014C142.893 222.014 147.711 221.215 149.13 218.877C151.24 215.404 149.314 210.456 145.492 209.118C142.948 208.227 138.736 210.512 138.736 210.512C138.736 210.512 137.509 207.938 136.137 206.852C133.106 204.453 129.441 204.656 126.262 206.852C125.237 207.56 124.01 209.118 124.01 209.118C124.01 209.118 121.583 206.465 119.505 205.806Z" stroke="#E347E7"/>
<path d="M119.505 205.806C114.767 204.304 108.729 207.093 108.418 212.08C108.309 213.827 109.457 216.437 109.457 216.437C109.457 216.437 106.641 217.412 105.646 218.877C103.25 222.407 107.985 227.383 112.229 227.591C114.388 227.697 117.427 225.674 117.427 225.674C117.427 225.674 118.584 226.985 119.505 227.591C122.62 229.64 125.92 229.64 129.034 227.591C129.956 226.985 131.113 225.674 131.113 225.674C131.113 225.674 132.444 227.084 133.538 227.591C136.783 229.095 140.589 227.837 142.2 224.628C142.674 223.685 142.893 222.014 142.893 222.014C142.893 222.014 147.711 221.215 149.13 218.877C151.24 215.404 149.314 210.456 145.492 209.118C142.948 208.227 138.736 210.512 138.736 210.512C138.736 210.512 137.509 207.938 136.137 206.852C133.106 204.453 129.441 204.656 126.262 206.852C125.237 207.56 124.01 209.118 124.01 209.118C124.01 209.118 121.583 206.465 119.505 205.806Z" stroke="black" stroke-opacity="0.2"/>
<path d="M217.51 236.285C210.313 244.186 201.947 250.408 192.995 255.018C191.819 254.818 190.65 254.342 189.505 253.589C188.584 252.983 187.427 251.672 187.427 251.672C187.427 251.672 184.388 253.695 182.229 253.589C177.985 253.381 173.25 248.405 175.646 244.875C176.641 243.41 179.457 242.435 179.457 242.435C179.457 242.435 178.309 239.825 178.418 238.078C178.729 233.091 184.767 230.302 189.505 231.804C191.583 232.463 194.01 235.116 194.01 235.116C194.01 235.116 195.237 233.558 196.262 232.85C199.441 230.654 203.106 230.451 206.137 232.85C207.509 233.936 208.736 236.51 208.736 236.51C208.736 236.51 212.948 234.225 215.492 235.116C216.243 235.379 216.921 235.781 217.51 236.285Z" fill="#CCFF00"/>
<path d="M217.51 236.285C210.313 244.186 201.947 250.408 192.995 255.018C191.819 254.818 190.65 254.342 189.505 253.589C188.584 252.983 187.427 251.672 187.427 251.672C187.427 251.672 184.388 253.695 182.229 253.589C177.985 253.381 173.25 248.405 175.646 244.875C176.641 243.41 179.457 242.435 179.457 242.435C179.457 242.435 178.309 239.825 178.418 238.078C178.729 233.091 184.767 230.302 189.505 231.804C191.583 232.463 194.01 235.116 194.01 235.116C194.01 235.116 195.237 233.558 196.262 232.85C199.441 230.654 203.106 230.451 206.137 232.85C207.509 233.936 208.736 236.51 208.736 236.51C208.736 236.51 212.948 234.225 215.492 235.116C216.243 235.379 216.921 235.781 217.51 236.285Z" stroke="#CCFF00"/>
<path d="M217.51 236.285C210.313 244.186 201.947 250.408 192.995 255.018C191.819 254.818 190.65 254.342 189.505 253.589C188.584 252.983 187.427 251.672 187.427 251.672C187.427 251.672 184.388 253.695 182.229 253.589C177.985 253.381 173.25 248.405 175.646 244.875C176.641 243.41 179.457 242.435 179.457 242.435C179.457 242.435 178.309 239.825 178.418 238.078C178.729 233.091 184.767 230.302 189.505 231.804C191.583 232.463 194.01 235.116 194.01 235.116C194.01 235.116 195.237 233.558 196.262 232.85C199.441 230.654 203.106 230.451 206.137 232.85C207.509 233.936 208.736 236.51 208.736 236.51C208.736 236.51 212.948 234.225 215.492 235.116C216.243 235.379 216.921 235.781 217.51 236.285Z" stroke="black" stroke-opacity="0.2"/>
<path d="M180.013 46.5026C185.513 49.5709 190.903 53.5128 196.051 58.2022C195.484 58.3421 195.1 58.4023 195.1 58.4023C195.1 58.4023 194.903 59.8093 194.495 60.6007C193.11 63.2932 189.882 64.3266 187.148 63.0356C186.226 62.6004 185.11 61.4024 185.11 61.4024C185.11 61.4024 184.122 62.4987 183.338 63.0032C180.69 64.7079 177.898 64.6841 175.279 62.9347C174.504 62.4169 173.535 61.3039 173.535 61.3039C173.535 61.3039 170.951 62.9873 169.125 62.8824C165.537 62.6763 161.568 58.4482 163.62 55.4904C164.472 54.2622 166.861 53.4613 166.861 53.4613C166.861 53.4613 165.908 51.2526 166.013 49.7814C166.312 45.5796 171.439 43.2724 175.435 44.573C177.188 45.1433 179.221 47.3964 179.221 47.3964C179.221 47.3964 179.56 46.9747 180.013 46.5026Z" fill="#BEFFBE"/>
<path d="M180.013 46.5026C185.513 49.5709 190.903 53.5128 196.051 58.2022C195.484 58.3421 195.1 58.4023 195.1 58.4023C195.1 58.4023 194.903 59.8093 194.495 60.6007C193.11 63.2932 189.882 64.3266 187.148 63.0356C186.226 62.6004 185.11 61.4024 185.11 61.4024C185.11 61.4024 184.122 62.4987 183.338 63.0032C180.69 64.7079 177.898 64.6841 175.279 62.9347C174.504 62.4169 173.535 61.3039 173.535 61.3039C173.535 61.3039 170.951 62.9873 169.125 62.8824C165.537 62.6763 161.568 58.4482 163.62 55.4904C164.472 54.2622 166.861 53.4613 166.861 53.4613C166.861 53.4613 165.908 51.2526 166.013 49.7814C166.312 45.5796 171.439 43.2724 175.435 44.573C177.188 45.1433 179.221 47.3964 179.221 47.3964C179.221 47.3964 179.56 46.9747 180.013 46.5026Z" fill="black" fill-opacity="0.2"/>
<path d="M85.1172 121.863C79.8526 120.235 73.1433 123.256 72.7976 128.66C72.6766 130.552 73.9526 133.38 73.9526 133.38C73.9526 133.38 70.8232 134.435 69.7177 136.023C67.0553 139.847 72.3171 145.237 77.0325 145.463C79.4316 145.578 82.8073 143.386 82.8073 143.386C82.8073 143.386 84.0931 144.806 85.1172 145.463C88.5773 147.683 92.2442 147.683 95.7043 145.463C96.7284 144.806 98.0142 143.386 98.0142 143.386C98.0142 143.386 99.4935 144.914 100.709 145.463C104.315 147.092 108.544 145.729 110.334 142.253C110.86 141.232 111.104 139.421 111.104 139.421C111.104 139.421 116.456 138.556 118.034 136.023C120.377 132.26 118.237 126.9 113.991 125.45C111.165 124.485 106.484 126.961 106.484 126.961C106.484 126.961 105.121 124.172 103.597 122.996C100.229 120.397 96.1566 120.617 92.6244 122.996C91.4852 123.763 90.122 125.45 90.122 125.45C90.122 125.45 87.426 122.577 85.1172 121.863Z" fill="#CBAEFE"/>
<path d="M85.1172 121.863C79.8526 120.235 73.1433 123.256 72.7976 128.66C72.6766 130.552 73.9526 133.38 73.9526 133.38C73.9526 133.38 70.8232 134.435 69.7177 136.023C67.0553 139.847 72.3171 145.237 77.0325 145.463C79.4316 145.578 82.8073 143.386 82.8073 143.386C82.8073 143.386 84.0931 144.806 85.1172 145.463C88.5773 147.683 92.2442 147.683 95.7043 145.463C96.7284 144.806 98.0142 143.386 98.0142 143.386C98.0142 143.386 99.4935 144.914 100.709 145.463C104.315 147.092 108.544 145.729 110.334 142.253C110.86 141.232 111.104 139.421 111.104 139.421C111.104 139.421 116.456 138.556 118.034 136.023C120.377 132.26 118.237 126.9 113.991 125.45C111.165 124.485 106.484 126.961 106.484 126.961C106.484 126.961 105.121 124.172 103.597 122.996C100.229 120.397 96.1566 120.617 92.6244 122.996C91.4852 123.763 90.122 125.45 90.122 125.45C90.122 125.45 87.426 122.577 85.1172 121.863Z" stroke="#CBAEFE"/>
<path d="M85.1172 121.863C79.8526 120.235 73.1433 123.256 72.7976 128.66C72.6766 130.552 73.9526 133.38 73.9526 133.38C73.9526 133.38 70.8232 134.435 69.7177 136.023C67.0553 139.847 72.3171 145.237 77.0325 145.463C79.4316 145.578 82.8073 143.386 82.8073 143.386C82.8073 143.386 84.0931 144.806 85.1172 145.463C88.5773 147.683 92.2442 147.683 95.7043 145.463C96.7284 144.806 98.0142 143.386 98.0142 143.386C98.0142 143.386 99.4935 144.914 100.709 145.463C104.315 147.092 108.544 145.729 110.334 142.253C110.86 141.232 111.104 139.421 111.104 139.421C111.104 139.421 116.456 138.556 118.034 136.023C120.377 132.26 118.237 126.9 113.991 125.45C111.165 124.485 106.484 126.961 106.484 126.961C106.484 126.961 105.121 124.172 103.597 122.996C100.229 120.397 96.1566 120.617 92.6244 122.996C91.4852 123.763 90.122 125.45 90.122 125.45C90.122 125.45 87.426 122.577 85.1172 121.863Z" stroke="black" stroke-opacity="0.2"/>
<path d="M141.117 147.863C135.853 146.235 129.143 149.256 128.798 154.66C128.677 156.552 129.953 159.38 129.953 159.38C129.953 159.38 126.823 160.435 125.718 162.023C123.055 165.847 128.317 171.237 133.032 171.463C135.432 171.578 138.807 169.386 138.807 169.386C138.807 169.386 140.093 170.806 141.117 171.463C144.577 173.683 148.244 173.683 151.704 171.463C152.728 170.806 154.014 169.386 154.014 169.386C154.014 169.386 155.494 170.914 156.709 171.463C160.315 173.092 164.544 171.729 166.334 168.253C166.86 167.232 167.104 165.421 167.104 165.421C167.104 165.421 172.456 164.556 174.034 162.023C176.377 158.26 174.237 152.9 169.991 151.45C167.165 150.485 162.484 152.961 162.484 152.961C162.484 152.961 161.121 150.172 159.597 148.996C156.229 146.397 152.157 146.617 148.624 148.996C147.485 149.763 146.122 151.45 146.122 151.45C146.122 151.45 143.426 148.577 141.117 147.863Z" fill="#1FF6D0"/>
<path d="M141.117 147.863C135.853 146.235 129.143 149.256 128.798 154.66C128.677 156.552 129.953 159.38 129.953 159.38C129.953 159.38 126.823 160.435 125.718 162.023C123.055 165.847 128.317 171.237 133.032 171.463C135.432 171.578 138.807 169.386 138.807 169.386C138.807 169.386 140.093 170.806 141.117 171.463C144.577 173.683 148.244 173.683 151.704 171.463C152.728 170.806 154.014 169.386 154.014 169.386C154.014 169.386 155.494 170.914 156.709 171.463C160.315 173.092 164.544 171.729 166.334 168.253C166.86 167.232 167.104 165.421 167.104 165.421C167.104 165.421 172.456 164.556 174.034 162.023C176.377 158.26 174.237 152.9 169.991 151.45C167.165 150.485 162.484 152.961 162.484 152.961C162.484 152.961 161.121 150.172 159.597 148.996C156.229 146.397 152.157 146.617 148.624 148.996C147.485 149.763 146.122 151.45 146.122 151.45C146.122 151.45 143.426 148.577 141.117 147.863Z" stroke="#1FF6D0"/>
<path d="M141.117 147.863C135.853 146.235 129.143 149.256 128.798 154.66C128.677 156.552 129.953 159.38 129.953 159.38C129.953 159.38 126.823 160.435 125.718 162.023C123.055 165.847 128.317 171.237 133.032 171.463C135.432 171.578 138.807 169.386 138.807 169.386C138.807 169.386 140.093 170.806 141.117 171.463C144.577 173.683 148.244 173.683 151.704 171.463C152.728 170.806 154.014 169.386 154.014 169.386C154.014 169.386 155.494 170.914 156.709 171.463C160.315 173.092 164.544 171.729 166.334 168.253C166.86 167.232 167.104 165.421 167.104 165.421C167.104 165.421 172.456 164.556 174.034 162.023C176.377 158.26 174.237 152.9 169.991 151.45C167.165 150.485 162.484 152.961 162.484 152.961C162.484 152.961 161.121 150.172 159.597 148.996C156.229 146.397 152.157 146.617 148.624 148.996C147.485 149.763 146.122 151.45 146.122 151.45C146.122 151.45 143.426 148.577 141.117 147.863Z" stroke="black" stroke-opacity="0.2"/>
<path d="M63.562 202.074C60.8454 194.349 59.4301 185.936 58.5 176.628C58.9732 176.701 58.9406 176.716 59.3968 176.863C61.6184 177.577 64.2127 180.45 64.2127 180.45C64.2127 180.45 65.5244 178.763 66.6206 177.996C70.0194 175.617 73.9384 175.397 77.1785 177.996C78.6455 179.172 79.9569 181.961 79.9569 181.961C79.9569 181.961 84.461 179.485 87.1807 180.45C91.2665 181.9 93.3258 187.26 91.0705 191.023C89.5527 193.556 84.4023 194.421 84.4023 194.421C84.4023 194.421 84.1678 196.232 83.6614 197.253C81.9388 200.729 77.8697 202.092 74.4001 200.463C73.2304 199.914 71.8069 198.386 71.8069 198.386C71.8069 198.386 70.5697 199.806 69.5842 200.463C67.6188 201.773 65.5842 202.31 63.562 202.074Z" fill="#25AE4B"/>
<path d="M63.562 202.074C60.8454 194.349 59.4301 185.936 58.5 176.628C58.9732 176.701 58.9406 176.716 59.3968 176.863C61.6184 177.577 64.2127 180.45 64.2127 180.45C64.2127 180.45 65.5244 178.763 66.6206 177.996C70.0194 175.617 73.9384 175.397 77.1785 177.996C78.6455 179.172 79.9569 181.961 79.9569 181.961C79.9569 181.961 84.461 179.485 87.1807 180.45C91.2665 181.9 93.3258 187.26 91.0705 191.023C89.5527 193.556 84.4023 194.421 84.4023 194.421C84.4023 194.421 84.1678 196.232 83.6614 197.253C81.9388 200.729 77.8697 202.092 74.4001 200.463C73.2304 199.914 71.8069 198.386 71.8069 198.386C71.8069 198.386 70.5697 199.806 69.5842 200.463C67.6188 201.773 65.5842 202.31 63.562 202.074Z" stroke="#25AE4B"/>
<path d="M63.562 202.074C60.8454 194.349 59.4301 185.936 58.5 176.628C58.9732 176.701 58.9406 176.716 59.3968 176.863C61.6184 177.577 64.2127 180.45 64.2127 180.45C64.2127 180.45 65.5244 178.763 66.6206 177.996C70.0194 175.617 73.9384 175.397 77.1785 177.996C78.6455 179.172 79.9569 181.961 79.9569 181.961C79.9569 181.961 84.461 179.485 87.1807 180.45C91.2665 181.9 93.3258 187.26 91.0705 191.023C89.5527 193.556 84.4023 194.421 84.4023 194.421C84.4023 194.421 84.1678 196.232 83.6614 197.253C81.9388 200.729 77.8697 202.092 74.4001 200.463C73.2304 199.914 71.8069 198.386 71.8069 198.386C71.8069 198.386 70.5697 199.806 69.5842 200.463C67.6188 201.773 65.5842 202.31 63.562 202.074Z" stroke="black" stroke-opacity="0.2"/>
<path d="M241.5 165.956C241.5 199.716 229.19 224.043 211.778 239.948C194.316 255.898 171.589 263.5 150.621 263.5C129.65 263.5 106.604 255.895 88.8274 239.933C71.1056 224.021 58.5 199.696 58.5 165.956C58.5 132.144 71.1673 100.434 89.135 77.1919C107.171 53.8612 130.178 39.5 150.621 39.5C171.054 39.5 193.748 53.8498 211.474 77.1754C229.132 100.413 241.5 132.128 241.5 165.956Z" stroke="#FFCBF2" stroke-width="5"/>
<path d="M241.5 165.956C241.5 199.716 229.19 224.043 211.778 239.948C194.316 255.898 171.589 263.5 150.621 263.5C129.65 263.5 106.604 255.895 88.8274 239.933C71.1056 224.021 58.5 199.696 58.5 165.956C58.5 132.144 71.1673 100.434 89.135 77.1919C107.171 53.8612 130.178 39.5 150.621 39.5C171.054 39.5 193.748 53.8498 211.474 77.1754C229.132 100.413 241.5 132.128 241.5 165.956Z" stroke="black" stroke-opacity="0.2" stroke-width="5"/>
</svg>
