<svg width="300" height="300" viewBox="0 0 300 300" fill="none" xmlns="http://www.w3.org/2000/svg">
<path d="M150.85 50.7443C146.841 48.4534 203.541 36.999 203.541 36.999L232.177 57.617L214.422 92.5529C214.422 92.5529 154.86 53.0352 150.85 50.7443Z" fill="#939396"/>
<path fill-rule="evenodd" clip-rule="evenodd" d="M203.77 35.9326L233.456 57.3064L214.805 94.0072L213.869 93.3864L214.422 92.5532C213.869 93.3864 213.869 93.3867 213.869 93.3864L211.302 91.6841C209.666 90.5991 207.323 89.0466 204.5 87.1764C198.854 83.436 191.283 78.4249 183.588 73.3424C168.168 63.1583 152.321 52.737 150.354 51.6128C150.111 51.4742 149.719 51.1692 149.655 50.6187C149.594 50.0944 149.879 49.7145 150.049 49.5317C150.393 49.1609 150.966 48.8517 151.548 48.5865C152.784 48.022 154.73 47.37 157.109 46.6709C161.891 45.2661 168.627 43.614 175.467 42.0384C182.312 40.4615 189.281 38.9567 194.537 37.8464C197.165 37.2912 199.366 36.8345 200.91 36.5165C201.682 36.3575 202.29 36.2332 202.705 36.1486L203.341 36.0192C203.342 36.0191 203.342 36.0191 203.54 36.9993L203.341 36.0192L203.77 35.9326ZM203.311 38.0663L203.104 38.1083C202.69 38.1927 202.084 38.3167 201.313 38.4754C199.772 38.7928 197.575 39.2488 194.95 39.8032C189.7 40.9122 182.745 42.4142 175.916 43.9873C169.082 45.5616 162.395 47.2027 157.673 48.5899C155.301 49.2868 153.474 49.9055 152.378 50.406C152.346 50.4204 152.315 50.4347 152.285 50.4488C156.396 53.022 170.779 62.4853 184.69 71.6735C192.387 76.7568 199.958 81.7683 205.605 85.5091C208.428 87.3794 210.771 88.9321 212.407 90.0172L214.039 91.0993L230.896 57.9281L203.311 38.0663Z" fill="black"/>
<path d="M244 87.9677C244 87.9677 233.118 55.897 231.973 57.6176C230.827 59.3383 214.791 92.5538 214.791 92.5538L231.973 169.294L244 87.9677Z" fill="#7D7E82"/>
<path fill-rule="evenodd" clip-rule="evenodd" d="M231.595 58.3876C231.597 58.389 231.598 58.3907 231.6 58.3925C231.587 58.3814 231.585 58.3779 231.595 58.3876ZM232.174 59.3344C232.517 59.9914 232.937 60.9063 233.416 62.0268C234.586 64.7663 236.046 68.5935 237.477 72.4919C238.906 76.3861 240.3 80.3355 241.337 83.3125C241.856 84.8006 242.285 86.0452 242.584 86.9175C242.734 87.3537 242.851 87.6968 242.931 87.9307L242.975 88.0607L231.772 163.819L215.843 92.6751L216.383 91.5585C216.823 90.647 217.454 89.3431 218.215 87.7729C219.736 84.6325 221.776 80.4275 223.851 76.1691C225.927 71.9102 228.038 67.5994 229.701 64.2466C230.532 62.5698 231.251 61.1353 231.796 60.0677C231.936 59.7948 232.061 59.5503 232.174 59.3344ZM214.791 92.5538C213.891 92.119 213.891 92.1189 213.891 92.1186L214.582 90.6879C215.023 89.7762 215.654 88.4717 216.415 86.9011C217.936 83.7598 219.977 79.5533 222.054 75.2928C224.13 71.0327 226.243 66.717 227.909 63.3579C228.742 61.6788 229.464 60.236 230.015 59.1578C230.549 58.1135 230.957 57.3392 231.14 57.0634C231.232 56.9259 231.38 56.7637 231.607 56.6568C231.843 56.5455 232.086 56.5314 232.293 56.5706C232.65 56.6378 232.891 56.8567 232.998 56.9622C233.246 57.2063 233.478 57.5673 233.687 57.9314C234.124 58.697 234.662 59.8536 235.255 61.241C236.447 64.0308 237.922 67.8986 239.355 71.8028C240.789 75.7112 242.187 79.6719 243.226 82.6545C243.746 84.146 244.176 85.3936 244.476 86.2684C244.626 86.7058 244.744 87.05 244.824 87.285L244.947 87.6459C244.947 87.6462 244.947 87.6463 244 87.9676L244.947 87.6459L245.024 87.875L232.962 169.44L230.997 169.512L213.739 92.4325L213.891 92.1186L214.791 92.5538Z" fill="black"/>
<path d="M202.192 156.125L221.092 120.044L231.974 168.725C231.974 168.725 229.683 183.616 229.11 186.48C228.538 189.343 202.192 156.125 202.192 156.125Z" fill="#68696A"/>
<path fill-rule="evenodd" clip-rule="evenodd" d="M221.473 117.162L232.991 168.691L232.962 168.877L231.974 168.725C232.962 168.877 232.962 168.877 232.962 168.877L232.863 169.523C232.799 169.936 232.707 170.529 232.595 171.25C232.371 172.691 232.067 174.643 231.745 176.684C231.102 180.753 230.382 185.218 230.091 186.675C230.024 187.011 229.794 187.436 229.285 187.597C228.89 187.723 228.533 187.612 228.356 187.544C227.969 187.396 227.55 187.093 227.156 186.771C226.327 186.093 225.213 184.989 223.934 183.63C221.363 180.896 218.001 176.994 214.67 173.018C211.336 169.039 208.021 164.971 205.54 161.899C204.299 160.363 203.267 159.075 202.544 158.171C202.183 157.719 201.899 157.363 201.706 157.12L201.409 156.747C201.409 156.747 201.409 156.747 202.192 156.125L201.409 156.747L201.005 156.237L221.473 117.162ZM203.38 156.012C203.565 156.244 203.81 156.551 204.107 156.923C204.827 157.824 205.858 159.109 207.096 160.642C209.573 163.709 212.879 167.767 216.203 171.734C219.53 175.705 222.861 179.57 225.391 182.259C226.614 183.559 227.621 184.554 228.338 185.153C228.684 183.181 229.248 179.673 229.769 176.372C230.091 174.333 230.395 172.383 230.619 170.943C230.731 170.223 230.822 169.63 230.886 169.218L230.957 168.759L220.712 122.925L203.38 156.012ZM229.071 185.677C229.07 185.676 229.068 185.675 229.066 185.675C229.081 185.679 229.083 185.681 229.071 185.677Z" fill="black"/>
<path d="M172.983 215.688L202.192 156.698L228.537 187.052C228.537 187.052 204.483 236.306 203.91 236.879C203.338 237.452 172.983 215.688 172.983 215.688Z" fill="#484A4B"/>
<path fill-rule="evenodd" clip-rule="evenodd" d="M201.962 154.908L229.726 186.897L229.436 187.491L228.537 187.052C229.436 187.491 229.436 187.491 229.436 187.491L229.434 187.494L228.401 189.609C227.742 190.957 226.8 192.883 225.668 195.197C223.404 199.824 220.379 205.999 217.336 212.192C214.293 218.385 211.232 224.597 208.895 229.297C207.727 231.647 206.739 233.621 206.024 235.027C205.667 235.729 205.376 236.293 205.165 236.693C205.059 236.892 204.97 237.056 204.901 237.179C204.867 237.239 204.833 237.297 204.802 237.347L204.8 237.351C204.785 237.375 204.715 237.489 204.617 237.586C204.28 237.924 203.866 237.893 203.785 237.887C203.645 237.876 203.527 237.841 203.459 237.819C203.313 237.771 203.158 237.699 203.018 237.628C202.727 237.482 202.344 237.26 201.896 236.987C200.992 236.435 199.745 235.622 198.28 234.641C195.344 232.675 191.489 230.003 187.658 227.317C183.825 224.631 180.011 221.927 177.155 219.895C175.727 218.879 174.539 218.03 173.707 217.436C173.291 217.139 172.965 216.905 172.742 216.746L172.402 216.502L172.401 216.501C172.401 216.501 172.4 216.501 172.983 215.688L172.401 216.501L171.71 216.006L201.962 154.908ZM174.257 215.37C174.431 215.495 174.636 215.642 174.87 215.809C175.701 216.403 176.888 217.25 178.315 218.265C181.168 220.296 184.978 222.997 188.806 225.68C192.635 228.363 196.475 231.025 199.393 232.979C200.853 233.957 202.072 234.751 202.938 235.28C203.142 235.404 203.323 235.512 203.479 235.602C203.675 235.229 203.931 234.731 204.241 234.121C204.952 232.723 205.937 230.755 207.104 228.407C209.439 223.711 212.498 217.502 215.541 211.31C218.583 205.118 221.607 198.944 223.871 194.318C225.003 192.005 225.945 190.079 226.604 188.731L227.348 187.208L202.421 158.488L174.257 215.37ZM203.096 236.302C203.095 236.303 203.099 236.297 203.106 236.287C203.099 236.297 203.096 236.302 203.096 236.302Z" fill="black"/>
<path d="M164.965 262.651C164.393 261.506 173.556 216.261 173.556 216.261C173.556 216.261 202.192 235.733 203.337 236.879C204.483 238.024 165.538 263.797 164.965 262.651Z" fill="#333435"/>
<path fill-rule="evenodd" clip-rule="evenodd" d="M174.118 215.434L173.556 216.261L172.576 216.062L172.875 214.588L174.118 215.434ZM174.238 217.935C174.209 218.081 174.177 218.238 174.144 218.404C173.894 219.643 173.539 221.415 173.114 223.544C172.264 227.802 171.137 233.492 170.028 239.216C168.918 244.942 167.828 250.699 167.051 255.093C166.662 257.292 166.353 259.141 166.16 260.473C166.121 260.735 166.088 260.976 166.06 261.193C166.153 261.144 166.251 261.093 166.354 261.038C167.445 260.454 168.989 259.549 170.842 258.415C174.541 256.151 179.415 253.009 184.241 249.792C189.067 246.574 193.833 243.29 197.315 240.743C199.06 239.467 200.466 238.388 201.394 237.6C201.626 237.402 201.82 237.23 201.979 237.082C201.749 236.912 201.469 236.709 201.145 236.476C200.258 235.838 199.05 234.986 197.628 233.994C194.786 232.009 191.102 229.47 187.451 226.965C183.801 224.46 180.187 221.99 177.485 220.147C176.141 219.231 175.023 218.469 174.238 217.935ZM203.416 235.66C203.672 235.853 203.913 236.04 204.045 236.171C204.3 236.427 204.373 236.745 204.361 236.996C204.351 237.217 204.278 237.393 204.229 237.495C204.128 237.701 203.978 237.887 203.85 238.032C203.579 238.339 203.175 238.711 202.688 239.124C201.703 239.96 200.25 241.074 198.496 242.357C194.981 244.928 190.189 248.23 185.35 251.456C180.511 254.682 175.614 257.839 171.886 260.121C170.024 261.261 168.44 262.19 167.297 262.801C166.73 263.104 166.243 263.344 165.873 263.492C165.698 263.562 165.493 263.634 165.295 263.667C165.202 263.683 165.034 263.704 164.842 263.669C164.64 263.633 164.273 263.502 164.071 263.098C163.979 262.914 163.958 262.737 163.951 262.674C163.941 262.583 163.939 262.492 163.939 262.413C163.94 262.252 163.953 262.06 163.971 261.851C164.009 261.43 164.082 260.864 164.18 260.185C164.378 258.823 164.691 256.949 165.081 254.745C165.861 250.334 166.954 244.565 168.064 238.836C169.174 233.106 170.302 227.413 171.153 223.152C171.578 221.022 171.934 219.25 172.183 218.01C172.308 217.39 172.406 216.903 172.473 216.571L172.576 216.062C172.576 216.062 172.576 216.062 173.556 216.261C174.118 215.434 174.118 215.434 174.118 215.434L175.352 216.273C176.137 216.808 177.26 217.573 178.612 218.495C181.315 220.339 184.931 222.809 188.583 225.316C192.235 227.822 195.924 230.365 198.773 232.354C200.197 233.348 201.414 234.206 202.313 234.852C202.762 235.175 203.135 235.448 203.416 235.66Z" fill="black"/>
<path d="M115.136 261.506C116.283 260.933 172.981 216.261 172.981 216.261C172.981 216.261 166.108 260.36 164.39 262.651C162.672 264.942 113.989 262.078 115.136 261.506Z" fill="#4F5253"/>
<path fill-rule="evenodd" clip-rule="evenodd" d="M173.969 216.415L172.981 216.261L172.362 215.475L174.361 213.9L173.969 216.415ZM171.596 218.624L171.161 218.967C169.609 220.19 167.389 221.937 164.722 224.036C159.389 228.233 152.266 233.835 145.106 239.455C137.947 245.075 130.751 250.714 125.273 254.983C122.534 257.118 120.223 258.911 118.561 260.19C118.231 260.443 117.927 260.676 117.65 260.888C118.813 260.998 120.356 261.122 122.177 261.251C126.596 261.563 132.617 261.903 138.73 262.153C144.844 262.403 151.036 262.564 155.799 262.519C158.184 262.497 160.189 262.423 161.64 262.287C162.369 262.219 162.929 262.138 163.315 262.048C163.457 262.015 163.56 261.984 163.631 261.959C163.67 261.869 163.734 261.708 163.818 261.446C163.952 261.029 164.108 260.463 164.282 259.76C164.629 258.357 165.035 256.464 165.476 254.241C166.36 249.798 167.378 244.081 168.344 238.428C169.31 232.777 170.222 227.196 170.893 223.028C171.175 221.278 171.414 219.777 171.596 218.624ZM115.583 262.4C115.596 262.394 115.609 262.387 115.623 262.379C115.605 262.389 115.591 262.396 115.583 262.4ZM172.981 216.261C172.362 215.475 172.362 215.475 172.362 215.475L169.924 217.396C168.371 218.618 166.152 220.365 163.486 222.464C158.152 226.661 151.03 232.262 143.871 237.882C136.713 243.501 129.519 249.138 124.044 253.406C121.306 255.54 118.999 257.33 117.342 258.604C116.512 259.242 115.848 259.748 115.375 260.103C115.138 260.281 114.952 260.418 114.819 260.514C114.704 260.596 114.661 260.624 114.661 260.625C114.662 260.625 114.666 260.623 114.673 260.619C114.596 260.659 114.406 260.769 114.267 260.995C114.18 261.136 114.114 261.322 114.116 261.539C114.119 261.752 114.187 261.926 114.262 262.05C114.392 262.267 114.569 262.375 114.625 262.409C114.703 262.455 114.774 262.484 114.818 262.501C114.974 262.56 115.162 262.597 115.308 262.623C115.638 262.681 116.133 262.743 116.748 262.808C117.99 262.938 119.818 263.089 122.036 263.246C126.477 263.56 132.518 263.9 138.648 264.151C144.775 264.402 151.005 264.564 155.817 264.519C158.22 264.497 160.291 264.422 161.827 264.279C162.591 264.207 163.253 264.116 163.768 263.996C164.024 263.937 164.273 263.863 164.492 263.769C164.686 263.685 164.979 263.533 165.19 263.251C165.413 262.954 165.583 262.488 165.722 262.059C165.876 261.579 166.045 260.962 166.223 260.24C166.581 258.793 166.994 256.865 167.438 254.631C168.327 250.161 169.349 244.423 170.316 238.765C171.283 233.105 172.196 227.518 172.868 223.346C173.203 221.26 173.479 219.527 173.67 218.316C173.766 217.711 173.84 217.235 173.891 216.912L173.969 216.415C173.969 216.414 173.969 216.415 172.981 216.261Z" fill="black"/>
<path d="M81.3473 239.169C81.3473 239.169 49.8474 174.451 56.1476 183.615C81.3473 197.361 135.756 223.706 171.837 216.26C173.555 216.26 118.001 259.787 115.138 261.505C112.274 263.223 81.3473 239.169 81.3473 239.169Z" fill="#7D7E82"/>
<path fill-rule="evenodd" clip-rule="evenodd" d="M56.833 182.85C56.6838 182.64 56.5476 182.461 56.4257 182.318C56.3472 182.227 56.2582 182.131 56.162 182.046C56.0935 181.987 55.908 181.828 55.6394 181.76C55.4834 181.72 55.2414 181.697 54.9783 181.804C54.7059 181.915 54.5386 182.114 54.4477 182.284C54.2989 182.564 54.3125 182.84 54.3168 182.923C54.3288 183.156 54.3946 183.419 54.4612 183.649C54.7405 184.614 55.4819 186.451 56.5096 188.827C58.5838 193.622 61.9368 200.865 65.4806 208.382C69.026 215.903 72.768 223.709 75.6233 229.634C77.051 232.597 78.2572 235.09 79.1064 236.842C79.5311 237.719 79.8665 238.41 80.0958 238.882L80.448 239.606C80.4483 239.607 80.4484 239.607 81.3475 239.169L80.448 239.606C80.5149 239.744 80.6129 239.865 80.7336 239.959L81.3475 239.169C80.7336 239.959 80.7333 239.958 80.7336 239.959L80.8234 240.028L81.0837 240.23C81.3117 240.406 81.6461 240.664 82.0726 240.992C82.9255 241.648 84.1468 242.582 85.6211 243.698C88.5692 245.929 92.532 248.888 96.5863 251.794C100.636 254.698 104.795 257.561 108.13 259.594C109.793 260.608 111.28 261.434 112.461 261.954C113.048 262.213 113.598 262.413 114.078 262.516C114.496 262.605 115.123 262.681 115.653 262.363C116.069 262.113 117.307 261.2 119.07 259.865C120.864 258.508 123.266 256.664 126.059 254.502C131.646 250.177 138.808 244.573 145.826 239.023C152.844 233.473 159.722 227.975 164.74 223.862C167.247 221.807 169.298 220.091 170.671 218.886C171.354 218.287 171.888 217.798 172.229 217.45C172.387 217.289 172.555 217.108 172.667 216.939C172.698 216.892 172.739 216.826 172.776 216.745C172.806 216.677 172.869 216.525 172.876 216.325C172.884 216.093 172.81 215.746 172.498 215.492C172.235 215.278 171.953 215.26 171.837 215.26C171.77 215.26 171.702 215.267 171.635 215.281C153.872 218.947 131.466 214.301 110.24 206.94C89.1664 199.632 69.4195 189.706 56.833 182.85ZM82.1447 238.522L82.3074 238.648C82.5339 238.823 82.8667 239.08 83.2915 239.407C84.141 240.06 85.3583 240.991 86.8281 242.103C89.7683 244.329 93.7162 247.276 97.7515 250.169C101.791 253.064 105.901 255.893 109.171 257.886C110.81 258.886 112.208 259.657 113.267 260.124C113.8 260.358 114.208 260.498 114.495 260.56C114.602 260.582 114.671 260.59 114.712 260.592C115.108 260.333 116.193 259.535 117.863 258.271C119.649 256.919 122.044 255.08 124.835 252.92C130.416 248.6 137.572 243.001 144.586 237.454C151.6 231.907 158.467 226.417 163.472 222.315C165.693 220.495 167.54 218.953 168.87 217.803C151.128 220.465 129.671 215.796 109.584 208.83C89.0958 201.724 69.8793 192.173 57.207 185.328C57.5159 186.091 57.8978 186.998 58.3452 188.033C60.4053 192.795 63.746 200.012 67.2896 207.529C70.8317 215.043 74.5709 222.843 77.425 228.766C78.8519 231.727 80.0575 234.219 80.9062 235.97C81.3306 236.846 81.6657 237.536 81.8948 238.008L82.1447 238.522Z" fill="black"/>
<path d="M113.994 78.8076C113.994 78.8076 54.4332 181.325 55.0041 182.47C55.575 183.615 106.547 208.242 106.547 207.097C106.547 205.952 113.994 78.8076 113.994 78.8076Z" fill="#989696"/>
<path fill-rule="evenodd" clip-rule="evenodd" d="M114.993 78.8655L113.995 78.807L113.13 78.3047L114.993 78.8655ZM112.751 82.9415C112.608 83.1884 112.458 83.4467 112.301 83.7161C110.674 86.5213 108.35 90.5301 105.562 95.3443C99.9878 104.973 92.5611 117.822 85.1523 130.707C77.7432 143.593 70.3533 156.512 64.852 166.28C62.1009 171.165 59.8246 175.257 58.2549 178.162C57.4693 179.616 56.8652 180.764 56.4681 181.562C56.3655 181.768 56.2787 181.947 56.2072 182.099C56.5914 182.329 57.147 182.64 57.8575 183.023C59.294 183.798 61.3225 184.844 63.7493 186.069C68.6007 188.517 75.0196 191.664 81.423 194.741C87.8268 197.817 94.2085 200.821 98.9862 202.982C101.377 204.063 103.356 204.929 104.732 205.487C105.066 205.623 105.359 205.738 105.61 205.833C105.951 199.54 107.614 170.908 109.273 142.464C110.204 126.499 111.134 110.57 111.833 98.6328C112.182 92.664 112.473 87.6929 112.676 84.2141L112.751 82.9415ZM105.547 207.096C105.547 207.08 105.548 207.064 105.549 207.047C105.548 207.071 105.547 207.087 105.547 207.096ZM55.979 182.63C55.9789 182.63 55.9791 182.629 55.979 182.63ZM113.995 78.807C113.13 78.3047 113.13 78.3051 113.129 78.3059L112.461 79.4565C112.025 80.2078 111.385 81.3097 110.571 82.7125C108.944 85.5182 106.619 89.5274 103.832 94.3422C98.2564 103.972 90.8286 116.823 83.4185 129.71C76.0087 142.597 68.6152 155.522 63.1094 165.298C60.3569 170.185 58.0737 174.29 56.4954 177.211C55.7071 178.67 55.09 179.842 54.6774 180.671C54.4724 181.083 54.3102 181.426 54.2019 181.683C54.1491 181.808 54.0987 181.937 54.0633 182.055C54.0464 182.111 54.0235 182.196 54.0106 182.292L54.01 182.297C54.0028 182.349 53.9642 182.624 54.1093 182.916C54.2103 183.118 54.3606 183.25 54.4041 183.288L54.4069 183.291C54.4772 183.353 54.5539 183.41 54.6245 183.46C54.7679 183.562 54.952 183.678 55.1625 183.805C55.5871 184.06 56.18 184.391 56.9085 184.784C58.3688 185.571 60.4161 186.627 62.8483 187.854C67.7147 190.31 74.1458 193.463 80.5569 196.543C86.9674 199.623 93.3645 202.634 98.1619 204.804C100.559 205.888 102.566 206.767 103.98 207.341C104.682 207.626 105.261 207.845 105.674 207.975C105.87 208.037 106.081 208.096 106.267 208.121C106.342 208.131 106.524 208.153 106.729 208.107C106.837 208.083 107.039 208.021 107.224 207.846C107.441 207.642 107.547 207.366 107.547 207.096C107.547 207.107 107.548 207.086 107.552 206.997C107.555 206.921 107.56 206.815 107.567 206.679C107.581 206.407 107.602 206.018 107.629 205.522C107.684 204.529 107.764 203.105 107.866 201.312C108.069 197.726 108.36 192.666 108.709 186.626C109.407 174.545 110.338 158.545 111.269 142.58C112.2 126.616 113.131 110.687 113.829 98.7496C114.178 92.7808 114.469 87.8097 114.673 84.3309L114.993 78.867C114.993 78.866 114.993 78.8655 113.995 78.807Z" fill="black"/>
<path d="M150.074 50.7451L113.992 78.8084L106.547 207.098C129.745 214.472 161.528 221.416 172.41 215.689L221.091 120.044L214.791 92.5537L150.074 50.7451Z" fill="#717174"/>
<path fill-rule="evenodd" clip-rule="evenodd" d="M150.02 49.5195L215.675 91.9338L222.147 120.174L173.157 216.425L172.876 216.573C169.94 218.118 165.717 218.759 160.799 218.799C155.851 218.839 150.074 218.269 143.94 217.293C131.671 215.341 117.875 211.748 106.244 208.05L105.504 207.815L113.021 78.2972L150.02 49.5195ZM150.128 51.9698L114.965 79.3188L107.591 206.379C118.999 209.972 132.37 213.428 144.254 215.318C150.327 216.284 155.985 216.838 160.782 216.799C165.434 216.762 169.161 216.167 171.667 214.944L220.036 119.914L213.907 93.1727L150.128 51.9698Z" fill="black"/>
</svg>
