<svg width="300" height="300" viewBox="0 0 300 300" fill="none" xmlns="http://www.w3.org/2000/svg">
<path d="M242 164.267C242 232.206 193.867 263 151.363 263C108.86 263 58 232.206 58 164.267C58 96.3279 108.86 37 151.363 37C193.867 37 242 96.3279 242 164.267Z" fill="#CA6EFC"/>
<path d="M75.7532 164.063C75.7532 168.365 72.2393 171.874 67.8766 171.874C63.514 171.874 60 168.365 60 164.063C60 159.762 63.514 156.252 67.8766 156.252C72.2393 156.252 75.7532 159.762 75.7532 164.063ZM100.019 179.434C100.019 183.736 96.5051 187.245 92.1425 187.245C87.7798 187.245 84.2659 183.736 84.2659 179.434C84.2659 175.132 87.7798 171.623 92.1425 171.623C96.5051 171.623 100.019 175.132 100.019 179.434ZM127.363 186.929C127.363 191.231 123.849 194.74 119.486 194.74C115.123 194.74 111.61 191.231 111.61 186.929C111.61 182.627 115.123 179.118 119.486 179.118C123.849 179.118 127.363 182.627 127.363 186.929ZM156.866 192.189C156.866 196.49 153.352 200 148.989 200C144.626 200 141.113 196.49 141.113 192.189C141.113 187.887 144.626 184.377 148.989 184.377C153.352 184.377 156.866 187.887 156.866 192.189ZM183.721 186.929C183.721 191.231 180.207 194.74 175.845 194.74C171.482 194.74 167.968 191.231 167.968 186.929C167.968 182.627 171.482 179.118 175.845 179.118C180.207 179.118 183.721 182.627 183.721 186.929ZM210.524 177.118C210.524 181.419 207.01 184.929 202.648 184.929C198.285 184.929 194.771 181.419 194.771 177.118C194.771 172.816 198.285 169.306 202.648 169.306C207.01 169.306 210.524 172.816 210.524 177.118ZM235 159.811C235 164.113 231.486 167.623 227.123 167.623C222.761 167.623 219.247 164.113 219.247 159.811C219.247 155.51 222.761 152 227.123 152C231.486 152 235 155.51 235 159.811Z" fill="white" stroke="white" stroke-width="4"/>
<path d="M62.9632 128.465C70.8435 130.041 76.7069 114.3 84.4062 113.326C93.3953 112.19 86.6982 138.491 95.7552 138.232C104.545 137.981 108.798 112.128 117.509 113.326C124.772 114.326 119.351 150.162 126.651 150.843C134.628 151.587 136.894 111.215 144.622 113.326C150.854 115.029 151.722 155.304 157.548 158.099C166.787 162.531 164.779 109.361 174.572 112.38C182.177 114.725 187.128 139.729 194.749 142.02C204.821 145.049 197.792 112.714 208.305 112.38C218.749 112.05 225.009 133.193 238.25 130.356" stroke="#40F9A4" stroke-width="10"/>
<path d="M67.0349 208.499C82.8378 201.726 112.508 241.072 155.08 241.072C197.651 241.072 213.114 195.938 231.497 204.001" stroke="#F7AB05" stroke-width="16"/>
<path d="M96.9963 68C106.449 75.211 125.109 85.5818 152.326 85.5869C179.544 85.592 193.037 72.5587 201.996 65.5" stroke="#F8DF76" stroke-width="16"/>
<path d="M75.7532 164.063C75.7532 168.365 72.2393 171.874 67.8766 171.874C63.514 171.874 60 168.365 60 164.063C60 159.762 63.514 156.252 67.8766 156.252C72.2393 156.252 75.7532 159.762 75.7532 164.063ZM100.019 179.434C100.019 183.736 96.5051 187.245 92.1425 187.245C87.7798 187.245 84.2659 183.736 84.2659 179.434C84.2659 175.132 87.7798 171.623 92.1425 171.623C96.5051 171.623 100.019 175.132 100.019 179.434ZM127.363 186.929C127.363 191.231 123.849 194.74 119.486 194.74C115.123 194.74 111.61 191.231 111.61 186.929C111.61 182.627 115.123 179.118 119.486 179.118C123.849 179.118 127.363 182.627 127.363 186.929ZM156.866 192.189C156.866 196.49 153.352 200 148.989 200C144.626 200 141.113 196.49 141.113 192.189C141.113 187.887 144.626 184.377 148.989 184.377C153.352 184.377 156.866 187.887 156.866 192.189ZM183.721 186.929C183.721 191.231 180.207 194.74 175.845 194.74C171.482 194.74 167.968 191.231 167.968 186.929C167.968 182.627 171.482 179.118 175.845 179.118C180.207 179.118 183.721 182.627 183.721 186.929ZM210.524 177.118C210.524 181.419 207.01 184.929 202.648 184.929C198.285 184.929 194.771 181.419 194.771 177.118C194.771 172.816 198.285 169.306 202.648 169.306C207.01 169.306 210.524 172.816 210.524 177.118ZM235 159.811C235 164.113 231.486 167.623 227.123 167.623C222.761 167.623 219.247 164.113 219.247 159.811C219.247 155.51 222.761 152 227.123 152C231.486 152 235 155.51 235 159.811Z" fill="white" stroke="white" stroke-width="4"/>
<path d="M62.9632 128.465C70.8435 130.041 76.7069 114.3 84.4062 113.326C93.3953 112.19 86.6982 138.491 95.7552 138.232C104.545 137.981 108.798 112.128 117.509 113.326C124.772 114.326 119.351 150.162 126.651 150.843C134.628 151.587 136.894 111.215 144.622 113.326C150.854 115.029 151.722 155.304 157.548 158.099C166.787 162.531 164.779 109.361 174.572 112.38C182.177 114.725 187.128 139.729 194.749 142.02C204.821 145.049 197.792 112.714 208.305 112.38C218.749 112.05 225.009 133.193 238.25 130.356" stroke="#40F9A4" stroke-width="10"/>
<path d="M239.5 164.267C239.5 197.601 227.714 221.603 210.915 237.283C194.071 253.005 172.038 260.5 151.363 260.5C130.678 260.5 107.946 252.997 90.4132 237.251C72.9344 221.553 60.5 197.556 60.5 164.267C60.5 130.906 72.9961 99.6173 90.7208 76.6852C108.514 53.6641 131.207 39.5 151.363 39.5C171.497 39.5 193.502 53.6383 210.614 76.6482C227.662 99.5705 239.5 130.87 239.5 164.267Z" stroke="#CA6EFC" stroke-width="5"/>
<path d="M239.5 164.267C239.5 197.601 227.714 221.603 210.915 237.283C194.071 253.005 172.038 260.5 151.363 260.5C130.678 260.5 107.946 252.997 90.4132 237.251C72.9344 221.553 60.5 197.556 60.5 164.267C60.5 130.906 72.9961 99.6173 90.7208 76.6852C108.514 53.6641 131.207 39.5 151.363 39.5C171.497 39.5 193.502 53.6383 210.614 76.6482C227.662 99.5705 239.5 130.87 239.5 164.267Z" stroke="black" stroke-opacity="0.2" stroke-width="5"/>
</svg>
