<svg width="500" height="500" viewBox="0 0 500 500" fill="none" xmlns="http://www.w3.org/2000/svg">
<g clip-path="url(#clip0_698_18)">
<path d="M408.557 314.274C400.951 347.121 383.816 368.209 363.524 379.919C343.21 391.642 319.661 394.007 299.182 389.264C278.699 384.52 257.916 371.885 244.159 352.262C230.418 332.663 223.647 306.04 231.25 273.212C238.859 240.355 258.292 212.414 280.964 193.884C303.67 175.325 329.443 166.344 349.72 171.04C369.988 175.733 388.524 194.966 400.098 221.459C411.655 247.912 416.17 281.404 408.557 314.274Z" fill="white" stroke="black" stroke-width="2"/>
<path d="M296.702 183.396C271.664 198.759 262.346 208.281 253.308 226.723C316.508 232.382 350.986 240.81 411.469 261.811C407.799 239.276 403.898 226.84 391.201 205.281C355.419 191.877 334.857 186.557 296.702 183.396Z" fill="white" stroke="black" stroke-width="2"/>
<path d="M410.933 260.562C349.724 238.971 314.611 230.477 252.061 225.741C260.389 213.358 270.319 202.584 280.964 193.884C303.67 175.325 329.443 166.344 349.72 171.04C369.988 175.733 388.524 194.966 400.098 221.459C405.275 233.31 409.04 246.574 410.933 260.562ZM228.152 295.917C293.639 320.144 331.842 328.83 401.498 335.98C392.52 356.728 378.932 371.027 363.524 379.919C343.21 391.642 319.661 394.007 299.182 389.264C278.699 384.52 257.916 371.885 244.159 352.262C233.739 337.4 227.328 318.499 228.152 295.917Z" fill="white" stroke="black" stroke-width="2"/>
<path d="M251.854 226.575L251.016 227.949L252.619 228.092C315.745 233.745 349.993 240.583 410.393 261.556L411.096 261.8C413.24 278.673 412.659 296.563 408.558 314.273C400.951 347.12 383.817 368.208 363.524 379.918C343.21 391.641 319.661 394.006 299.182 389.263C278.699 384.519 257.916 371.884 244.159 352.261C230.418 332.662 223.648 306.039 231.25 273.211C235.756 253.755 244.408 236.022 255.423 220.946C254.24 222.735 253.057 224.605 251.854 226.575ZM349.72 171.039C365.227 174.63 379.72 186.731 390.857 204.084C355.609 190.911 335.007 185.602 297.356 182.446C315.471 171.86 334.205 167.445 349.72 171.039Z" fill="white" stroke="black" stroke-width="2"/>
<path d="M228.32 292.657C228.733 286.442 229.688 279.958 231.25 273.211C238.86 240.354 258.292 212.413 280.964 193.883C303.671 175.324 329.443 166.343 349.72 171.039C369.988 175.732 388.524 194.965 400.098 221.458C411.655 247.911 416.17 281.403 408.558 314.273C406.991 321.04 405.019 327.307 402.7 333.096L402.036 333.026C334.01 325.895 295.385 317.187 229.352 293.034L228.32 292.657ZM267.667 375.352C293.226 375.436 309.632 379.03 332.675 390.588C321.271 392.272 309.813 391.725 299.182 389.263C288.404 386.767 277.543 382.086 267.667 375.352Z" fill="white" stroke="black" stroke-width="2"/>
<path d="M251.303 227.69C314.117 232.408 349.095 240.859 410.532 262.541C411.876 277.417 411.939 288.773 410.45 299.659C408.966 310.5 405.936 320.918 401.043 333.923C331.978 326.804 293.976 318.135 228.875 294.052C230.091 281.037 231.918 270.832 235.303 260.729C238.709 250.567 243.707 240.468 251.303 227.69Z" fill="black" stroke="black" stroke-width="2"/>
<path d="M229.008 293.974C228.458 327.643 231.693 346.312 265.823 374.352C292.925 374.268 309.8 377.873 334.018 390.145C366.664 384.362 388.528 365.303 401.931 334.021C333.825 326.881 295.12 318.154 229.008 293.974Z" fill="white" stroke="black" stroke-width="2"/>
<path d="M298.641 389.135C287.584 386.469 276.495 381.336 266.536 373.863C267.333 373.676 268.332 373.532 269.531 373.444C271.706 373.285 274.426 373.318 277.57 373.545C283.856 374 291.76 375.227 300.245 377.192C309.699 379.382 318.1 382.077 324.139 384.687C327.164 385.994 329.559 387.264 331.192 388.419C332.009 388.997 332.602 389.523 332.985 389.982C333.027 390.033 333.066 390.081 333.102 390.128C322.793 391.945 312.471 391.829 302.775 390.019C301.417 389.744 300.037 389.45 298.641 389.135Z" fill="black" stroke="black" stroke-width="2"/>
<path d="M347.491 191.052C327.141 186.34 308.208 184.198 294.13 184.576C313.307 172.489 333.434 167.268 349.921 171.086C365.865 174.778 380.742 187.464 392.009 205.64C380.11 200.203 364.659 195.028 347.491 191.052Z" fill="black" stroke="black" stroke-width="2"/>
<path d="M404.661 313.372C397.283 345.228 380.78 365.343 361.524 376.455C342.164 387.627 319.664 389.902 300.084 385.367C280.485 380.828 260.581 368.718 247.434 349.966C234.371 331.334 227.79 305.882 235.147 274.115C242.537 242.206 261.437 215.009 283.495 196.981C305.727 178.811 330.248 170.636 348.817 174.936C367.342 179.226 385.11 197.142 396.433 223.06C407.668 248.778 412.066 281.394 404.661 313.372Z" stroke="black" stroke-width="10"/>
<path d="M257.755 243.639C272.909 273.92 272.903 300.924 264.663 322.661C256.361 344.561 239.528 361.547 220.412 371.114C181.959 390.357 122.932 385.649 92.9277 325.693C77.74 295.345 74.9916 261.062 80.9049 231.941C86.8519 202.654 101.323 179.536 119.564 170.408C137.824 161.27 164.468 163.837 190.943 176.989C217.266 190.066 242.525 213.206 257.755 243.639Z" fill="white" stroke="black" stroke-width="10"/>
<path d="M257.755 243.639C272.909 273.92 272.903 300.924 264.663 322.661C256.361 344.561 239.528 361.547 220.412 371.114C181.959 390.357 122.932 385.649 92.9277 325.693C77.74 295.345 74.9916 261.062 80.9049 231.941C86.8519 202.654 101.323 179.536 119.564 170.408C137.824 161.27 164.468 163.837 190.943 176.989C217.266 190.066 242.525 213.206 257.755 243.639Z" fill="white" stroke="black" stroke-width="10"/>
<path d="M128.32 220.123C148.42 236.219 140.37 253.616 112.858 259.828C100.634 265.946 86.8875 266.768 80.7209 254.445C74.5544 242.123 73.3828 222.082 85.6068 215.964C97.8309 209.847 118.493 212.254 128.32 220.123Z" fill="black"/>
<path d="M199.024 257.393C204.034 267.404 210.832 281.126 201.468 285.812C192.105 290.497 159.634 292.825 158.524 277.66C153.514 267.649 160.146 245.462 169.509 240.777C178.872 236.091 194.013 247.381 199.024 257.393Z" fill="black"/>
<path d="M131.284 299.796C143.69 314.13 135.064 330.087 123.838 335.705C114.197 334.367 99.3401 337.542 94.1943 327.259C89.0484 316.977 95.5962 299.853 106.822 294.235C118.048 288.617 126.138 289.514 131.284 299.796Z" fill="black"/>
<path d="M202.478 340.068C206.858 357.056 204.62 373.288 192.656 379.276C180.692 385.263 154.231 378.979 148.322 367.17C130.557 349.324 158.152 335.514 170.115 329.527C182.079 323.54 190.638 311.701 202.478 340.068Z" fill="black"/>
<path d="M257.81 302.371C262.871 324.25 256.684 319.209 247.841 323.634C238.998 328.059 232.52 335.379 228.794 327.935C225.069 320.49 223.657 295.051 232.5 290.625C241.343 286.2 259.263 293.506 257.81 302.371Z" fill="black"/>
<path d="M254.09 227.732C261.909 241.118 262.513 245 250.698 251.874C231.43 253.38 229.411 261.227 221.592 247.841C213.774 234.455 218.015 226.383 226.288 215.849C238.103 208.975 246.272 214.345 254.09 227.732Z" fill="black"/>
<path d="M261.992 241.302C293.599 304.461 262.591 355.775 222.559 375.809C182.527 395.843 120.298 391.188 88.691 328.03C57.0838 264.871 77.385 185.746 117.417 165.712C157.449 145.678 230.385 178.144 261.992 241.302Z" fill="black"/>
<path d="M257.755 243.639C272.909 273.92 272.903 300.924 264.663 322.661C256.361 344.561 239.528 361.547 220.412 371.114C181.959 390.357 122.932 385.649 92.9277 325.693C77.74 295.345 74.9916 261.062 80.9049 231.941C86.8519 202.654 101.323 179.536 119.564 170.408C137.824 161.27 164.468 163.837 190.943 176.989C217.266 190.066 242.525 213.206 257.755 243.639Z" fill="white" stroke="black" stroke-width="10"/>
<path d="M131.357 220.308C151.457 236.404 143.407 253.801 115.895 260.013C103.671 266.13 89.9241 266.952 83.7576 254.63C77.591 242.308 76.4194 222.266 88.6434 216.149C100.867 210.031 121.53 212.438 131.357 220.308Z" fill="black"/>
<path d="M199.024 257.393C204.034 267.404 210.832 281.126 201.468 285.812C192.105 290.497 159.634 292.825 158.524 277.66C153.514 267.649 160.146 245.462 169.509 240.777C178.872 236.091 194.013 247.381 199.024 257.393Z" fill="black"/>
<path d="M131.284 299.796C143.69 314.13 135.064 330.087 123.838 335.705C114.197 334.367 99.3401 337.542 94.1943 327.259C89.0484 316.977 95.5962 299.853 106.822 294.235C118.048 288.617 126.138 289.514 131.284 299.796Z" fill="black"/>
<path d="M202.479 340.068C206.859 357.056 204.621 373.288 192.657 379.276C180.693 385.263 154.232 378.979 148.323 367.17C130.558 349.324 158.152 335.514 170.116 329.527C182.08 323.54 190.639 311.701 202.479 340.068Z" fill="black"/>
<path d="M189.441 178.7C200.142 200.082 200.571 212.706 178.008 211.158C150.825 198.025 145.022 214.665 138.15 200.934C134.955 181.609 137.27 170.889 149.494 164.771C161.718 158.654 183.532 166.891 189.441 178.7Z" fill="black"/>
<path d="M236.194 303.89C241.255 325.769 235.068 320.728 226.225 325.154C217.382 329.579 210.904 336.899 207.178 329.454C203.452 322.01 202.041 296.57 210.884 292.145C219.727 287.72 237.647 295.026 236.194 303.89Z" fill="black"/>
<path d="M272.588 313.453C270.433 322.619 266.917 331.104 262.377 338.785C258.278 338.756 257.769 336.871 257.014 334.073C256.683 332.845 256.304 331.442 255.553 329.942C254.716 328.269 253.735 326.711 252.827 325.271C250.119 320.971 248.065 317.711 252.444 315.519C256.138 313.671 265.415 312.433 272.588 313.453Z" fill="black"/>
<path d="M88.3746 196.802C92.4884 189.097 97.6152 182.29 103.449 176.409C107.621 177.365 107.614 179.21 107.602 182.004C107.597 183.181 107.591 184.528 107.898 186.047C108.239 187.742 108.739 189.366 109.202 190.869C110.583 195.355 111.63 198.757 107.133 199.694C103.328 200.487 94.6028 199.413 88.3746 196.802Z" fill="black"/>
<path d="M252.844 228.46C260.663 241.847 261.266 245.729 249.452 252.603C230.184 254.108 228.165 261.956 220.346 248.57C212.528 235.183 216.769 227.111 225.042 216.577C236.857 209.703 245.026 215.074 252.844 228.46Z" fill="black"/>
<path d="M339.118 280.576C339.686 313.835 328.296 338.116 311.63 354.175C294.945 370.251 272.914 378.144 252.127 378.499C231.335 378.854 208.366 371.727 190.465 356.232C172.586 340.756 159.712 316.891 159.145 283.651C158.576 250.381 170.531 218.989 187.848 195.832C205.192 172.64 227.771 157.883 248.352 157.531C268.923 157.18 291.317 171.158 308.769 193.752C326.195 216.312 338.55 247.292 339.118 280.576Z" fill="white" stroke="black" stroke-width="2"/>
<path d="M251.453 364.59L251.034 364.418L250.628 364.619L230.777 374.459L228.324 375.675L230.983 376.327C231.269 376.397 231.553 376.465 231.836 376.533C217.221 373.467 202.666 366.793 190.465 356.232C172.586 340.756 159.712 316.891 159.145 283.651C158.576 250.381 170.531 218.989 187.848 195.832C205.192 172.64 227.771 157.883 248.352 157.531C268.923 157.18 291.317 171.158 308.769 193.752C326.195 216.312 338.55 247.292 339.118 280.576C339.686 313.835 328.296 338.116 311.63 354.175C300.929 364.485 288.03 371.429 274.669 375.178L275.995 374.702L273.596 373.713L251.453 364.59Z" fill="white" stroke="black" stroke-width="2"/>
<path d="M190.465 356.232C187.916 354.026 185.469 351.649 183.146 349.1L201.555 342.448L225.388 355.324L225.873 355.586L226.354 355.315L250.598 341.683L270.821 354.511L271.326 354.831L271.847 354.538L296.177 340.859L315.37 349.322L315.982 349.592L316.353 349.237C314.833 350.962 313.256 352.607 311.63 354.175C294.945 370.251 272.914 378.144 252.127 378.499C231.335 378.854 208.366 371.727 190.465 356.232ZM311.192 315.122L285.976 330.745L266.795 319.388L266.203 319.038L265.664 319.465L249.442 332.315L229.821 320.033L229.256 319.679L228.712 320.065L210.467 333.011L187.282 319.247L186.614 318.85L186.065 319.399L172.298 333.136L171.873 333.559C164.253 320.154 159.485 303.589 159.145 283.651C158.576 250.381 170.531 218.989 187.848 195.832C205.192 172.64 227.771 157.883 248.352 157.531C268.923 157.18 291.317 171.158 308.769 193.752C326.195 216.312 338.55 247.292 339.118 280.576C339.457 300.386 335.553 317.011 328.818 330.61L328.665 330.466L312.402 315.242L311.843 314.718L311.192 315.122Z" fill="white" stroke="black" stroke-width="2"/>
<path d="M190.465 356.232C178.452 345.834 168.7 331.649 163.42 313.379L164.211 312.814L185.86 297.349L209.073 314.027L209.746 314.51L210.347 313.938L228.403 296.728L248.515 313.312L249.238 313.908L249.88 313.224L265.921 296.137L284.99 312.672L285.59 313.192L286.233 312.726L310.402 295.185L335.599 309.918L336.106 310.214C331.716 328.764 322.874 343.341 311.63 354.175C294.945 370.251 272.914 378.144 252.127 378.499C231.335 378.854 208.366 371.727 190.465 356.232ZM309.277 263.164L285.098 279.227L265.929 266.915L265.328 266.529L264.767 266.972L248.539 279.828L228.415 267.543L227.853 267.2L227.315 267.581L209.043 280.547L185.869 268.239L185.409 267.995L184.944 268.232L159.125 281.45C159.107 248.999 170.913 218.478 187.848 195.832C205.192 172.64 227.771 157.883 248.352 157.531C268.923 157.18 291.317 171.158 308.769 193.752C325.758 215.746 337.927 245.745 339.054 278.079L310.292 263.11L309.769 262.837L309.277 263.164Z" fill="white" stroke="black" stroke-width="2"/>
<path d="M159.145 283.651C159.012 275.906 159.559 268.263 160.693 260.801L162.235 259.885L185.926 245.806L208.18 262.03L208.854 262.522L209.458 261.947L227.016 245.25L246.119 261.338L246.823 261.931L247.472 261.278L264.046 244.619L284.133 260.705L284.709 261.166L285.319 260.752L310.494 243.67L337.232 259.874L337.249 259.885C338.354 266.641 338.998 273.558 339.118 280.576C339.686 313.835 328.296 338.116 311.63 354.175C294.945 370.251 272.914 378.144 252.127 378.499C231.335 378.854 208.366 371.727 190.465 356.232C172.586 340.756 159.712 316.891 159.145 283.651ZM308.769 193.752C316.223 203.401 322.748 214.591 327.821 226.843L303.455 214.218L302.955 213.959L302.474 214.253L280.302 227.781L264.121 214.996L263.497 214.504L262.876 215L246.179 228.342L230.601 218.019L230.036 217.645L229.479 218.03L213.727 228.925L198.105 218.574L197.663 218.281L197.172 218.483L169.363 229.96L169.024 230.1L168.856 230.426C168.776 230.581 168.697 230.735 168.619 230.888C173.563 217.956 180.18 206.087 187.848 195.832C205.192 172.64 227.771 157.883 248.352 157.531C268.923 157.18 291.317 171.158 308.769 193.752Z" fill="white" stroke="black" stroke-width="2"/>
<path d="M159.145 283.651C158.695 257.35 166.072 232.223 177.737 211.41L179.012 212.538L197.098 199.217L211.745 213.371L212.42 214.024L213.114 213.391L229.231 198.673L247.318 212.833L248.028 213.389L248.654 212.741L262.752 198.153L279.792 212.261L280.449 212.805L281.09 212.242L296.823 198.424L318.42 210.211L320.265 211.219C331.411 231.197 338.685 255.218 339.118 280.576C339.686 313.835 328.296 338.116 311.63 354.175C294.945 370.251 272.914 378.144 252.127 378.499C231.335 378.854 208.366 371.727 190.465 356.232C172.586 340.756 159.712 316.891 159.145 283.651ZM248.352 157.531C264.341 157.258 281.431 165.642 296.446 179.999L295.868 180.377L283.044 188.76L262.864 176.441L262.25 176.066L261.699 176.53L246.488 189.327L227.389 177.06L226.821 176.695L226.27 177.086L207.956 190.081L196.735 185.168C212.515 168.203 231.133 157.825 248.352 157.531Z" fill="white" stroke="black" stroke-width="2"/>
<path d="M245.766 170.466L246.262 170.711L246.734 170.42L262.569 160.648L263.898 159.829C279.732 164.647 295.647 176.764 308.769 193.752C326.195 216.312 338.55 247.292 339.118 280.576C339.686 313.835 328.296 338.116 311.63 354.175C294.945 370.251 272.914 378.144 252.127 378.499C231.335 378.854 208.366 371.727 190.465 356.232C172.586 340.756 159.712 316.891 159.145 283.651C158.576 250.381 170.531 218.989 187.848 195.832C199.736 179.936 214.083 168.003 228.56 161.954L230.131 162.731L245.766 170.466Z" fill="black" stroke="black" stroke-width="2"/>
<path d="M163.654 311.788L164.068 313.12L165.197 312.301L185.79 297.353L208.934 314.028L209.608 314.514L210.209 313.94L228.212 296.733L248.266 313.315L248.99 313.914L249.633 313.227L265.626 296.144L284.641 312.677L285.241 313.199L285.885 312.731L309.973 295.2L334.094 309.933L335.266 310.649L335.588 309.314C338.269 298.177 338.583 291.136 339.098 279.584L339.099 279.56L339.127 278.934L338.575 278.636L309.888 263.124L309.359 262.837L308.858 263.171L284.749 279.231L265.635 266.92L265.033 266.532L264.471 266.978L248.291 279.83L228.225 267.547L227.661 267.202L227.123 267.585L208.904 280.548L185.797 268.241L185.335 267.995L184.87 268.234L159.66 281.174L159.118 281.453L159.117 282.062C159.101 293.606 160.05 300.172 163.654 311.788Z" fill="white" stroke="black" stroke-width="2"/>
<path d="M245.8 170.482L246.278 170.696L246.726 170.425L262.07 161.162L264.026 159.981L261.831 159.346C255.657 157.558 250.744 156.655 245.786 156.928C240.823 157.201 235.895 158.648 229.675 161.431L227.636 162.343L229.674 163.257L245.8 170.482Z" fill="white" stroke="black" stroke-width="2"/>
<path d="M251.453 364.59L251.034 364.417L250.628 364.619L230.777 374.459L228.324 375.675L230.983 376.326C245.986 380.001 258.205 381.095 273.553 375.579L275.995 374.701L273.596 373.713L251.453 364.59Z" fill="white" stroke="black" stroke-width="2"/>
<path d="M183.021 348.511L183.471 348.982L184.084 348.761L201.555 342.449L225.388 355.324L225.873 355.586L226.354 355.316L250.598 341.684L270.821 354.511L271.326 354.832L271.847 354.539L296.181 340.856L315.018 348.99L315.627 349.252L316.106 348.794C322.74 342.448 325.231 338.502 328.532 331.276L328.831 330.622L328.306 330.131L312.402 315.242L311.843 314.719L311.192 315.122L285.976 330.745L266.795 319.388L266.203 319.038L265.664 319.465L249.442 332.315L229.821 320.033L229.256 319.679L228.712 320.065L210.467 333.012L187.282 319.247L186.598 318.841L186.048 319.416L173.274 332.794L172.851 333.238L173.054 333.817C175.33 340.277 178.083 343.347 183.021 348.511Z" fill="white" stroke="black" stroke-width="2"/>
<path d="M161.719 258.554L161.601 260.455L163.233 259.473L185.929 245.808L208.18 262.031L208.853 262.522L209.458 261.947L227.016 245.25L246.119 261.338L246.823 261.931L247.472 261.279L264.046 244.619L284.133 260.705L284.708 261.166L285.319 260.752L310.481 243.679L335.205 259.397L337.133 260.623L336.726 258.375C334.39 245.477 332.658 238.404 327.109 227.266L326.968 226.983L326.691 226.833L303.472 214.228L302.966 213.953L302.474 214.253L280.302 227.781L264.121 214.996L263.497 214.504L262.876 215L246.179 228.342L230.601 218.019L230.036 217.645L229.479 218.03L213.726 228.926L198.105 218.574L197.662 218.281L197.171 218.484L170.357 229.55L170.017 229.69L169.849 230.017C166.884 235.77 165.011 240.229 163.8 244.604C162.589 248.981 162.051 253.233 161.719 258.554Z" fill="white" stroke="black" stroke-width="2"/>
<path d="M197.523 185.513L196.866 185.225L196.382 185.756C190.056 192.704 184.217 200.676 179.129 209.436L180.567 210.757L197.084 199.203L211.745 213.372L212.421 214.025L213.114 213.391L229.231 198.673L247.318 212.834L248.028 213.389L248.654 212.741L262.752 198.153L279.792 212.262L280.449 212.805L281.09 212.243L296.811 198.434L317.908 210.525L320.9 212.239L319.289 209.19C312.781 196.869 308.287 190.333 296.553 180.762L295.986 180.299L295.374 180.7L283.044 188.76L262.864 176.442L262.25 176.067L261.7 176.53L246.488 189.327L227.389 177.06L226.821 176.695L226.27 177.086L207.956 190.081L197.523 185.513Z" fill="white" stroke="black" stroke-width="2"/>
<path d="M197.695 198.402L176.946 213.259L169.255 231.393L198.062 219.899L213.248 230.641L230.058 219.352L247.743 230.052L262.502 215.798L280.238 229.497L302.496 215.115L328.231 228.677L319.925 210.816L296.681 196.711L279.931 211.5L262.186 197.301L247.436 212.055L229.691 197.856L212.941 212.644L197.695 198.402Z" fill="black" stroke="black" stroke-width="2"/>
<path d="M184.774 244.63L161.261 259.534L159.135 283.074L185.184 268.627L208.939 282.223L227.962 269.034L247.99 281.556L264.749 268.406L284.777 280.927L309.965 264.126L339.109 279.999L336.727 258.991L309.596 242.498L284.417 259.884L264.319 243.271L247.63 260.513L227.532 243.9L208.579 261.18L184.774 244.63Z" fill="black" stroke="black" stroke-width="2"/>
<path d="M186.075 296.615L163.121 311.51C165.3 320.974 167.061 324.078 171.995 333.361L186.485 320.612L210.182 334.209L229.158 321.022L249.137 333.544L265.854 320.395L285.834 332.917L310.959 316.116L327.398 330.707C331.657 323.005 335.056 317.208 335.613 309.563L310.59 294.488L285.474 311.874L265.425 295.26L248.778 312.501L228.728 295.887L209.823 313.166L186.075 296.615Z" fill="black" stroke="black" stroke-width="2"/>
<path d="M246.449 166L230.074 161.844C225.567 161.421 205.292 174.769 195.989 186.429L207.832 191.312L226.641 178.128L246.449 190.653L263.02 177.506L282.828 190.031L297.415 181.196C298.119 180.279 271.752 158.748 262.044 159.797L246.449 166Z" fill="black" stroke="black" stroke-width="2"/>
<path d="M335.119 280.645C335.67 312.884 324.658 336.067 308.854 351.294C292.962 366.607 271.926 374.16 252.058 374.499C232.17 374.839 210.18 368.007 193.083 353.207C176.096 338.504 163.693 315.73 163.144 283.582C162.592 251.288 174.209 220.749 191.051 198.228C208.027 175.528 229.588 161.852 248.42 161.53C267.207 161.21 288.536 174.101 305.604 196.197C322.539 218.122 334.566 248.279 335.119 280.645Z" stroke="black" stroke-width="10"/>
<path d="M92.3947 271.717C92.3947 271.717 83.8017 307.185 70.1763 271.717C56.5509 236.249 108.327 74.1482 246.362 74.1482C394.461 68.6577 430.832 217.174 427.163 271.717C423.493 326.261 360.731 273.048 407.143 271.717C395.482 153.356 355.366 101.399 252.231 95.9636C149.096 90.5279 82.4389 204.911 92.3947 271.717Z" fill="white"/>
<path d="M92.3947 271.717C92.3947 271.717 83.8017 307.185 70.1763 271.717C56.5509 236.249 108.327 74.1482 246.362 74.1482C394.461 68.6577 430.832 217.174 427.163 271.717C423.493 326.261 360.731 273.048 407.143 271.717C395.482 153.356 355.366 101.399 252.231 95.9636C149.096 90.5279 82.4389 204.911 92.3947 271.717Z" stroke="white" stroke-width="10"/>
<path d="M92.3947 271.717C92.3947 271.717 83.8017 307.185 70.1763 271.717C56.5509 236.249 108.327 74.1482 246.362 74.1482C394.461 68.6577 430.832 217.174 427.163 271.717C423.493 326.261 360.731 273.048 407.143 271.717C395.482 153.356 355.366 101.399 252.231 95.9636C149.096 90.5279 82.4389 204.911 92.3947 271.717Z" stroke="black" stroke-width="10"/>
<path d="M123.316 452.884L64.7263 267.578H85.1645H164.192H241.857H326.335H404H433.976L383.562 452.884H311.347H183.268H123.316Z" fill="white"/>
<path d="M326.335 267.578L311.347 452.884M326.335 267.578H241.857M326.335 267.578H404H433.976L383.562 452.884H311.347M311.347 452.884H183.268M241.857 267.578L247.307 448.797M241.857 267.578H164.192M164.192 267.578L183.268 452.884M164.192 267.578H85.1645H64.7263L123.316 452.884H183.268" stroke="white" stroke-width="10"/>
<path d="M326.335 267.578L311.347 452.884M326.335 267.578H241.857M326.335 267.578H404H433.976L383.562 452.884H311.347M311.347 452.884H183.268M241.857 267.578L247.307 448.797M241.857 267.578H164.192M164.192 267.578L183.268 452.884M164.192 267.578H85.1645H64.7263L123.316 452.884H183.268" stroke="black" stroke-width="10"/>
<path d="M83.802 287.931C110.949 293.487 126.134 292.638 153.292 287.931M93.3398 319.269C118.302 327.335 131.301 326.913 153.292 319.269M100.153 346.52C119.531 351.625 130.919 352.531 153.292 346.52M109.69 373.771C126.561 380.935 137.289 381.82 160.105 373.771M120.591 399.659C137.448 406.481 146.216 407.034 160.105 399.659M126.041 426.91C143.416 434.265 152.515 434.959 166.917 426.91M177.818 287.931C200.144 295.112 211.604 294.241 230.957 287.931M177.818 319.269C201.546 326.835 213.134 327.122 230.957 319.269M185.993 346.52C202.134 350.19 211.844 350.835 230.957 346.52M185.993 373.771C202.134 378.029 211.844 378.735 230.957 373.771M192.806 399.659C212.711 407.528 220.114 406.115 230.957 399.659M192.806 426.91C209.237 434.667 217.491 434.509 230.957 426.91M260.933 287.931C286.535 295.257 297.452 294.215 314.072 287.931M260.933 319.269C278.61 327.087 290.468 327.078 314.072 319.269M260.933 346.52C277.509 351.547 287.721 352.287 307.259 346.52M260.933 373.771C277.509 380.914 287.721 381.61 307.259 373.771M260.933 399.659C276.917 407.16 285.867 407.182 301.809 399.659M260.933 426.91C276.896 434.841 285.848 438.592 301.809 426.91M338.598 287.931C366.239 294.055 381.81 295.267 409.45 287.931M338.598 319.269C360.939 328.262 373.484 328.852 395.825 319.269M338.598 346.52C355.858 352.716 369.456 351.551 395.825 346.52M338.598 373.771C358.781 381.633 369.078 381.138 386.287 373.771M327.698 399.659C341.906 404.551 350.406 406.563 374.024 399.659M327.698 426.91C340.362 431.234 348.567 432.062 367.211 426.91" stroke="black" stroke-width="8" stroke-linecap="round"/>
<path d="M71.8516 293.61L62.8973 267.506L441.963 267.506L434.004 297.96C434.004 297.96 441.963 326.674 441.963 329.285C441.963 331.895 427.031 327.909 419.08 333.635C409.007 340.89 431.744 351.921 411.12 358.869C397.228 363.55 390.257 346.72 375.193 349.151C361.212 351.408 357.668 364.661 343.564 366.522C325.089 368.961 329.963 345.457 311.935 349.151C299.544 351.69 292.91 364.537 280.306 366.522C267.34 368.565 263.219 348.568 249.943 349.151C238.475 349.655 232.332 366.742 220.844 366.522C205.727 366.234 204.125 350.894 189.216 349.151C174.891 347.477 166.929 367.844 152.526 366.522C133.122 364.742 142.957 344.008 123.428 343.071C108.865 342.373 103.369 356.091 89.2689 353.494C74.0434 350.69 93.1233 327.535 77.8212 324.934C69.0694 323.447 62.8976 324.934 57.9227 324.934C52.9479 324.934 71.8516 293.61 71.8516 293.61Z" fill="white"/>
<path d="M71.8516 293.61L62.8973 267.506L441.963 267.506L434.004 297.96M71.8516 293.61C71.8516 293.61 52.9479 324.934 57.9227 324.934C62.8976 324.934 69.0694 323.447 77.8212 324.934C93.1233 327.535 74.0434 350.69 89.2689 353.494C103.369 356.091 108.865 342.373 123.428 343.071C142.957 344.008 133.122 364.742 152.526 366.522C166.929 367.844 174.891 347.477 189.216 349.151C204.125 350.894 205.727 366.234 220.844 366.522C232.332 366.742 238.475 349.655 249.943 349.151C263.219 348.568 267.34 368.565 280.306 366.522C292.91 364.537 299.544 351.69 311.935 349.151C329.963 345.457 325.089 368.961 343.564 366.522C357.668 364.661 361.212 351.408 375.193 349.151C390.257 346.72 397.228 363.55 411.12 358.869C431.744 351.921 409.007 340.89 419.08 333.635C427.031 327.909 441.963 331.895 441.963 329.285C441.963 326.674 434.004 297.96 434.004 297.96M71.8516 293.61L434.004 297.96" stroke="white" stroke-width="10"/>
<path d="M71.8516 293.61L62.8973 267.506L441.963 267.506L434.004 297.96M71.8516 293.61C71.8516 293.61 52.9479 324.934 57.9227 324.934C62.8976 324.934 69.0694 323.447 77.8212 324.934C93.1233 327.535 74.0434 350.69 89.2689 353.494C103.369 356.091 108.865 342.373 123.428 343.071C142.957 344.008 133.122 364.742 152.526 366.522C166.929 367.844 174.891 347.477 189.216 349.151C204.125 350.894 205.727 366.234 220.844 366.522C232.332 366.742 238.475 349.655 249.943 349.151C263.219 348.568 267.34 368.565 280.306 366.522C292.91 364.537 299.544 351.69 311.935 349.151C329.963 345.457 325.089 368.961 343.564 366.522C357.668 364.661 361.212 351.408 375.193 349.151C390.257 346.72 397.228 363.55 411.12 358.869C431.744 351.921 409.007 340.89 419.08 333.635C427.031 327.909 441.963 331.895 441.963 329.285C441.963 326.674 434.004 297.96 434.004 297.96M71.8516 293.61L434.004 297.96" stroke="black" stroke-width="10"/>
</g>
<defs>
<clipPath id="clip0_698_18">
<rect width="500" height="500" fill="white"/>
</clipPath>
</defs>
</svg>
